<svg id="Lager_1" data-name="Lager 1" xmlns="http://www.w3.org/2000/svg" viewBox="0 0 279.73 292.77"><defs><style>.cls-1{opacity:0.49;}.cls-2{fill:#fff;}</style></defs><g class="cls-1"><path class="cls-2" d="M131.93,343.29c7.29,2.74,11,10.58,11.78,17.91,1,9.54-2.28,18.87-2.82,28.33-.44,7.69.93,15.8,6.61,21.41,1.32,1.31,3,2.74,3.31,4.67.34,2.09-1.33,3.81-1.54,5.83-.35,3.52,2.48,6.38,5,8.33a65.71,65.71,0,0,0,6.33,4l7.43,4.4,15.06,8.93c.18.1.55.05.63-.17a27.77,27.77,0,0,0-1.08-21.08,26.78,26.78,0,0,0-15.4-13.69,28,28,0,0,0-10.43-1.56c-.82,0-1.64.11-2.45.23a8.52,8.52,0,0,1-1.23.2,3.47,3.47,0,0,1-1.59-.74,8.83,8.83,0,0,1-3.37-4.53,8.45,8.45,0,0,1,4.14-10c4-2.09,9.07-.31,12.84,1.51,8.08,3.89,14.11,10.92,19.82,17.62l.46-.41a105.67,105.67,0,0,1-37.58-11.18l-.12.41a17.19,17.19,0,0,1,13.53-.27A16.66,16.66,0,0,1,167,407.2c1.54,1.58-3.14,1.93-4,2a6.91,6.91,0,0,0-3.95,1.08,3.16,3.16,0,0,0-.45,4.07c1.6,3,5.3,4.37,8.22,5.61,3.36,1.44,7.53,3,8.17,7.12l.58-.34c-4.86-1.35-7.44-6.08-10.44-9.72a20.27,20.27,0,0,0-5.54-4.81,42.19,42.19,0,0,0-7.17-3,46.69,46.69,0,0,1-7.83-3.26c-2.57-1.47-4.76-3.5-7.27-5.08-4.69-2.95-10.24-3.56-15.65-2.7-6.62,1.05-12.83,3.9-18.78,6.87-.17.08-.3.26-.13.41a42.89,42.89,0,0,0,43.26,7.36c.17-.07.29-.28.12-.41a26.3,26.3,0,0,0-24.76-4.17c-.43.15-.33.58.13.48,6.73-1.41,14.34,3.11,20.46-1.48a6.37,6.37,0,0,0,2.59-6.09c-.37-2.54-2-4.75-3.37-6.84-1.65-2.5-3.47-5.29-2.67-8.42,0-.1-.08-.17-.16-.2a47.59,47.59,0,0,1-28.57-29.48l-.49.36c14.6.88,27.35,13.17,28.84,27.7l.7-.25-13.73-13.57-.46.42a19.31,19.31,0,0,1,16.92,13.72c.09.3.72.15.73-.13.41-7,4.52-18.13,13.54-16.29a10.45,10.45,0,0,1,8.06,8.35c.66,4.53-2.42,8.69-6.24,10.78-5.3,2.9-11.68,1.88-17.15.06l0,.39a37.87,37.87,0,0,1,19.38-6.79c.14,0,.56-.22.36-.41l-6-5.89c-.22-.22-.91.07-.66.31l5.95,5.89.37-.41a38.74,38.74,0,0,0-19.92,7c-.16.11-.18.32,0,.39,5.28,1.77,11.3,2.75,16.6.5,4-1.72,7.59-5.38,8-9.9s-2.79-8.68-6.85-10.27a10.19,10.19,0,0,0-10.93,2.57c-3.57,3.55-5.05,8.89-5.34,13.79l.73-.13a19.85,19.85,0,0,0-17.39-14c-.15,0-.69.19-.46.42l13.72,13.56c.21.2.73.08.7-.25-1.52-14.75-14.54-27.14-29.32-28-.16,0-.57.11-.49.36a48.16,48.16,0,0,0,21.74,26.46c1.1.62,2.22,1.2,3.37,1.74.67.31,1.35.61,2,.89a7.62,7.62,0,0,1,1,.41c.54.29.45.28.37.87a9.2,9.2,0,0,0,1.55,5.67c2.19,3.82,7.16,9,3.4,13.48-2.24,2.64-6.18,3.16-9.41,2.88-4-.34-7.81-1.4-11.77-.57l.13.48a25.51,25.51,0,0,1,24.07,4.1l.12-.41A42,42,0,0,1,103.36,405l-.13.41c10.32-5.15,23.52-10.95,34.27-3.7,2.33,1.56,4.43,3.45,6.9,4.8a44.74,44.74,0,0,0,6.89,2.88,46.22,46.22,0,0,1,7.77,3.21,20.1,20.1,0,0,1,5.54,4.85c3,3.7,5.66,8.39,10.57,9.75.22.06.62,0,.58-.34-.92-5.88-8.62-7-12.88-9.51a9.35,9.35,0,0,1-3.58-3.34c-1.14-2.13,0-3.82,2.2-4.17s5.32.11,6.83-2.12a.19.19,0,0,0,0-.19,18.12,18.12,0,0,0-20.84-4.25c-.12.06-.33.3-.12.41A106.42,106.42,0,0,0,185.22,415c.17,0,.67-.17.46-.41C180.46,408.44,175,402.12,168,398c-5.82-3.38-15-6.39-19.51.58a8.89,8.89,0,0,0,3.82,12.77,3.56,3.56,0,0,0,2-.08,25.43,25.43,0,0,1,3-.24,26.6,26.6,0,0,1,25.72,35.75l.62-.16c-8.83-5.23-17.78-10.3-26.5-15.71-3.11-1.93-7.27-5-7.22-9.06,0-2.06,1.57-3.68,1.61-5.71a6.19,6.19,0,0,0-2.12-4.23,35.24,35.24,0,0,1-3.94-4.43,21.27,21.27,0,0,1-2.58-5.45,34.73,34.73,0,0,1-1.35-12.21c.47-9.42,3.7-18.65,2.91-28.15-.65-7.72-4.5-16-12.16-18.88-.3-.11-.85.31-.42.47Z" transform="translate(-38.52 -157.78)"/></g><g class="cls-1"><path class="cls-2" d="M246,201a38.36,38.36,0,0,1-26.25-21.78l-.65.25c6.25,1.76,12.74,4,17.55,8.53,4.44,4.2,7.19,10.66,5.37,16.72l.7-.19-9.05-9.1-.64.29,4.37,2.22c.15.07.79-.18.63-.29a18.07,18.07,0,0,0-18-1.37,17.72,17.72,0,0,0-9.74,15.15.09.09,0,0,0,.06.06,29.51,29.51,0,0,0,23.21,1.23c2.81-1,6.6-2.82,6.82-6.28.21-3.24-3-5.78-5.94-6.27-4.25-.7-8.32,1.94-11.7,4.15-.07,0-.12.15,0,.19,4.87,1.63,9.82-.37,14.39-2s10.43-3.06,14.43.59c.15.13.83-.1.68-.27L246.84,197c-1.58-1.68-3.31-3.31-4.75-5.13a4.7,4.7,0,0,1,0-6.38,23.81,23.81,0,0,1,5-4.15,66,66,0,0,1,25.68-10.72l-.3-.1a29.26,29.26,0,0,1-20.63,24.41,24.68,24.68,0,0,1-2.8.65l-1.22.17c-.3,0-1.58.34-1.84.15s.22-2,.32-2.31a15.44,15.44,0,0,1,1-2.65,15.67,15.67,0,0,1,10.42-8.41l-.4-.09c-1.21,2.62-3.57,4.37-5.68,6.23-1.76,1.54-3.66,3.34-4.06,5.76-1,6.17,6.6,8.41,11.25,9,3.78.51,7.92.94,10.66,3.9l.68-.26c-3.22-2.68-3.85-7.14-2.75-11,1.31-4.58,5-7.76,9.14-9.87a56,56,0,0,1,13.58-4.57,43.69,43.69,0,0,1,13.91-1,23.41,23.41,0,0,1,13.46,5.78l.21-.24a37.93,37.93,0,0,0-12.29,7.15c-3.74,3.27-6.66,7.47-11.12,9.86a24.55,24.55,0,0,1-14.59,2.32,36,36,0,0,1-7-1.61c-1.05-.35-2.09-.75-3.11-1.19-.29-.13-1.1-.31-1.09-.65s1.78-1,2-1.14a96.8,96.8,0,0,1,17.58-7.54l-.17-.25A27.68,27.68,0,0,0,272,208l.7-.18c-6.16-3.44-14-2.23-19.54,1.82-6.45,4.68-8.7,12.85-6.83,20.43a23.09,23.09,0,0,0,6.91,11.64c.12.1.36,0,.48,0,7.05-2.33,14.3-6,18.58-12.28a17.12,17.12,0,0,0,.93-18.1,11.84,11.84,0,0,0-7.56-5.82c-.18,0-.58,0-.65.21l-7.63,21.27c-.07.21.63,0,.72-.11l5-8.44,2.24-3.8c1-1.63,1.8-3.32,3.72-4,2.61-.89,6.2.49,8.43,1.85a13.65,13.65,0,0,1,4.81,4.83,8.52,8.52,0,0,1,1,6.5c-.64,2.28-2.6,4.11-2.56,6.59s1.9,4.52,3.56,6.16c2.16,2.15,4.42,4.22,6.69,6.25,3.64,3.26,7.92,7.18,13.08,7.42,4.24.2,7.52-2.56,9-6.39,3.24-8.37-.16-18.37-5.65-25a29.65,29.65,0,0,0-12.16-8.79,23.15,23.15,0,0,0-7.19-1.6c-1.45-.05-3.6.29-3.91,2,0,.09.06.1.13.12,11,2.22,15.27,15,17.84,24.49.05.2.78,0,.72-.19-2.43-9-6.27-20.9-16.15-24.14-.3-.1-1.46-.22-1.63-.44-.7-.88,1.47-1.45,2-1.49a15.36,15.36,0,0,1,4.61.63,26.78,26.78,0,0,1,7.66,3.23A30.54,30.54,0,0,1,310.49,225a25.92,25.92,0,0,1,2.62,15.94c-.49,2.72-1.59,5.56-3.78,7.35-3.15,2.58-7.23,1.64-10.49-.17a44.28,44.28,0,0,1-8-6.2,64.72,64.72,0,0,1-7.69-7.48,7.13,7.13,0,0,1-1.79-4.22c0-1.8,1.08-3.27,1.86-4.8a8.37,8.37,0,0,0,.32-7.1c-2.08-5.08-8.23-8.81-13.7-8.13-3.28.4-4.51,3.24-6,5.81l-6.47,11,.72-.11,7.63-21.27-.66.21c6,1.38,9.23,7.31,9.57,13.07.42,7.15-4,13.14-9.63,17.07a45,45,0,0,1-11.57,5.53l.47,0a22.84,22.84,0,0,1-7.3-19.93,18.14,18.14,0,0,1,13.62-14.86A16.18,16.18,0,0,1,272,208a.6.6,0,0,0,.7-.19,27,27,0,0,1,15.51-14.44c.4-.14.15-.35-.17-.25a98.87,98.87,0,0,0-20.33,9c-.08.05-.23.16-.08.23,6.34,3,13.68,4.58,20.65,3.24a22.28,22.28,0,0,0,8.67-3.62c3.26-2.3,5.69-5.53,8.63-8.19a36.75,36.75,0,0,1,12.44-7.4c.06,0,.31-.14.2-.24-7.16-6.57-17.46-6.88-26.53-5.17a61.59,61.59,0,0,0-14.19,4.39c-4.14,1.9-8.26,4.74-10.15,9s-1.59,9.76,2.17,12.88c.15.13.84-.09.68-.26-4.36-4.73-11.59-3-17-5.55-2.57-1.2-5-3.37-5-6.43.05-2.82,2.22-4.87,4.2-6.59s4.41-3.6,5.61-6.2c.08-.17-.37-.1-.4-.09a16.45,16.45,0,0,0-12.54,13.9c0,.11.13.12.21.12,13.91-.5,26.46-11.94,27.86-25.85,0-.15-.21-.13-.3-.11a67.72,67.72,0,0,0-21,7.61,49.65,49.65,0,0,0-9.32,6.42,7.27,7.27,0,0,0-2.44,3.71,5,5,0,0,0,1.29,4.1c1.45,1.81,3.17,3.44,4.75,5.13l5.39,5.75.68-.27c-4.91-4.48-12.13-1.69-17.5.22a26.38,26.38,0,0,1-6.86,1.73,9.27,9.27,0,0,1-3.71-.29c-.55-.21-.56-.19-.12-.55a13.23,13.23,0,0,1,1.8-1.12c3.71-2.19,8.45-3.67,12-.33a5.16,5.16,0,0,1,1.76,4.77,6.61,6.61,0,0,1-3.67,4.11,26.09,26.09,0,0,1-12.17,2.85,28.39,28.39,0,0,1-11.66-2.47c-.62-.28-1-.42-1-1.2a6.65,6.65,0,0,1,.13-1.26,16.48,16.48,0,0,1,.59-2.52,17.69,17.69,0,0,1,2.42-4.91,16.72,16.72,0,0,1,23.12-3.92l.63-.28-4.36-2.22c-.13-.07-.8.12-.63.29l9.05,9.1a.6.6,0,0,0,.7-.19c1.79-6-.82-12.36-5.13-16.61-4.84-4.77-11.53-7-17.93-8.84-.1,0-.74,0-.65.25a38.55,38.55,0,0,0,26.38,21.9c.19.05.83-.25.59-.31Z" transform="translate(-38.52 -157.78)"/></g><g class="cls-1"><path class="cls-2" d="M116,328.93c2-3.2,1.74-6.95,1.81-10.55a17.78,17.78,0,0,1,3-10.32c3.94-5.63,10.57-8.84,16.64-11.61l-.53-.19a103.79,103.79,0,0,1-2,12.14,43,43,0,0,1-3.19,10.06c-1.48,2.88-3.71,5.29-7.05,5.74-2.45.32-5.32,0-7.06,2.09l.67.09a16.48,16.48,0,0,1,6.87-12.27l-.59-.21c-1.69,4.66-1.79,10.1-5.08,14.05a7.6,7.6,0,0,1-6.94,2.94,34.75,34.75,0,0,0-6.76-.34,23.62,23.62,0,0,0-21.24,28.5c0,.13.22.19.33.17a6.55,6.55,0,0,0,3.49-1.9,49.5,49.5,0,0,1,4.28-4c3.22-2.41,7-4.06,10.08-6.58,2.63-2.13,5-5.11,5.54-8.53.43-2.63-.52-7.27-4-5.23A39.27,39.27,0,0,0,94,342.11c-.28.35.33.45.54.28a183.06,183.06,0,0,1,16.53-11.54l-.59-.21c-2.34,5.75-2,12.08-.1,17.9,2.13,6.47,6.2,11.7,10.22,17.08.15.2.49.1.63-.05a22.31,22.31,0,0,0-6.89-35.84c-.18-.09-.55,0-.57.27a22.06,22.06,0,0,0,7.47,18.62l.56-.41a4.34,4.34,0,0,1-1.84-2.48c-.1-.33-.83-.14-.73.2a4.8,4.8,0,0,0,2,2.69c.26.18.88-.13.56-.41a21.68,21.68,0,0,1-7.3-18.26l-.57.27a21.91,21.91,0,0,1,6.7,35.14l.63-.06c-3.91-5.23-7.89-10.31-10-16.56-2-5.84-2.42-12.22-.06-18,.15-.37-.41-.31-.59-.21a188.54,188.54,0,0,0-16.52,11.54l.54.28a45.11,45.11,0,0,1,4.76-5c.87-.78,1.77-1.53,2.7-2.23a12.64,12.64,0,0,1,2.79-1.93c3-1.15,2.87,4,2.51,5.61a12.87,12.87,0,0,1-3,5.45c-2.72,3.12-6.51,4.94-10,7.12a27.82,27.82,0,0,0-4.58,3.51c-1.48,1.45-2.81,3.47-5,3.84l.33.17A22.91,22.91,0,0,1,108.66,331c2.21.11,4.44.8,6.65.27a8.72,8.72,0,0,0,4.35-2.71c3.67-4,3.76-9.72,5.53-14.6.13-.36-.41-.34-.59-.21a17.07,17.07,0,0,0-7.12,12.66c0,.35.53.25.67.08,2-2.46,6.12-1.26,8.83-2.41a11.35,11.35,0,0,0,5.36-5.55,42,42,0,0,0,3.07-9.5,103.35,103.35,0,0,0,2.17-12.84c0-.28-.37-.26-.53-.19-6.09,2.78-12.68,6-16.73,11.55a16.87,16.87,0,0,0-3.22,9.23c-.23,4.06.4,8.4-1.82,12-.21.34.52.36.69.09Z" transform="translate(-38.52 -157.78)"/></g><g class="cls-1"><path class="cls-2" d="M118.09,335.25c-1.85-2.29,6.47-5.31,8-5.9a51.81,51.81,0,0,1,9.85-2.75,52.36,52.36,0,0,1,20.19.39c3,.65,6.41,1.36,8.86,3.27a4.24,4.24,0,0,1,1.9,3.33c-.05,1.88-1.69,3.05-3.24,3.77a49.11,49.11,0,0,1-10.5,3.1,49.73,49.73,0,0,1-11.54,1.08c-7.65-.22-15.3-2.63-21.18-7.65l-.19.3a32.73,32.73,0,0,1,28.11,1.41c.21.12.88-.19.57-.36a33.72,33.72,0,0,0-29-1.37c-.08,0-.32.2-.19.31A34.3,34.3,0,0,0,140,341.91,50.17,50.17,0,0,0,152.3,341a47.88,47.88,0,0,0,11.93-3.51c2.27-1.12,4.38-3.42,2.82-6s-5.44-3.63-8.28-4.38a53.43,53.43,0,0,0-34.55,2.54c-1.43.61-8.87,3.31-6.8,5.86.16.21.86,0,.67-.28Z" transform="translate(-38.52 -157.78)"/></g><g class="cls-1"><path class="cls-2" d="M158.56,190a4.66,4.66,0,0,1-1.15-5.32c1.1-2.6,4.23-2.79,6.18-1,.59.52,1.47,1.57,1.31,2.44s-2.18.13-2.94.24a1.46,1.46,0,0,0-1.17.67.74.74,0,0,0,.45,1.15c.13,0,.72-.22.64-.25l-3.32-1.41c-.15-.06-.63,0-.7.19-.81,1.7-3.3,1.66-3.75,3.69a4.11,4.11,0,0,0,2.23,4.24c1.79.9,4,.52,5.83,0a19.14,19.14,0,0,0,5.39-2.44,6.09,6.09,0,0,0,2.92-5.12,8.38,8.38,0,0,0-3.09-5.85,20.3,20.3,0,0,0-3.06-2.15,13.92,13.92,0,0,0-3.43-1.76c-1.79-.48-3.45.42-5,1.3-2,1.15-4.15,2.51-5.09,4.7-1.2,2.81.28,5.76,1.61,8.23l.66-.23a25.23,25.23,0,0,1-8.94-3.64c-2.25-1.47-6.07-4.32-4.78-7.5.59-1.46,2.17-2.27,3.45-3a13.9,13.9,0,0,1,6.18-2.36c2.86-.14,6,2.14,5.68,5.2l.52-.23a4.22,4.22,0,0,1-4-3.12,4.85,4.85,0,0,1,.72-4.5c3.26-4.46,9.35-2.67,13.62-1.05l6.67,2.55c2.08.8,4.25,1.49,6.28,2.44a3.85,3.85,0,0,1,2.37,4.69c-.7,2.57-3.26,3.75-5.66,4.26-.06,0-.45.09-.43.22.48,3.83,1,8-.74,11.64a8.82,8.82,0,0,1-3.47,3.86c-2.34,1.29-5,.57-7.19-.65-3.16-1.78-5.42-4.75-8.52-6.61s-7-2.23-10.6-2.49c-.16,0-.76.26-.6.27a35.64,35.64,0,0,1,7,.95,15.83,15.83,0,0,1,5.91,3.23c3.09,2.55,6.1,6,10.38,6.25a8.11,8.11,0,0,0,7.29-4c2.37-3.79,1.82-8.45,1.28-12.66l-.43.22c3-.66,6.87-2.36,6.68-6.08-.1-2-1.7-3-3.4-3.7-2.35-.93-4.72-1.81-7.08-2.71-4.13-1.58-8.61-3.92-13.16-3.75-2.85.1-6.1,1.42-7.41,4.11-1.47,3,.69,7.11,4.2,6.88.11,0,.5-.07.52-.23.37-3.44-3.31-5.48-6.34-5.24s-6.32,2-8.78,3.87a3.83,3.83,0,0,0-1.74,4.1,8.23,8.23,0,0,0,3.07,4.06,25.31,25.31,0,0,0,10.88,5c.08,0,.73-.1.66-.22a13.6,13.6,0,0,1-2.05-5.82,6.27,6.27,0,0,1,2.49-5c1.66-1.42,4.82-3.66,7-2.86a21.06,21.06,0,0,1,5.09,3c2.93,2.19,5.52,6.32,3,9.83a10.36,10.36,0,0,1-4.59,3.19c-2.3.94-5.42,2-7.67.41-1.28-.93-2.19-2.84-1.49-4.38s2.82-1.6,3.56-3.14l-.7.19,3.32,1.4.65-.25a.63.63,0,0,1-.39-.91c.26-.58,1-.3,1.43-.21a3.88,3.88,0,0,0,1.48.1c.5-.09,1.24-.33,1.34-.93.15-.91-.9-2.09-1.54-2.62a5.13,5.13,0,0,0-2.9-1.16,4.6,4.6,0,0,0-4.3,2.14,4.76,4.76,0,0,0,.92,5.94c.14.12.77-.17.68-.23Z" transform="translate(-38.52 -157.78)"/></g><g class="cls-1"><path class="cls-2" d="M142.59,191a8.41,8.41,0,0,0-3,6.69c0,.15.1.22.24.25,4.53,1,9.76,2.2,12.74,6.07,1.33,1.75,1.87,3.89,4.07,4.78a16,16,0,0,0,5.91.95c3.34,0,7.32-1,8.81-4.36.45-1,.53-2.09.93-3.1.71-1.83,2.38-1.85,4.06-1.89a9.15,9.15,0,0,0,5.68-2,8.52,8.52,0,0,0,.67-12.55l-.54.42c3.06.87,5.52-2.49,5-5.34-.7-3.9-5.77-4.8-9-4.34l.34.25a7.89,7.89,0,0,0-3.42-6.75,13.93,13.93,0,0,0-8.29-2.28c-3.45,0-7.12,1-10.51,0-2.65-.73-5.19-3.59-4-6.51.7-1.73,3-1.67,4.62-1.92q2.87-.44,5.76-.62a66.37,66.37,0,0,1,12,.3,25.86,25.86,0,0,0,4.81.37c1.74-.11,3.3-1.09,5-1.17,3.19-.15,5,3.34,6,5.85.7,1.74,1.25,3.54,1.86,5.32s1.39,3.81,1.91,5.76.88,4.34-.39,6.07c-1.1,1.49-3.28,2.35-4.81,1l-.21.48c2.81-.88,5.59,2.84,4.42,5.41-.74,1.62-2.81,2.07-4.19,2.94a8.74,8.74,0,0,0-2.62,2.59c-3,4.51-2.77,11.68-8,14.52a9,9,0,0,1-10.29-1.32.43.43,0,0,0-.44,0c-3.26,1.22-1.2,6-2.46,8.42s-5.15,2.07-7.46,1.81a18.63,18.63,0,0,1-7.45-2.31c-2.53-1.5-4.32-3.87-6.19-6.09l-5.64-6.69c-1.82-2.16-3.77-4.27-5.45-6.55-1.5-2-2.41-4.37-1.54-6.86,1.47-4.23,5.92-6.65,7.31-11,0-.17-.06-.29-.23-.32-7.95-1.24-18,3.61-19.48,12.17a7.29,7.29,0,0,0,1,5.47c1.13,1.59,3.89,2.23,4.49,4.14.4,1.26-.56,2.4-.72,3.62a4.25,4.25,0,0,0,.58,2.65c1.05,1.87,3,3.11,4.86,4.11,2.27,1.25,4.78,2.57,7.45,2.25a5.5,5.5,0,0,0,4.63-3.24c.14-.37-.41-.35-.6-.23C138.33,210,134,213.92,137,217c1.19,1.23,3.06,1.49,4.68,1.69,2.88.36,5.76.68,8.64,1,5.53.65,11.1,1.56,16.66,1.89,4,.24,7.79-.57,10.37-3.79A10.65,10.65,0,0,0,179,207l-.64.31c6.1,3.26,12.93-.94,15.93-6.41a31,31,0,0,0,3.31-11.06c.4-3.25-.49-6.31-3.54-7.89s-6.54-1.47-9.76-1.23c-.42,0-.55.59-.06.56,3.27-.25,7.18-.35,10,1.55,3.75,2.5,2.73,7.27,1.86,11-.93,4-2.52,8.22-5.67,11s-7.75,4.05-11.55,2c-.18-.1-.79,0-.64.31a10.06,10.06,0,0,1-.57,9.09c-2.12,3.72-5.86,5.05-10,4.87-4.47-.19-9-1-13.4-1.48s-9.1-.83-13.56-1.62c-2.24-.39-4.55-1.8-3.82-4.41.6-2.14,2.59-3.75,4.36-4.94l-.59-.22c-2.07,5.26-8.92,1.92-12.11-.09-1.61-1-3.49-2.43-3.92-4.4s1.35-3.49.55-5.26c-.61-1.34-2.15-2-3.25-2.8a5.93,5.93,0,0,1-2.25-5c.1-3.89,2.56-7.3,5.56-9.58a17.32,17.32,0,0,1,13.08-3.35l-.23-.32c-1.21,3.79-4.67,6.15-6.61,9.51a7.08,7.08,0,0,0-1,4.83c.41,2.35,2.08,4.24,3.57,6,3.74,4.44,7.45,8.91,11.22,13.32a17.8,17.8,0,0,0,5.24,4.46,19.74,19.74,0,0,0,6.59,1.95c3.15.4,8.14.75,9.14-3.18.44-1.72.05-3.51.36-5.24a3,3,0,0,1,.34-1.05,1.72,1.72,0,0,1,.48-.53c1.1-.6.07-.14.38-.06s1,.77,1.34,1a8.77,8.77,0,0,0,1.27.62,9.85,9.85,0,0,0,10.14-1.81c2.73-2.57,3.53-6.47,4.78-9.85a11.93,11.93,0,0,1,3.55-5.6c1.66-1.28,4.34-1.68,5.13-3.87,1.12-3.11-2.17-6.79-5.35-5.79-.2.06-.42.28-.21.47,1.81,1.58,4.51.62,5.88-1.08,2.31-2.89.5-7.12-.54-10.13-1.18-3.46-2.07-7.29-4-10.41-1.44-2.29-3.64-3.87-6.43-3.19-.88.21-1.72.6-2.61.81a12.05,12.05,0,0,1-4,.05c-2.23-.25-4.45-.52-6.7-.62a67.37,67.37,0,0,0-12.85.66c-.91.14-1.81.29-2.72.46a3.62,3.62,0,0,0-2.07.75,3.75,3.75,0,0,0-1.1,2.89,6,6,0,0,0,4.76,5.48c4.15,1.07,8.53-.37,12.74.1,4.38.48,9.29,3.4,9,8.41,0,.17.18.27.33.25,2.76-.39,6.21.1,7.81,2.67,1.39,2.23-.18,6.86-3.35,6-.17-.05-.8.15-.54.42a8,8,0,0,1-.92,12.2,7.79,7.79,0,0,1-3.27,1.35c-1.12.18-2.27,0-3.4.21-1.82.3-2.69,1.48-3.14,3.19-.57,2.17-1.26,3.86-3.36,5a11.85,11.85,0,0,1-5.66,1.1c-2,0-4.87-.24-6.46-1.62a9.93,9.93,0,0,1-1.8-2.68,11.17,11.17,0,0,0-1.76-2.29c-3.21-3.18-7.91-4.27-12.18-5.2l.24.25a7.87,7.87,0,0,1,2.78-6.29c.37-.32-.2-.6-.49-.35Z" transform="translate(-38.52 -157.78)"/></g><g class="cls-1"><path class="cls-2" d="M87.73,276,75.14,280.6l.43.15c-.32-4.05.23-9.39,4.75-10.92a4,4,0,0,1,4.87,1.61,3.58,3.58,0,0,1-.29,4.48c-.23.21-.09.44.21.43a4.75,4.75,0,0,0,4.52-3.69.21.21,0,0,0-.09-.18c-.52-.46-2.15-1.45-2.18-2.15s1-1.35,1.53-1.69a6.83,6.83,0,0,1,4.38-.88,6.92,6.92,0,0,1,6.09,6,9.79,9.79,0,0,1-3.72,9.08,13.47,13.47,0,0,1-10.74,2.05c-1.87-.38-4.17-1.28-4-3.58a4.56,4.56,0,0,1,3.39-3.92,8.74,8.74,0,0,1,3.84.08,24.29,24.29,0,0,0,3.14.91,2.35,2.35,0,0,0,1.85-1.14c1.19-1.86.15-4.66-1.31-6.05-2.21-2.1-6-3-6.86-6.26a5.67,5.67,0,0,1,1.68-5.24,8.42,8.42,0,0,1,6.8-2.26,23,23,0,0,1,7,1.65c1.7.7,4.21,2.26,3.38,4.44l.47-.22a25.63,25.63,0,0,0-15.06,2.52c-.44.23,0,.61.32.43,5.7-2.79,12.19-2.19,18,0a38.93,38.93,0,0,1,8.19,4.34c2.62,1.81,4.82,3.86,4.11,7.32-1.19,5.8-7.53,9.8-12.87,11.16a20.5,20.5,0,0,1-8.36.38c-1.31-.22-3.67-.5-4.21-2-.37-1-.11-2.08-.91-2.95-1.16-1.27-3.23-1.19-4.75-.76-2.28.64-3.73,2.43-5.48,3.91-2,1.68-4.38,2.6-6.69,1a16.87,16.87,0,0,1-3.72-4.3,15.92,15.92,0,0,0-3.68-4.08,6.07,6.07,0,0,0-2-.9c-1.59-.36-3.25.28-4.82-.18-2.44-.71-3.26-3.62-3.35-5.87a17.68,17.68,0,0,1,1.71-7.76c2.51-5.66,7.88-10.52,14.38-10.32,5.54.17,11.08,3.74,12.37,9.33l.64-.31a48.57,48.57,0,0,1-12.5-11.24l-.36.42,16.42-.76-.13-.48a21.29,21.29,0,0,1-14.1,2.16,20.05,20.05,0,0,1-3.48-1c-1.19-.45-2.83-1-3.15-2.42-.47-2.07,2.56-3.19,4.08-3.49a54.67,54.67,0,0,1,8.09-.61q4-.19,8-.22c4.7,0,10-.12,14,2.73,3.39,2.42,5.26,8,2,11.29a.23.23,0,0,0,0,.27c1.43,2.44,4.71,1.3,6.92.9a6.28,6.28,0,0,1,4.93.64,8.49,8.49,0,0,1,2.78,3.84,28.89,28.89,0,0,1,1.78,10.9c0,4.08-1.9,9.26-6.67,9.59-.16,0-.38.12-.4.3-.79,7.14-7.47,13.24-14.77,12.82-7.09-.41-13.14-6.74-13.47-13.78a.28.28,0,0,0-.34-.24,5.37,5.37,0,0,0-4.77,5.35c.07,1.71,1,3.39.21,5.06a4.59,4.59,0,0,1-3.28,2.25c-6.52,1.48-12.7-4.43-15.58-9.67a21,21,0,0,1-2.59-11.35.23.23,0,0,0-.09-.19c-4.28-2.23-9.58,1.27-10.45,5.73C50,288.94,55.48,293.66,60.56,295c1.69.45,3.43.7,5.1,1.24a16,16,0,0,1,4.55,2.41c2.49,1.86,4.57,4.19,6.87,6.27,4.73,4.28,10.79,6.42,17.14,4.85a17.69,17.69,0,0,0,12.83-13.43l-.73.06-.41,4.32c0,.14.12.23.24.24,4.8.37,8.45-6.12,5.13-9.85l-.46.42a22.73,22.73,0,0,0,21.84-13.47A22.41,22.41,0,0,0,134,264.42a11.83,11.83,0,0,0-3.19-6.16,18.73,18.73,0,0,0-5.89-3.24,40.11,40.11,0,0,1-14.77-10.38.45.45,0,0,0-.67.12,11.72,11.72,0,0,0-1.73,7.23c0,.26.48.16.6.07a6.74,6.74,0,0,0,2-7.12,8.41,8.41,0,0,0-6.19-5.87,14.81,14.81,0,0,0-9.74,1c-2.52,1.17-5.3,3.63-4.43,6.7.06.2.38.2.52.12a5.84,5.84,0,0,0,2-7.56c-1.59-3.28-5.48-4.69-8.86-5.13-7.91-1-15.4,2.67-21.35,7.58A66.4,66.4,0,0,0,52.45,252a.21.21,0,0,0,0,.27,17.7,17.7,0,0,0,16.2,8.41c.14,0,.56-.22.36-.42-4.09-4.07-10.62-2.57-14.65.81-4.52,3.78-6,10.26-4.48,15.84a13.6,13.6,0,0,0,5.58,7.89c.27.18.9-.19.56-.42-5.85-3.83-7.4-12-4.7-18.24,2.58-5.94,11.55-11,17-5.56l.36-.43a17.07,17.07,0,0,1-12.88-4.76,16.31,16.31,0,0,1-2.12-2.5c-.37-.54-.49-.74-.14-1.3a18.4,18.4,0,0,1,1.26-1.54,69.52,69.52,0,0,1,4.81-5.19c6.74-6.51,16.31-12.41,26.05-9.71,2.51.7,5.18,2.17,6.22,4.7.92,2.24.5,5.27-1.72,6.58l.53.12c-.9-3.16,2.35-5.53,5-6.46a13.59,13.59,0,0,1,8.79-.34,7.82,7.82,0,0,1,5.13,5.22,6.31,6.31,0,0,1-1.68,6.74l.6.06a11.37,11.37,0,0,1,1.7-6.94l-.68.11a39.65,39.65,0,0,0,10.65,8.5c3.88,2.11,9.1,3,11.55,7s2.51,9.27,1.52,13.64A21.61,21.61,0,0,1,126,286a22.05,22.05,0,0,1-15,5c-.16,0-.68.18-.46.42,2.82,3.16.18,9.35-4.21,9l.24.24.41-4.33c0-.38-.67-.25-.73.06A17.18,17.18,0,0,1,98,307.73a16.81,16.81,0,0,1-15,.5c-4.2-1.91-7.13-5.62-10.53-8.6a19.43,19.43,0,0,0-5.24-3.45c-2.34-1-4.91-1.2-7.31-2-4.22-1.36-8.23-5.18-8.23-9.87a7.29,7.29,0,0,1,2.86-5.63,6.85,6.85,0,0,1,2.76-1.38c.85-.2,3.11-.44,3.55.63a5.05,5.05,0,0,1,0,1.45c0,.39,0,.77.07,1.16a20.38,20.38,0,0,0,.56,3.38,22.23,22.23,0,0,0,2.26,5.59,21.49,21.49,0,0,0,8.84,8.53c2.94,1.49,7.28,2,10-.22a4.23,4.23,0,0,0,1.46-4.1c-.22-1.51-.75-2.88-.17-4.38a4.64,4.64,0,0,1,3.68-2.93l-.34-.23A15.41,15.41,0,0,0,97,299.53,15.17,15.17,0,0,0,117,287.05l-.4.29c3.76-.26,6.36-3.49,7.14-7a22.26,22.26,0,0,0,.08-7.24,30.58,30.58,0,0,0-1-5.62c-.9-2.88-2.67-6-6-6.4a16.58,16.58,0,0,0-4.9.59,6.74,6.74,0,0,1-2.86.1c-.35-.1-1.09-.4-1.21-.81s.29-.69.54-1c1.86-2.73,1.05-6.5-.8-9-2.39-3.24-6.64-4.33-10.46-4.66a106.34,106.34,0,0,0-15,.11,53.71,53.71,0,0,0-7.17.56,7.5,7.5,0,0,0-4.13,2c-3.32,3.67,4.55,5.61,6.82,6a22.27,22.27,0,0,0,14.26-2.33c.31-.17.23-.5-.13-.48l-16.42.76c-.17,0-.53.21-.36.43a48.69,48.69,0,0,0,12.6,11.34c.2.13.72,0,.64-.31-1.16-5-5.67-8.45-10.59-9.4a15.25,15.25,0,0,0-14.22,5.26c-3.41,3.85-6,9.91-4.86,15.11.49,2.19,1.86,4.23,4.24,4.51,1.58.18,3.16-.36,4.7.21a7.48,7.48,0,0,1,2.81,2.08c2.41,2.69,4.3,7.55,8.4,7.92,2.53.23,4.52-1.49,6.25-3.1a10.53,10.53,0,0,1,3.71-2.63c1.32-.44,3.18-.6,4.24.5.89.92.43,2.18,1,3.21s2.13,1.4,3.27,1.67a21.1,21.1,0,0,0,8.56.15c5.5-1,11.33-4.32,14-9.44,1.42-2.77,1.58-6-.78-8.27a31.72,31.72,0,0,0-9.39-5.8c-6.4-2.78-13.78-3.72-20.23-.57l.32.43A24.63,24.63,0,0,1,104,263.82a.48.48,0,0,0,.47-.22c1.45-3.82-4.6-5.44-7.12-6.07-3.83-1-8.25-1.18-11.25,1.81-2.53,2.53-2.8,6.19,0,8.64,2.57,2.27,7.47,3.76,6.69,8.13a2.4,2.4,0,0,1-.48,1.15c-.49.58-.92.49-1.58.32a29.87,29.87,0,0,0-3.48-.84,6.89,6.89,0,0,0-5.12,1.11,4.92,4.92,0,0,0-2,3.94c.09,1.71,1.46,2.71,3,3.22,6.94,2.35,16.25-1,17-9.05.37-3.78-1.59-7.46-5.38-8.48-3.1-.85-6.68.08-8.37,2.95a.18.18,0,0,0,.07.25c.86.76,2.75,1.79,2.06,3.08a3.88,3.88,0,0,1-3.35,2.06l.21.43a3.88,3.88,0,0,0,.74-4.63,4.51,4.51,0,0,0-4.81-2.54c-5.75.72-6.83,7.16-6.46,11.86,0,.17.31.19.42.15l12.59-4.56c.43-.16.31-.66-.13-.5Z" transform="translate(-38.52 -157.78)"/></g><g class="cls-1"><path class="cls-2" d="M60.82,296.47a7,7,0,0,0,3.08,8.87,18.63,18.63,0,0,0,3.12,1,5.77,5.77,0,0,1,3.22,2.34c1.26,1.82,2.09,3.78,3.65,5.41a17.11,17.11,0,0,0,21.76,2.51,17.31,17.31,0,0,0,7.37-11l-.72.14c.42,6.43,8,8.7,13.4,7.87,6.56-1,13.51-7.35,12.33-14.47-.62-3.75-3.39-7.15-7.26-7.71l-.17.39c2.52-.84,4.73,1.26,6.58,2.66,1.59,1.19,3.32,2.39,5.37,2.43,4.65.1,7.28-5.08,8.78-8.75,1.61-3.91,3.32-9.43.76-13.32a6.63,6.63,0,0,0-2.07-2c-1.3-.81-2.91-1.21-4-2.41-2-2.33-.63-5.81-.13-8.45,2.27-11.86-12.83-18.3-21.71-21.36a70.43,70.43,0,0,0-9.58-2.55c-3-.58-6.14-.71-9.17-1.28-2.67-.51-5.44-2.06-5.25-5.17s3-5.53,6-5.93c3.78-.5,7.7,1,11.17,2.36a82.59,82.59,0,0,1,9.69,4.38,84.16,84.16,0,0,1,17.58,12.5l.29-.33A35.74,35.74,0,0,1,102,236l-.47.36,8,1c.12,0,.68-.18.48-.36a14.19,14.19,0,0,0-10.68-3.58c-2.3.2-4.43,1.12-6.66,1.65-2.79.66-5.61.27-8.43.07a41.26,41.26,0,0,0-21.63,4.58,46.16,46.16,0,0,0-16.72,14.46,42.39,42.39,0,0,0-5.22,10c-1.28,3.56-2.48,7.81-2.07,11.62.89,8.14,11.78,5.66,14.58.22.12-.24-.25-.25-.39-.21-5.35,1.48-6.45,7.61-5.52,12.4,1.24,6.37,6.32,11.88,11.71,15.19a28,28,0,0,0,10.94,3.9c.24,0,.85-.35.44-.41a28,28,0,0,1-16.62-8.59c-3.91-4.17-6.8-9.67-5.89-15.53.45-2.95,2-5.74,5-6.58l-.39-.2a8.89,8.89,0,0,1-7.73,4.69c-3.93,0-5.67-3.31-5.47-6.91.36-6.86,3.19-13.66,7.07-19.26,8-11.48,21.58-19.35,35.71-19,2.36.05,4.7.42,7.06.4a24,24,0,0,0,6.65-1.3,13.79,13.79,0,0,1,13.55,2.71l.47-.36-8-1c-.12,0-.68.17-.48.35A36.5,36.5,0,0,0,135.08,245c.08,0,.44-.19.28-.34a84.82,84.82,0,0,0-15.26-11.24,74.32,74.32,0,0,0-17.51-7.51c-4.61-1.24-10.72-1.08-12.71,4.17a4.8,4.8,0,0,0,1.48,5.68c1.88,1.44,4.42,1.61,6.69,1.84a69.86,69.86,0,0,1,20.3,5.21c5.47,2.33,11.35,5.28,14.87,10.26a11.25,11.25,0,0,1,2.13,8.25c-.38,2.52-1.61,5.3-.83,7.85.86,2.81,4,3,5.93,4.81s2.29,4.27,2.13,6.68a25.79,25.79,0,0,1-2.48,8.76c-1.2,2.64-3,6.1-6,6.91-5.31,1.44-8.22-6.68-13.55-4.89-.14,0-.53.35-.17.4A8.51,8.51,0,0,1,127,298a10.59,10.59,0,0,1-2,9.44c-3.9,5.19-11,7.44-17,4.71a7.89,7.89,0,0,1-5-6.64c0-.26-.68-.07-.72.14-1.51,7.94-9,14.12-17.18,13.32a17,17,0,0,1-10.56-5.16,23.61,23.61,0,0,1-3.16-4.64,6.51,6.51,0,0,0-3.94-3.24c-2.21-.68-4.15-1.18-5.45-3.25a6.72,6.72,0,0,1-.51-6.2c.14-.33-.58-.25-.68,0Z" transform="translate(-38.52 -157.78)"/></g><g class="cls-1"><path class="cls-2" d="M163.07,264.71c-2.4,3.82-4.88,7.79-5.62,12.31-.61,3.78,0,8.62,3.33,11.06,2.78,2.05,6.31.59,8.7-1.35a22,22,0,0,0,6.85-10c.24-.71.8-1.94.44-2.7s-1.48-.73-2.07-1.28c-2-1.9-.55-4.87.59-6.8a0,0,0,0,0,0-.05,7.65,7.65,0,0,0-4.73.1,9.31,9.31,0,0,1-4.38.35,8.07,8.07,0,0,1-3.07-1.5c-3.86-3-4.6-8-5.2-12.55l-.72.2c2.69,4.25,5.49,8.6,9.4,11.84,3.13,2.6,8,5.3,12.13,3.37,1.68-.79,3.12-2.63,2.77-4.57a8.55,8.55,0,0,0-2.07-3.43c-.85-1.06-1.74-2.09-2.67-3.08-3.69-3.92-8.34-7.87-13.41-9.85-3.44-1.35-8.64-1.17-10.48,2.69-1.09,2.3-.07,4.77,1,6.85,1.31,2.48,2.63,4.78,3,7.61a13,13,0,0,1-1.62,8.1c-1.62,2.7-4.71,5.11-8,3.93a5.93,5.93,0,0,1-4-4.89c-.14-2.53,2.18-4.14,2.79-6.42.75-2.81-3-4-4.85-5-2.28-1.27-6.85-2.87-5.33-6.29,1.28-2.87,4.94-4.79,7.81-5.52a14.64,14.64,0,0,1,9.48.77.94.94,0,0,0,.68-.25,16,16,0,0,0-12.26,0c-2.9,1.16-9.66,5.62-5.44,9a21.56,21.56,0,0,0,3.14,1.88c1.43.8,2.88,1.59,4.3,2.41,1,.59,2,1.37,1.86,2.65a7.5,7.5,0,0,1-1.51,3.23c-1.21,1.92-2,3.82-.72,5.95a6.5,6.5,0,0,0,4.77,3.12c4,.43,7.41-2.79,8.8-6.24a13.74,13.74,0,0,0,.71-7.4c-.5-2.85-2.08-5.12-3.3-7.68-1.15-2.41-1.64-5.27.49-7.32,2.71-2.61,6.64-1.67,9.63-.14a44.82,44.82,0,0,1,13.22,10.69c1.92,2.23,4.75,5.09,2.33,8-2.69,3.24-7.69,1-10.55-.86-5-3.23-8.25-8.37-11.35-13.27-.08-.13-.74,0-.72.2.67,5.09,1.72,11.28,7,13.64a8.68,8.68,0,0,0,5.84.21,15.8,15.8,0,0,1,2.46-.51c.52-.05,1.8-.22,1.92.61a4.65,4.65,0,0,1-.42.74,6.65,6.65,0,0,0-1,3.46,3.42,3.42,0,0,0,1.29,2.54,7.23,7.23,0,0,0,1.14.51c1,.51.75,1.31.51,2.21a21.34,21.34,0,0,1-3.53,7.11c-1.89,2.52-5.12,6.05-8.57,5.7-2.87-.29-4.64-3.17-5.37-5.71-1.9-6.67,1.93-13,5.34-18.48,0-.06-.6,0-.71.13Z" transform="translate(-38.52 -157.78)"/></g><g class="cls-1"><path class="cls-2" d="M148.48,278.81c-3.1,4-.79,9.13,2.6,12,1.22,1,3.1,2.61,4.57,1.05,1.67-1.78-.2-3.82-1.57-5-.15-.13-.69,0-.7.23-.22,3.81-3.82,6.93-7.64,5.88a6.81,6.81,0,0,1-4-2.88c-1.06-1.7-1.14-3.77-1.21-5.71,0-.17-.74,0-.73.2.09,2.34.26,4.77,1.89,6.6a7.09,7.09,0,0,0,12.36-4.28l-.7.23c1.23,1.07,3,2.84,1.76,4.56-.82,1.13-2.13-.11-2.91-.72a15.46,15.46,0,0,1-2-1.88c-2.45-2.8-3.58-7.14-1.11-10.3.17-.22-.54-.14-.66,0Z" transform="translate(-38.52 -157.78)"/></g><g class="cls-1"><path class="cls-2" d="M139.26,284.52c-.84,3.73-1.1,7.91.63,11.43a11.75,11.75,0,0,0,7.42,5.87,31.87,31.87,0,0,0,10.58.86c1.28-.06,3,.08,4-.9a3.53,3.53,0,0,0,.8-1.95c.24-1.26.44-2.52.66-3.77l.71-4a14.77,14.77,0,0,1,.4-2c.08-.26.4-.71.21-1-.28-.47-1.37-.15-1.26.4,0,.1.15.11.22.11h.12c.28,0,.77-.37.29-.41s-1.3,6.37-1.41,7c-.2,1.1-.39,2.2-.58,3.3-.26,1.45-.42,2.44-2.19,2.72a31.75,31.75,0,0,1-5.6.16,27.3,27.3,0,0,1-5.18-.57c-3.53-.78-6.81-2.66-8.45-6-1.73-3.51-1.47-7.62-.64-11.33.06-.27-.67-.16-.72.09Z" transform="translate(-38.52 -157.78)"/></g><g class="cls-1"><path class="cls-2" d="M180.35,273.36a31.31,31.31,0,0,1-18.17,31l.51.07c-1.15-7.66,4.6-14,9.67-18.92,4.63-4.51,9.73-9.37,10.84-16l-.59.25a3.71,3.71,0,0,0,4-1.14,4.77,4.77,0,0,0,.82-5.17c-.85-2.11-2.63-3.71-4.3-5.18a54.76,54.76,0,0,0-5.4-4.18,58.85,58.85,0,0,0-25.82-9.67,57.45,57.45,0,0,0-15.77.25l.32.17a7.94,7.94,0,0,0-2-8.31,7.29,7.29,0,0,0-3.86-2c-1.85-.33-4.53-.34-4.79-2.77-.23-2.11,1.48-4,2.91-5.32a19.82,19.82,0,0,1,5.2-3.41,20.09,20.09,0,0,1,27.93,13.15c.51,1.78.49,3.62.94,5.39a2.74,2.74,0,0,0,2.71,2.36c1.63,0,2.94-1.29,4.18-2.19a17.69,17.69,0,0,1,5.77-2.77c4.49-1.25,9.26-1,13.83-.45a30.1,30.1,0,0,1,6.81,1.2c1.5.57,4.73,2.59,2.93,4.46-.11.11-.08.22.08.27l7.57,2.5,3.78,1.24a13.39,13.39,0,0,1,3.15,1.23c4.16,2.69-3.87,7.93-6.08,9-7.06,3.51-15.44,3.38-23.12,3.09-.19,0-.77.35-.35.43a72.4,72.4,0,0,1,14.76,4.46,71.16,71.16,0,0,1,6.69,3.25c1.08.6,2.15,1.22,3.21,1.87.49.31,1,.62,1.47.94a7.8,7.8,0,0,1,1.81,1.23c.6.83-.09,3-.22,4l-.56,4.33c-.35,2.65-.66,5.31-1,7.95s-1.12,5-3.65,6.12c-2,.91-4.37,1.18-6.49,1.92a35.28,35.28,0,0,0-13,8.08l.62-.08c-2.83-3.1-.12-7.43,2.33-9.78s5.29-4.43,5.9-7.85a8.41,8.41,0,0,0-10-9.74,8.93,8.93,0,0,0-6.54,5.85c0,.05,0,.12.08.14,6.35,3,8.12,12.49,3.2,17.54-.07.07-.1.13,0,.21l2.75,4.63.39-.37a29.16,29.16,0,0,0-18.12,11.27c-.53.72-1,2.05-1.93,2.32A6.72,6.72,0,0,1,162,320a12.19,12.19,0,0,1-5.39-3.41c-3.08-3.29-4.38-7.8-5.62-12-.08-.28-.6-.06-.7.08a16.67,16.67,0,0,0-1.93,17.05l.5-.32a24.43,24.43,0,0,1-22.41-13.62c-.12-.27-.83,0-.72.19a24.89,24.89,0,0,0,22.86,13.87c.11,0,.6-.1.5-.31A16.4,16.4,0,0,1,151,304.66l-.71.08c1.8,6.1,4.13,13.18,10.76,15.48a9.51,9.51,0,0,0,4.06.51,3.15,3.15,0,0,0,1.43-.31c.45-.33.78-1.22,1.1-1.68a27.94,27.94,0,0,1,17.89-11.65c.15,0,.51-.14.39-.36l-1.26-2.1a9,9,0,0,1-1.25-2.1c-.14-.75,1.11-1.89,1.48-2.62a11.32,11.32,0,0,0,1.2-5.48,11.54,11.54,0,0,0-5.39-9.74c-.7-.41-.67-.6-.27-1.4a7.15,7.15,0,0,1,.85-1.33,8.38,8.38,0,0,1,3.21-2.44,7.39,7.39,0,0,1,7.3.66,8.39,8.39,0,0,1,.57,13.1c-2,2-4.38,3.66-5.68,6.21-1.12,2.18-1.5,4.89.27,6.83.15.17.5.06.63-.07a34.49,34.49,0,0,1,10-6.84,34.92,34.92,0,0,1,5.74-1.94,14.91,14.91,0,0,0,4.35-1.52c3-1.83,3.11-5.59,3.51-8.7L213,273.78a.12.12,0,0,0-.08-.14,73.22,73.22,0,0,0-28.43-12.06l-.36.43c6.73.25,13.74.31,20.21-1.8a22.27,22.27,0,0,0,8-4.44c2-1.73,4.93-5,1.53-6.85a38.17,38.17,0,0,0-6.55-2.28l-7.81-2.57.08.28c2.41-2.5-2.27-5-4.29-5.36a61.09,61.09,0,0,0-12.93-1.32,24.26,24.26,0,0,0-11.07,2.54c-1.71.91-5.4,4.73-7.16,2.6-1.23-1.49-.94-4.13-1.35-5.92a21.18,21.18,0,0,0-15.35-15.59c-7.19-1.69-15.73.65-20.61,6.33-1.15,1.33-2.38,3.5-1.5,5.28s3.24,1.75,5,2.09a7.63,7.63,0,0,1,5.43,9.92c-.06.16.24.18.32.17a57.74,57.74,0,0,1,46.26,13.33c1.74,1.51,3.64,3.18,4.46,5.39a4.52,4.52,0,0,1,0,3.57c-.67,1.41-2.1,2.53-3.7,1.95-.16-.06-.55.05-.58.25-1.21,7.3-7.16,12.25-12.11,17.2-4.69,4.7-9.46,10.82-8.39,17.87,0,.2.41.11.5.07a31.84,31.84,0,0,0,18.61-31.55c0-.26-.75-.1-.73.19Z" transform="translate(-38.52 -157.78)"/></g><g class="cls-1"><path class="cls-2" d="M197.17,240.82c2-8.49,7.81-16.37,16.8-18,5-.92,10.1-.09,15,1,5.08,1.13,10.13,2.46,15.19,3.7,1,.25,2.59.4,3.3,1.25,1,1.17-.24,2.48-1,3.4-1.3,1.69-1.5,3.61-2.2,5.56-1.77,4.84-7.22,6.35-11.86,6.65-4.91.31-9.9.26-14.81.09a67.6,67.6,0,0,1-14.73-1.93c-1.35-.35-2.68-.77-4-1.25-.32-.12-1.73-.44-1.77-.9,0-.28,1-1.18,1.26-1.4a18.19,18.19,0,0,1,5.7-3.88,18.83,18.83,0,0,1,13.69-.61L218,234c-6,.32-11.61,3.44-17.68,3.15a10.9,10.9,0,0,1-7.64-3.3c-1.71-1.8-3.08-3.63-5.37-4.74-2.14-1-4.72-1.66-6.26-3.61-1.83-2.33-1.29-5.51-.51-8.13a10.07,10.07,0,0,1,1.5-3.62c1.27-1.46,3.91-.69,5.44,0a12.93,12.93,0,0,1,5.46,4.85c3.9,6,2.87,13.49,1.91,20.16l.7-.19A26.42,26.42,0,0,1,191.42,224a.13.13,0,0,0-.08-.14l-4.82-2.44c-.23-.11-.89.21-.58.36l2.64,1.34c.95.48,1.94.71,2.11,1.83.24,1.57.19,3.17.5,4.75a26.7,26.7,0,0,0,3.73,9.15c.13.19.67,0,.7-.19.93-6.52,1.93-13.78-1.58-19.74a13.42,13.42,0,0,0-5.95-5.55c-1.76-.78-4.45-1.48-6.15-.21a6.22,6.22,0,0,0-1.72,3.16,18.79,18.79,0,0,0-1.06,4.62,6.59,6.59,0,0,0,3.21,6.5c2.57,1.55,5.45,2.1,7.59,4.36,1.95,2.06,3.51,4.13,6.3,5.09,7.27,2.51,14.48-2.08,21.68-2.46.2,0,.63-.29.27-.42a20.06,20.06,0,0,0-22,6.55.13.13,0,0,0,.06.2c8.21,3.5,17.19,4.14,26,4.15,4.36,0,8.94.23,13.24-.56,3.33-.61,6.74-2.14,8.63-5.08,1.1-1.7,1.22-3.71,2-5.53.61-1.4,2.53-2.74,2.36-4.39s-2.64-2-4-2.32l-7.17-1.77c-8.31-2-17.52-5-26-2.29-8,2.56-13,10-14.94,17.89-.06.28.67.18.73-.08Z" transform="translate(-38.52 -157.78)"/></g><g class="cls-1"><path class="cls-2" d="M102.43,438.54l-14.57-8.93a49.84,49.84,0,0,1-5.78-3.88c-1.38-1.13-5-4.22-3.52-6.26.84-1.16,3.75-1,5.08-1s2.84,0,4.26.1a59.69,59.69,0,0,1,8.4,1.23,152.33,152.33,0,0,1,16.08,4.67,16.33,16.33,0,0,1,6.53,3.42,19.7,19.7,0,0,1,3.85,6.32c1,2.31,2.28,5,1.63,7.58a3.23,3.23,0,0,1-.56,1.27c-.82,1-2.26.67-3.31.52a23.51,23.51,0,0,1-3.8-.87,47.49,47.49,0,0,1-13.47-7.4,69.25,69.25,0,0,1-5.83-4.84c-.9-.84-1.78-1.69-2.63-2.58-.4-.41-.8-.83-1.19-1.26-.11-.12-.57-.53-.58-.64-.09-.76,1.82-1,2.23-1,2.82-.3,5.76.64,8.39,1.56a45.37,45.37,0,0,1,7.9,3.67,41.79,41.79,0,0,1,6.68,4.84c2,1.77,3.72,4,3.72,6.74,0,.11.73,0,.73-.19,0-3.22-2.35-5.65-4.68-7.58a43.63,43.63,0,0,0-8.78-5.67A39.14,39.14,0,0,0,99.78,425a11,11,0,0,0-7.67.8s-.11.08-.06.13c5.9,6.64,13.31,12.71,21.57,16.15a25.32,25.32,0,0,0,6.09,1.77c1.34.2,3.09.53,4.28-.34s1.41-3,1.2-4.46a23.43,23.43,0,0,0-2.36-6.46,16.93,16.93,0,0,0-3.1-4.78,13.42,13.42,0,0,0-5.16-3c-4.55-1.68-9.25-3.11-13.95-4.34a63.07,63.07,0,0,0-14.38-2.23,29.32,29.32,0,0,0-6.28.33c-1.06.21-2.31.68-2.45,1.91-.21,2,2.23,4.14,3.58,5.3a45.09,45.09,0,0,0,5.88,4l14.77,9.06c.18.11.78-.19.69-.24Z" transform="translate(-38.52 -157.78)"/></g><g class="cls-1"><path class="cls-2" d="M123,444.38a33,33,0,0,1,.41-11.85,31.56,31.56,0,0,1,1.88-5.84c.35-.81.74-1.92,2-1.85a2.6,2.6,0,0,1,1.68,1,8.16,8.16,0,0,1,1.27,2.47,27.6,27.6,0,0,1-1.1,21.83l.63-.17a10,10,0,0,1-3.33-11.1l-.71.06,1.47,6.57c.08.35.8.16.72-.19l-1.47-6.58c-.07-.3-.63-.18-.71.05a10.46,10.46,0,0,0,3.47,11.61.46.46,0,0,0,.63-.16,28.15,28.15,0,0,0,1.74-20.32c-.65-2.17-1.85-6.2-4.91-5.53-1.29.29-1.77,1.57-2.23,2.67a33.08,33.08,0,0,0-1.65,5.14,33.49,33.49,0,0,0-.49,12.42c0,.35.77.17.72-.19Z" transform="translate(-38.52 -157.78)"/></g><g class="cls-1"><path class="cls-2" d="M131.53,447.31a40.83,40.83,0,0,1,2.05-6.87c.78-1.69,2.21-3.59,4.34-3.14s3.2,2.64,3.91,4.38,1.69,4.54.43,6.43a4.55,4.55,0,0,1-3.4,1.67c-1.44.17-2.9.17-4.35.24-.41,0-.56.55-.06.53,1.54-.07,3.11-.06,4.64-.28a6,6,0,0,0,3.17-1.27c2-1.75,1.36-4.64.56-6.82-.73-2-1.85-4.34-3.93-5.19s-4,.25-5.19,1.93c-1.68,2.44-2.16,5.64-2.9,8.45-.09.34.65.26.73-.06Z" transform="translate(-38.52 -157.78)"/></g><g class="cls-1"><path class="cls-2" d="M143.58,433.67a1.07,1.07,0,0,1,.93-.31l-.13-.1a11.43,11.43,0,0,1-1.93,4.55c-.1.13.08.15.17.14a.72.72,0,0,0,.49-.17,11.79,11.79,0,0,0,2-4.63c0-.08-.06-.1-.13-.1a2.54,2.54,0,0,0-2.05.66c-.13.11.11.14.18.14a.83.83,0,0,0,.48-.18Z" transform="translate(-38.52 -157.78)"/></g><g class="cls-1"><path class="cls-2" d="M143.72,372.41A48.7,48.7,0,0,1,192,343.33c.36,0,.74-.5.25-.53A49.58,49.58,0,0,0,143,372.33c-.17.38.56.38.69.08Z" transform="translate(-38.52 -157.78)"/></g><g class="cls-1"><path class="cls-2" d="M194.42,340.33a4.38,4.38,0,0,1,4.46-4.08l-.25-.25c-.06,2.18-4,4.79-2,7.06.81.94,2.39,1.22,3.42,1.88a12.16,12.16,0,0,1,3.44,3.34l.36-.44a24.47,24.47,0,0,1-9.3-1.83c-1-.45-1.38-1.15-.8-2.11a3.64,3.64,0,0,1,2.18-1.3,11.41,11.41,0,0,0,2.76-1.3c4-2.61,7-8.84,12.47-8.3a4.55,4.55,0,0,1,3.83,6.08c-1,2.73-3.82,4.11-6.6,4.16-1.3,0-9.29-1.07-7.46-3.69a5,5,0,0,1,1.84-1.1,13.42,13.42,0,0,1,2-.79,5.09,5.09,0,0,1,4.35.53c.2.14.79.53.79.79s-.45.63-.71.84A7.08,7.08,0,0,1,207,341a7.94,7.94,0,0,1-4.32.17c-1.9-.38-4.15-1-5.62.64-.31.34.38.49.61.23,1.63-1.83,5.14,0,7.24-.08a8.4,8.4,0,0,0,5.75-2.78.21.21,0,0,0,0-.28c-1.31-2.05-3.92-2.38-6.11-1.77a12.91,12.91,0,0,0-3.75,1.68,1.64,1.64,0,0,0-.79,2.08,4.23,4.23,0,0,0,2.67,1.91,17.68,17.68,0,0,0,4.3.94,8.79,8.79,0,0,0,7-2.17,5.51,5.51,0,0,0,1.45-6.34,5.34,5.34,0,0,0-5.83-2.72c-5.77,1-7.95,7.16-13,9.25-1.24.51-2.79.7-3.57,1.93a1.75,1.75,0,0,0,.49,2.56,15.11,15.11,0,0,0,4.77,1.51,31,31,0,0,0,5.43.63c.2,0,.51-.23.36-.44a13.47,13.47,0,0,0-5.89-4.63c-2-.89-1.4-2.72-.37-4.15a5.91,5.91,0,0,0,1.51-3.23.25.25,0,0,0-.25-.25,5.18,5.18,0,0,0-5.44,4.68c0,.39.71.3.74-.05Z" transform="translate(-38.52 -157.78)"/></g><g class="cls-1"><path class="cls-2" d="M191.86,343.33l-6.24.63.31.14c.32-2.12-1.42-3.63-3-4.78-1.19-.9-2.4-1.77-3.6-2.65a19.35,19.35,0,0,0-3.21-2.29c-1.71-.77-3,1.13-3.89,2.3a27.55,27.55,0,0,0-3.66,6.93.1.1,0,0,0,0,.09c1.59,1.64,4.22.47,5.57-.92,1-1,1.64-2.44,2.62-3.54,1.93-2.19,4.45-1.33,6.74-.26.2.09.86-.21.58-.34-2.61-1.22-5.5-2-7.74.32-1,1-1.59,2.28-2.47,3.37a5,5,0,0,1-2.24,1.62,2.29,2.29,0,0,1-1.78,0c-.66-.34-.45-.78-.23-1.34a26.48,26.48,0,0,1,2.69-5.07,10.64,10.64,0,0,1,1.86-2.4c1.32-1,2.74.58,3.74,1.31,1.62,1.19,3.29,2.34,4.86,3.59,1.3,1,2.66,2.39,2.39,4.2,0,.15.21.14.31.13l6.23-.62c.34,0,.61-.43.11-.38Z" transform="translate(-38.52 -157.78)"/></g><g class="cls-1"><path class="cls-2" d="M182.72,344.88c6.13,3,10.15,8.65,13.91,14.11l.66-.23a59.85,59.85,0,0,1-20.77-5.94c-1.3-.65-2.8-1.49-3.34-2.93a3,3,0,0,1,0-2c.41-1.16,1.48-1.33,2.59-.94a32,32,0,0,1,9,5.22l.69-.24a69,69,0,0,1-13.31-6.38c-.17-.11-.77.19-.68.24a69.2,69.2,0,0,0,13.3,6.38c.12.05.82-.13.69-.24a36.54,36.54,0,0,0-5.51-3.61c-1.43-.76-3.15-1.82-4.81-1.93-2.6-.18-3.66,2.72-2.16,4.65,1.13,1.46,3,2.2,4.68,2.93a59.53,59.53,0,0,0,6,2.35,61.51,61.51,0,0,0,13,2.75c.07,0,.74-.11.66-.23-3.78-5.48-7.81-11.18-14-14.16-.18-.09-.75.21-.68.24Z" transform="translate(-38.52 -157.78)"/></g><g class="cls-1"><path class="cls-2" d="M171.74,350.78c-2.51-1.15-5.19-2.33-8-2.1a12.12,12.12,0,0,0-6,2.66c-3.81,2.74-8.08,5.94-9.14,10.78,0,.12.14.15.22.15a2.93,2.93,0,0,0,3-1.88c.08-.22-.64-.13-.73.1a1.92,1.92,0,0,1-1.95,1.39l.21.15c.92-4.19,4.28-7.06,7.55-9.52,2-1.49,4.08-3.18,6.64-3.43s5.3.95,7.68,2c.21.09.87-.21.58-.34Z" transform="translate(-38.52 -157.78)"/></g></svg>