<svg id="Lager_1" data-name="Lager 1" xmlns="http://www.w3.org/2000/svg" viewBox="0 0 307.06 371.49"><defs><style>.cls-1{opacity:0.48;}.cls-2{fill:#fff;}</style></defs><g class="cls-1"><path class="cls-2" d="M312.53,334.58c.68-2.53,4.3-1.35,4.6.82.38,2.81-4.19,6.5-5.48,2.79-.35-1-.51-2.46.28-3.3.94-1,3.35-.52,4.62-.57a9.26,9.26,0,0,0,5.65-1.7,5,5,0,0,0,2-4.45,3.88,3.88,0,0,0-3.4-3,9.3,9.3,0,0,0-5.45,1.16c-2.71,1.29-5.3,2.39-8.37,2.37-2.63,0-5.32-1.27-7.94-.72-1.72.36-3.4,1.64-3.42,3.52a.17.17,0,0,0,.08.16c5.67,2.63,12.74,5.47,18.42,1.28.32-.24,0-.41-.29-.35a22.09,22.09,0,0,0-8.47,3.77c-.19.14-.15.36.1.37a6.46,6.46,0,0,1,5.52,8.52c-.72,2.11-1.81,4-2.34,6.19a22.23,22.23,0,0,0-.56,6.19l.65-.29c-4.53-3.07-9.25-6.3-12-11.18a14.47,14.47,0,0,1-2-7.86c.07-1.35.33-2.68.48-4a16.66,16.66,0,0,0,.14-2c0-.6-.18-1.24-.15-1.83.1-2.14,2.11-1.45,3.56-1.48a27.46,27.46,0,0,0,3.62-.29,29.46,29.46,0,0,0,6.65-1.79,29.06,29.06,0,0,0,6.27-3.46c1.63-1.19,3.82-2.74,4.73-4.59,1-2.08-1.58-3.29-3.24-3.56a6.85,6.85,0,0,0-5.65,1.63l.66,0,1-2.94c.07-.22-.33-.2-.42-.18a25.93,25.93,0,0,0-15.75,10.05,23.76,23.76,0,0,0-2.58,4.38,11.77,11.77,0,0,0-1.43,4.95c.08,2,1,4,1.49,5.87q.82,3.24,1.46,6.51c.45,2.33.88,4.69,1.13,7.05.22,2.1.19,4.45-1.47,6l.52-.13a11.56,11.56,0,0,1-6.89-10.17,16.86,16.86,0,0,1,1.54-7.78c.93-2.07,2.27-3.94,3.08-6.07a6,6,0,0,0,.08-5.13c-.49-.89-1.39-1.54-1.59-2.59-.25-1.37.7-2.66,1.65-3.53,1.44-1.31,3.36-1.9,4.85-3.14a5.12,5.12,0,0,0,1.51-1.85,9.14,9.14,0,0,0,.36-3.38,4.24,4.24,0,0,1,1.44-3c.86-.77,2.65-1.61,3.83-1.05.41.19.25.05.27.46a5.77,5.77,0,0,1-.49,1.35l-.66,1.81-1.65,4.51c-.1.28.63.2.73-.07l3-8.12c0-.1-.08-.16-.15-.19a5.33,5.33,0,0,0-6.95,3.77c-.21,1.19.11,2.41-.29,3.57a5.37,5.37,0,0,1-2.45,2.68c-1.66,1.06-3.49,1.78-4.74,3.37a3.47,3.47,0,0,0,0,4.71c1.7,2.2,1.26,4.5.14,6.88-1,2.05-2.24,3.92-3.05,6.05a16.78,16.78,0,0,0-1.13,6.94,11.84,11.84,0,0,0,7.18,10.41.57.57,0,0,0,.51-.14c2.26-2.11,1.74-5.47,1.34-8.23A110.18,110.18,0,0,0,294.58,338c-.5-1.91-1.52-4-1.13-6a18.42,18.42,0,0,1,2-5.09,25.38,25.38,0,0,1,6.56-7.76,24.48,24.48,0,0,1,10.47-4.82l-.42-.18-1,2.94c-.11.33.57.13.66.05,1.88-1.64,5.63-2.16,7.42,0,1.63,1.95-3,5.12-4.32,6.1a28,28,0,0,1-13.34,5.19,26.09,26.09,0,0,1-3.64.16,7.09,7.09,0,0,0-2.56.05,1.34,1.34,0,0,0-.9.92,3,3,0,0,0,.08,1.18,11.81,11.81,0,0,1,.12,2.59c-.16,2.44-.8,4.82-.55,7.27a15.61,15.61,0,0,0,2.19,6.3c2.79,4.73,7.43,7.9,11.88,10.92.21.14.66,0,.65-.29a21.33,21.33,0,0,1,1.05-7.77c.74-2.22,2.29-4.36,2.26-6.78a6.93,6.93,0,0,0-6.39-6.63l.1.38A21,21,0,0,1,313.9,333l-.29-.36c-3.13,2.32-7.15,2.3-10.76,1.28a38.32,38.32,0,0,1-5.39-2.1c-.81-.37-1.39-.58-.92-1.58a3.69,3.69,0,0,1,2.81-1.89c1.72-.24,3.44.37,5.12.62a15.88,15.88,0,0,0,5.37-.11,16.89,16.89,0,0,0,3.91-1.28c1.63-.75,3.24-1.77,5.05-2s3.81.38,4.48,2.16A4.25,4.25,0,0,1,322.1,332c-1.36,1.41-3.38,1.75-5.25,1.85-1.43.07-3.16-.28-4.54.23-2.09.79-2.18,4.11-.71,5.55s3.89.25,5-1c1.5-1.61,1.94-4.63-.44-5.66-1.61-.7-3.89-.19-4.38,1.65-.09.31.65.21.73-.07Z" transform="translate(-143.98 -234.73)"/></g><g class="cls-1"><path class="cls-2" d="M295.67,346.1a67.68,67.68,0,0,1-21.06-9.86c-1.54-1.08-3.23-2.81-5.23-2.91a3.53,3.53,0,0,0-3.25,1.82c-1.16,2-.32,4.31.64,6.22,1.21,2.37,2.5,4.71,3.75,7.06.84,1.59,1.53,2.72,3.49,2.13a25.49,25.49,0,0,1,3.93-1.11,15.26,15.26,0,0,1,11.77,3.36l.49-.32a11.81,11.81,0,0,0-11.5,7.79l.65-.21A10.37,10.37,0,0,1,272,348.29c0-.22-.41-.11-.5-.07-2.79,1.14-2.74,4.72-1.28,6.95a12.34,12.34,0,0,0,4.3,3.44,16.42,16.42,0,0,1,5.23,4.2c2.53,3.43,3.31,8,3.94,12.07a14,14,0,0,1-.05,6.07A6,6,0,0,1,279,385c-2.9.8-6.76.85-8.32,3.89l.7-.19c-4.74-4.62-8.52-10.7-8.81-17.47-.27-6.2,2.79-12.73,8.52-15.52h-.58c.15,3.43,2.18,6.21,3.1,9.43.76,2.64.67,6.31-2.05,7.8h.58a31,31,0,0,1-3.53-20c0-.09-.06-.12-.13-.13-3.57-.51-7.12,3-6,6.62l.42-.27a23,23,0,0,1-20.34-8.41,5.54,5.54,0,0,1-.78-1c0-.09-.2-.26-.17-.39s1-.31,1.34-.32a12.79,12.79,0,0,1,2.61.28,7.39,7.39,0,0,0,3.53,0c1.52-.53,1.88-1.89,2.78-3.07,1.35-1.79,3.67-1.92,5.7-1.49,4.17.88,7.39,4.37,11.84,4.23l-.07-.27a28.72,28.72,0,0,1-11.19,3.69l.08.3c3.28-1.22,6.61-2.36,9.86-3.68a3.53,3.53,0,0,0,2.07-1.61c.57-1.21-.12-2.6-.77-3.62-1.68-2.65-3.73-5-4.53-8.12-.72-2.84-.2-6.14,2.18-8,.08-.07.11-.16,0-.21-4.49-2.32-8.1-5.86-11.56-9.46-1.53-1.59-3.42-3.3-3.87-5.55-.5-2.46,1.26-4.24,2.92-5.76a9.28,9.28,0,0,0,2.9-3.59,4.71,4.71,0,0,0-.23-4,2.49,2.49,0,0,0-3-.81,14.21,14.21,0,0,0-2.48,1.28,22.44,22.44,0,0,1-4.17,1.75,23.65,23.65,0,0,1-7.66,1.06c-2.44-.07-4.9-.67-7.34-.26-3.37.58-6.36,3.83-3.93,7.09,4.47,6,15.05,7.75,21.27,3.69a7.13,7.13,0,0,0,3.43-4.6c.34-2.39-1.54-3.87-2.29-5.92-.35-1-.16-2.56,1-3,1.71-.59.65,1.32.26,1.89a14.67,14.67,0,0,1-1.14,1.46,15.06,15.06,0,0,1-6.78,4.44l.4.11c.93-4.45,6.85-4.61,9.63-7.45,1.14-1.17,2.3-3,1.73-4.67-.68-2-3.25-2.33-4.72-3.55-3.31-2.75-3.93-7.79-2.69-11.7,1.63-5.1,5.71-8.93,9.37-12.64L272.7,252.4l-.63.17c3,1.32,3.62,5,3.43,7.92-.22,3.58-1.43,7.46.6,10.75.89,1.45,2.22,2.6,2.93,4.15a7.27,7.27,0,0,1,.15,5.31c-1.23,3.8-4.3,6.72-7.15,9.37a105,105,0,0,1-11,8.87h.65a26.75,26.75,0,0,0,2.51-16.77,26.34,26.34,0,0,0-.62-2.66c-.11-.38-.49-1-.44-1.4.09-.7,1.14-.92,1.76-1.09s3-.75,3.41-.08c.22.39-.22,1.22-.34,1.62l-.53,1.9-1.81,6.39c-.68,2.43-3.06,7.21,1,7.77a10,10,0,0,0,3.72-.36,43.6,43.6,0,0,1,7.11-1.08,42,42,0,0,1,13.4,1.27c1.84.48,4,1,5.31,2.55a3.55,3.55,0,0,1,.78,2.75c-.28,1.57-1.95,2-3.33,1.92-4.62-.12-9.27-.43-13.85-1-4-.46-8-1.68-12-1.59-2.64.06-5.35.84-6.61,3.36l.72-.11.52-2c0-.06,0-.09-.07-.12-5.93-3.46-11.81-7.07-17.86-10.34-5.38-2.9-11.11-5.29-17.3-5.48-.15,0-.45.07-.51.23-1.52,4.4,5.36,6.44,8.22,7.54l16.86,6.46c.14.06.64,0,.65-.21a20,20,0,0,0-8.12-16.94A20.43,20.43,0,0,0,226,278.88c-.08,0-.31.15-.2.26a17.21,17.21,0,0,1,4,6.52c.05.14.31.09.4.07,1-.29,1.23-1,1.26-1.93a11,11,0,0,1,.07-2.56,4.92,4.92,0,0,1,1.74-2.55c2-1.61,4.67-1.7,7.07-2.13a25.64,25.64,0,0,0,5.23-1.5c2.26-.92,6.78-2.79,6.46-5.91-.17-1.65-2-2.71-2.67-4.13a10,10,0,0,1-.75-5.52,45.75,45.75,0,0,1,2.46-9.89,33,33,0,0,1,4.32-8.91,16.71,16.71,0,0,1,3.32-3.45c1.47-1.11,4.77-3.16,6.26-1.36a17.79,17.79,0,0,1,1.67,3.06l1.72,3.26a30,30,0,0,1,2.71,5.94c2.17,8-7.85,10.28-11.22,15.81l.69-.06.91-14.17c0-.3-.6,0-.7.05-8.93,10.37-8.33,25.94-18.13,35.71l.62-.17c-3.56-2-7.36-4-11.56-3.9-2.32.07-4.56.67-6.88.19a37.89,37.89,0,0,1-6.57-2.44,101,101,0,0,0-12.93-4.29,29.67,29.67,0,0,0-9.94-1.34c-2.94.25-5.82,1.38-7.21,4.15-.09.18.37.11.4.1,11.72-2.66,24.44,2.27,32.05,11.41a30.48,30.48,0,0,1,5,8.62l.22-.22a19.19,19.19,0,0,1-20.56-3.47c-4.7-4.39-6.62-11.67-12.85-14.38-.18-.08-.86.18-.58.33l18.52,9.5.52-.34a72.8,72.8,0,0,1-22.28-7.34c-.13-.06-.72,0-.65.27,1.79,6.44,8.77,9.12,13.34,13.26a15,15,0,0,1,5.25,10.19c.17,4-2,8.16-5.81,9.68h.48l-9.65-10.42a80.72,80.72,0,0,1-8-9.19c-2.06-3-3.53-6.62-2.84-10.32.63-3.37,2.91-6.8,6.58-7.15l-.31-.13c-3.44,7.51,3.74,13.81,9.06,17.84l.56-.32c-4.28-1.06-5.92-5.65-6.65-9.54-.75-4-1.39-9.14.42-13,2-4.31,6.9-4.07,10.71-5.75a6.21,6.21,0,0,0,3.33-3c1-2.21.2-4.68-.7-6.78a57.57,57.57,0,0,1-3.37-8.72,33.41,33.41,0,0,1-.88-9.86c0-.19-.3-.14-.4-.11-8.37,2.54-18,6-20.71,15.29-1.39,4.85-.92,10.31.16,15.18.45,2,1.3,4.2,3.27,5.19a4.3,4.3,0,0,0,4.32-.14c2.13-1.49,2-5.16,2.32-7.44l1.5-10.58c0-.25-.69-.12-.72.11a44.42,44.42,0,0,1-8.22,19.89l.62-.16q-6-2.7-12.07-5.47c-2.94-1.35-6.39-3.65-9.72-2.33,0,0-.27.12-.22.22l2,3.89a30.09,30.09,0,0,1,2.11,4.11c.27.85-.29,1.16-.89,1.69s-1,.87-1.48,1.29c-1,.9-2.13,1.77-3.23,2.61a82.55,82.55,0,0,1-14.06,8.67l.58,0c.58-7.45,2.84-16.08,10.45-19.23a10.71,10.71,0,0,1,5.78-.77c.37.06,1.25,0,1.29.51,0,.2-.44.68-.58.86a11.41,11.41,0,0,1-1.83,2,11.89,11.89,0,0,1-10.53,2.49c-.2-.05-.84.27-.45.37a13.09,13.09,0,0,0,14.23-6c0-.06,0-.13,0-.16-4.6-1.46-9.56.36-12.92,3.63-4.35,4.25-5.66,10.6-6.12,16.44,0,.25.47.09.58,0a83.33,83.33,0,0,0,20.2-13.83s.1-.1.08-.15l-4.45-8.64-.22.22c2.1-.83,4.29.3,6.18,1.17l4.91,2.27q4.91,2.24,9.84,4.43a.64.64,0,0,0,.63-.16,44.75,44.75,0,0,0,8.27-20l-.72.11c-.7,4.88-1.23,9.83-2.1,14.69-.23,1.26-.66,2.83-2,3.35a3.92,3.92,0,0,1-3.8-1.06c-1.59-1.5-2-3.84-2.38-5.9-.74-4.37-1.1-9,.08-13.3a17.13,17.13,0,0,1,7.32-9.74c3.89-2.56,8.4-4,12.81-5.33l-.4-.11a34,34,0,0,0,3.25,16.51c1.15,2.43,2.72,5.34,2,8.1-.68,2.48-3,3.5-5.23,4.14-3.55,1-7.34,1.71-9.08,5.39s-1.18,8.89-.45,12.91,2.46,8.76,6.95,9.88c.11,0,.77-.17.56-.32-5.27-4-12.43-10.22-9-17.67.07-.15-.26-.14-.3-.13-5,.49-7.91,5.71-7.58,10.4.49,6.84,6.67,12.2,11,16.89l9.65,10.42c.1.11.37,0,.48,0a10.14,10.14,0,0,0,6.13-7.84A13.64,13.64,0,0,0,203.8,297c-4.5-5.42-13.07-7.75-15.11-15.07l-.65.26a73.2,73.2,0,0,0,22.4,7.37c.14,0,.82-.19.52-.35l-18.52-9.5-.58.33c3.43,1.49,5.6,4.56,7.6,7.58s4,6.16,7.1,8.32a20.19,20.19,0,0,0,19.57,1.88c.06,0,.26-.12.22-.23-4.39-11.57-15.89-19.69-28.11-20.81a31.22,31.22,0,0,0-9.78.66l.4.1c3.31-6.59,13.81-3,19-1.5a104.12,104.12,0,0,1,11.26,4.05,29.63,29.63,0,0,0,5,1.8,14.88,14.88,0,0,0,5.07.06,15.76,15.76,0,0,1,7.43.73,42,42,0,0,1,6,2.93.65.65,0,0,0,.63-.17c9.8-9.77,9.2-25.34,18.13-35.7l-.69.05L259.81,264c0,.28.61.09.7-.05,2.95-4.85,11-6.8,11.57-13.08a11.63,11.63,0,0,0-1.57-6.1c-1.08-2.18-2.25-4.31-3.38-6.45-.72-1.36-1.37-3.5-3.19-3.58a8.11,8.11,0,0,0-3.84,1.18c-5.82,3-8.54,9.72-10.35,15.63-1,3.36-2.19,7-1.92,10.54a7.91,7.91,0,0,0,1.82,4.67,5.74,5.74,0,0,1,1.58,2.24,3.37,3.37,0,0,1-1.29,3.14,17.58,17.58,0,0,1-7.25,3.55c-2.41.68-5,.74-7.35,1.52a7.14,7.14,0,0,0-4.12,3.09,4.28,4.28,0,0,0-.55,2.15c0,.74.43,2.67-.56,3l.4.06a17.3,17.3,0,0,0-4.09-6.6l-.2.26a19.47,19.47,0,0,1,18.55,3.56,19.88,19.88,0,0,1,6.86,15.82l.65-.21-15.47-5.94c-2.93-1.12-11.07-3.18-9.46-7.84l-.51.24c6.69.21,12.83,3.08,18.57,6.3,2.92,1.64,5.8,3.36,8.7,5.05l4.64,2.71a19.07,19.07,0,0,1,2.11,1.23c.57.43.64.48.57,1.19a8.86,8.86,0,0,1-.31,1.23c-.07.26.64.06.72-.11,1.38-2.76,4.57-3,7.33-2.83,2.92.22,5.78,1,8.68,1.35,3.4.45,6.82.7,10.24.9,1.61.09,3.23.18,4.85.24a6.54,6.54,0,0,0,3.19-.43c1.9-.94,1.95-3.35.7-4.88-1.74-2.11-5.24-2.64-7.76-3.15A45.49,45.49,0,0,0,270,294c-1.33.29-3.33.71-4.45-.36-1.35-1.27-.08-3.76.34-5.23l3.34-11.84c0-.09-.07-.12-.13-.13a10.47,10.47,0,0,0-6.69,1.28c-.05,0-.17.11-.14.19A26.78,26.78,0,0,1,261,299c-.12.23.58,0,.64,0a106.18,106.18,0,0,0,10.29-8.25c2.8-2.56,5.72-5.24,7.39-8.72a9,9,0,0,0,1-5,9.57,9.57,0,0,0-2.45-4.59,9,9,0,0,1-2.18-5.54c-.07-2.19.43-4.33.57-6.5.19-3.06-.47-6.78-3.58-8.15a.65.65,0,0,0-.62.17l-13,13.17c-3.64,3.68-7.74,7.32-10.05,12-1.82,3.69-2.21,8.27-.06,11.92a9.27,9.27,0,0,0,4.34,3.65c1.11.54,2.18,1.27,2.32,2.6a4.75,4.75,0,0,1-1.28,3.36c-2.73,3.31-9.2,3.31-10.2,8.11,0,.19.33.14.41.11a16.32,16.32,0,0,0,6-3.4,16.15,16.15,0,0,0,2.28-2.53c.36-.5,1.39-1.64,1-2.25-.69-1.16-2.58,0-3.11.68-1.48,1.84.32,3.76,1.23,5.39,1.52,2.75.17,5.44-2.22,7.14a13.66,13.66,0,0,1-8.57,2.08,17.47,17.47,0,0,1-8.41-2.69c-2-1.29-5-3.56-4.19-6.31,1.22-4.14,6.47-3.21,9.68-3a25.32,25.32,0,0,0,7.76-.59,34.46,34.46,0,0,0,7.51-3.1c3.29-1.61,4,2,3.19,4.23s-3,3.39-4.44,5.07a5.09,5.09,0,0,0-.61,6.28c1.32,2.22,3.44,4.07,5.26,5.88a44,44,0,0,0,6.89,5.82c.56.36,1.12.71,1.7,1,.8.45.64.49.13,1.05a7.18,7.18,0,0,0-1.66,3.45,11.77,11.77,0,0,0,1.88,8.14c.73,1.23,1.57,2.36,2.39,3.52,1.05,1.5,2.31,3.77.24,5a30.2,30.2,0,0,1-5.09,2l-5.45,2c-.32.12-.24.34.08.3a29.88,29.88,0,0,0,11.74-3.87c.19-.11.16-.28-.08-.27-5.7.18-10.13-6.11-16.07-4.08a5,5,0,0,0-2.43,1.72c-.43.57-.67,1.27-1.11,1.83a3.05,3.05,0,0,1-3,1.06c-2.09-.2-4.27-1-6.21.23-.08,0-.18.13-.12.23a23.48,23.48,0,0,0,22,10c.09,0,.47-.11.42-.27a4.91,4.91,0,0,1,2.37-5.63c.46-.24,1.94-1,2.24-.14.14.36-.17,1.31-.21,1.71a29.42,29.42,0,0,0-.13,3.51,30.92,30.92,0,0,0,3.93,14.46c.11.18.45.07.59,0,2.48-1.36,3-4.28,2.62-6.89-.59-3.75-3.22-6.83-3.39-10.7,0-.2-.51,0-.58,0-5.56,2.7-8.71,8.76-8.82,14.82-.13,7.17,3.88,13.75,8.87,18.61.17.16.61,0,.7-.19,1.58-3.06,5.94-2.77,8.78-3.8,3.13-1.15,4.52-3.72,4.52-7a32.2,32.2,0,0,0-.72-5.7,34.56,34.56,0,0,0-1.49-5.76,14.87,14.87,0,0,0-2.79-4.85,18.22,18.22,0,0,0-4.62-3.4c-1.93-1.13-4-2.4-4.8-4.62-.62-1.78-.55-4.36,1.47-5.19l-.49-.07a10.54,10.54,0,0,0,7.51,12c.18.05.57,0,.65-.21a10.82,10.82,0,0,1,10.48-7.32c.09,0,.68-.17.49-.32a15.86,15.86,0,0,0-10-3.6,15.63,15.63,0,0,0-5,.77,10.82,10.82,0,0,1-1.2.44,2.88,2.88,0,0,1-2-.27,3.22,3.22,0,0,1-.42-.66c-.63-1.07-1.18-2.2-1.76-3.3a57.71,57.71,0,0,1-3.21-6.26c-.79-2.07-.74-6.8,2.91-5.82a9.8,9.8,0,0,1,3,1.77c.94.7,1.9,1.36,2.88,2,1.72,1.13,3.49,2.19,5.31,3.16a68.58,68.58,0,0,0,14.21,5.65c.2.05.85-.25.58-.33Z" transform="translate(-143.98 -234.73)"/></g><g class="cls-1"><path class="cls-2" d="M283.15,420.82a15.37,15.37,0,0,1-13.56-6.4c-2-2.86-4-7.21-7.81-7.94-2.19-.42-4.1.65-6,1.54a8.24,8.24,0,0,1-8.35-.57c-4.41-2.8-6.39-7.66-9.27-11.78a16.5,16.5,0,0,0-5.67-5.32,30.11,30.11,0,0,0-8.32-2.52c-.3-.06-.72.33-.33.52a23.16,23.16,0,0,0,21.73-.6c.22-.13.3-.47,0-.5a217,217,0,0,1-27-4.06l-.25.54c4.77.34,9.55.47,14.33.36,2.41-.06,4.83-.15,7.24-.35a14.65,14.65,0,0,0,5.6-1.34c5.86-3,6.4-10.82,9.43-16,.17-.29-.34-.37-.51-.27a27.58,27.58,0,0,1-15.19,3.54c-1.77-.1-3.47-.5-5.22-.73-2.68-.36-4.6.72-6.31,2.7s-4.91,6.63-8,4l-.31.49c6.13.12,14.38-.19,17.26-6.8,1.49-3.42.11-7.12-.87-10.47q-1.81-6.24-3.65-12.47c-.66-2.27-1.74-5.2-4.67-4.71-1.71.29-3.32,1.39-4.83,2.19-1.8.94-3.59,1.9-5.35,2.9a79.15,79.15,0,0,0-9.49,6.18c-2.46,1.91-5.48,4.12-4.76,7.64s3.84,6.67,6.43,9a30.56,30.56,0,0,0,9.9,5.87c.17.06.5,0,.56-.21,1.21-4.17-.52-8.15-.74-12.32-.17-3.22.84-7.49,4.4-8.42l-.43-.16c1,3.7-2,6.78-3.85,9.67s-2.64,6-1.48,9.35c2.25,6.42,10.4,8.34,15.54,4,.35-.29-.11-.54-.41-.4a15.32,15.32,0,0,1-12,.41c-3.93-1.53-6.3-5-9.78-7.15-2.68-1.66-6.1-2.22-8.73-.2-1.41,1.09-2.64,2.2-4.5,1.48a10.67,10.67,0,0,1-3.09-2.21c-2-1.79-4-4-6.84-4-.27,0-.6.39-.24.53a192.2,192.2,0,0,1,21.93,10.2l.11-.44a10.69,10.69,0,0,1-9.09.95l-.41.51,6,1.7,0-.42a22.87,22.87,0,0,1-14.35,4.45l-.05.53a91.74,91.74,0,0,1,16.78-2.88l-.32-.32c-2.18,5-9.16,5-13.76,5.39l-19.91,1.84.32.32c4.19-10.2,16.54-15.95,27-12.47l.14-.51a23.55,23.55,0,0,1-19.4-5.14c-2.43-2-4.8-3.81-8.05-4s-6.59.93-9.67,2.07l.42.31c5.11-11.72,18.84-18.51,31.3-16.23a21.38,21.38,0,0,1,9.38,4c2.83,2.22,5.35,5.66,4.77,9.46-.52,3.32-3.27,5.63-4.51,8.63s-.12,5.59,2.12,7.66c2.63,2.42,8.75,5.55,6.61,10a5.14,5.14,0,0,1-5.38,2.48c-2.5-.38-4.55-2.09-6.27-3.83l-.53.42,7.18,1.92c.22.06.73-.1.53-.41a6.63,6.63,0,0,0-10.28-.87.2.2,0,0,0,0,.27,18.19,18.19,0,0,0,9,5.51l0-.47c-3.62,2-7.58,4.21-11.85,4.14a8.64,8.64,0,0,1-8-5.68c-1.29-3.78,1.48-6.47,4.82-7.73,2.6-1,6.94-1.38,8.05,1.9l.39-.37c-3,.3-6.51,2.56-6.38,6,.1,2.74,3.19,5.24,5.87,4.12a10.15,10.15,0,0,0,2-1.37c1.5-1.13,2.93-.56,4.33.4a19,19,0,0,0,4.36,2.67,12.34,12.34,0,0,0,8.69-.45,11.38,11.38,0,0,0,6.72-7.26.23.23,0,0,0-.07-.27l-7.57-4.1c-.2-.11-.89.08-.61.37,2.45,2.58,5.11,5.37,5.82,9,.67,3.46-.77,7-4.25,8.14-2.79.93-5.94.44-8.74-.18-2.52-.57-6.81-1.62-6.79-4.9l-.73.12c1.76,4.29-2.44,8.39-6.53,8.7-4.64.36-9.36-2.39-13-5.05-3.17-2.34-6.53-5.94-6.32-10.19.19-3.79,3.62-8.31,7.81-7l.24-.53c-3.74.57-7.45,2.81-8.81,6.49a8.1,8.1,0,0,0,2.8,9.43l.49-.47c-7.76-2-15.29-8.25-14-17.05.56-3.85,3-7.27,6.93-8.19,3.44-.81,7.32.32,9.21,3.44.17.29.86,0,.66-.33-3-4.85-10.42-5.08-14.34-1.33-5.09,4.87-3.89,13.22.58,18a21.83,21.83,0,0,0,10.55,5.95c.23.06.86-.22.49-.47a7.66,7.66,0,0,1-2.78-8.59c1.14-3.55,4.61-5.81,8.17-6.34.22,0,.64-.41.24-.53-3.07-.95-6,.77-7.6,3.37a9,9,0,0,0,.25,9.71c2.16,3.53,5.86,6,9.45,7.88s7.83,3.32,11.65,1.72c3.32-1.39,6.05-5.2,4.57-8.82-.12-.29-.73-.21-.73.12,0,3.23,3.69,4.51,6.28,5.16,3.22.8,6.87,1.45,10.12.39a7.18,7.18,0,0,0,5-7.27c-.15-4.37-3.21-7.71-6.06-10.7l-.6.38,6.09,3.31c.27.14,1.22.47,1.32.82s-.26.77-.35,1a9.63,9.63,0,0,1-1.23,2.1,11.87,11.87,0,0,1-8.13,4.41,10.46,10.46,0,0,1-4.64-.54c-1.69-.61-2.93-1.81-4.42-2.77a4.4,4.4,0,0,0-3.84-.79c-1.81.64-2.78,2.74-5,1.94a4.25,4.25,0,0,1-2.72-4.84c.59-2.46,3.1-4,5.48-4.22.16,0,.47-.15.39-.37-1.85-5.52-10.83-2.48-13.44.71-1.79,2.19-1.42,5.13.06,7.38a9.18,9.18,0,0,0,7.28,4.14c4.58.23,8.84-2.07,12.72-4.22.17-.1.33-.41,0-.48a17.7,17.7,0,0,1-5.29-2.31,17,17,0,0,1-1.87-1.42c-.31-.27-1.32-.94-1.36-1.31s.16-.49.52-.75a5.88,5.88,0,0,1,8.21,1.7l.54-.41L203.29,390c-.17,0-.81.14-.54.42,2.46,2.48,5.77,4.9,9.45,3.87,3.11-.86,4.89-3.86,3.42-6.9-1.82-3.78-6.39-5-8.41-8.59-2.2-3.91,1.42-7.36,3.21-10.57,4.08-7.37-3.25-13.95-9.76-16.16a29.23,29.23,0,0,0-19.61.64,28.88,28.88,0,0,0-16.36,15.08c-.11.25.23.38.42.31,3.53-1.31,7.54-2.79,11.32-1.7,3.26.93,5.52,3.71,8.3,5.5a24.1,24.1,0,0,0,17.5,3.3c.23-.05.45-.41.14-.51-10.87-3.61-23.79,2.26-28.14,12.88-.09.21.13.34.32.32l22.36-2.06c4.36-.4,10.07-1.05,12.06-5.63.09-.21-.14-.33-.32-.32a93.06,93.06,0,0,0-17,2.91c-.27.08-.46.52,0,.54a24,24,0,0,0,15.08-4.65.24.24,0,0,0,0-.43l-6-1.71c-.31-.09-.86.35-.41.51a11.64,11.64,0,0,0,9.83-1c.12-.07.33-.32.11-.44a194.61,194.61,0,0,0-22.06-10.28l-.24.53c4.83,0,7.49,8.16,12.59,6.17,2-.78,3-2.7,5.39-2.78a9.69,9.69,0,0,1,6.18,2.48c3.1,2.47,5.6,5.33,9.52,6.52a16.32,16.32,0,0,0,11.66-.84l-.41-.4a9,9,0,0,1-14.88-6.84c-.08-3.42,2-6,3.79-8.75,1.46-2.2,2.79-4.6,2.1-7.32-.05-.17-.29-.2-.44-.16-3.19.83-4.64,4-4.95,7-.47,4.76,2.1,9.39.73,14.13l.56-.21a29.74,29.74,0,0,1-14.21-10.74,8.58,8.58,0,0,1-1.93-4.92c0-1.9,1.37-3.24,2.72-4.39a63.22,63.22,0,0,1,8.33-5.93c2.83-1.72,5.74-3.28,8.67-4.82,1.45-.76,3.15-2,4.85-1.92s2.53,2.22,3,3.6c1.05,3.38,2,6.81,3,10.2s2.46,6.8,2.42,10.22c-.05,3.58-2.51,6.39-5.63,7.87-3.55,1.69-7.66,1.57-11.5,1.5-.24,0-.55.29-.31.49,2,1.74,4.92.45,6.63-1.17,1.05-1,1.83-2.23,2.8-3.3a5.7,5.7,0,0,1,5.68-2.05,33.51,33.51,0,0,0,10.76.39,29,29,0,0,0,9.75-3.36l-.51-.27c-2.9,5-3.46,12.74-9.06,15.65a15.25,15.25,0,0,1-6.08,1.29q-3.42.22-6.86.3c-4.56.09-9.11,0-13.65-.36-.36,0-.74.44-.25.54a217.35,217.35,0,0,0,27,4.07l0-.5a22.33,22.33,0,0,1-21,.55l-.33.52c2.93.59,6,1.19,8.57,2.72a17.34,17.34,0,0,1,5.44,5.54c2.68,4,4.72,8.57,8.94,11.25a9.34,9.34,0,0,0,6.06,1.59c2.6-.3,4.66-2.29,7.25-2.52,4.64-.42,6.92,5.45,9.26,8.44a15.9,15.9,0,0,0,13.67,6c.41,0,.55-.59.06-.55Z" transform="translate(-143.98 -234.73)"/></g><g class="cls-1"><path class="cls-2" d="M321.86,297.32a22.78,22.78,0,0,1,13.9,18.87l.49-.33c-5.06-.08-11.21-.48-14.88-4.48-2.83-3.1-3.9-8.87-.25-11.79.08-.07.19-.19.1-.29-1.42-1.58-4.67,0-4.07,2.1,0,.12.22.16.32.14a15.52,15.52,0,0,0,7.43-3.48.2.2,0,0,0,0-.24,5.41,5.41,0,0,0-9.29.59c-2.59,5.47,2.74,11,1.2,16.61l.73-.14A32.83,32.83,0,0,1,315,307.7c-.53-2.25-.37-4.9-1.33-7-.84-1.84-2.8-2.8-4.54-3.61a32.9,32.9,0,0,0-6.33-2.11c-9.07-2.12-18.69-1.4-27.39-5.11a36,36,0,0,1-12.62-9.08c-.2-.22-.89.05-.67.3a37.69,37.69,0,0,0,22.4,11.86c4.59.75,9.24,1,13.84,1.71a44,44,0,0,1,6.8,1.52c2.28.72,5,1.65,6.78,3.33,1.95,1.86,1.64,5.06,2.14,7.51a33.28,33.28,0,0,0,2.8,8.07c.14.27.66.12.73-.13,1.5-5.43-3.32-10.55-1.47-15.93a4.47,4.47,0,0,1,6.61-2.43c.34.21,1.21.71,1.29,1.15s-1,1.16-1.49,1.46a14,14,0,0,1-5,1.87l.33.14c-.42-1.48,1.57-2.83,2.67-1.61l.1-.29c-3.67,2.95-3.07,8.49-.35,11.89,3.63,4.55,10.33,5,15.69,5.13.19,0,.51-.09.49-.33a23.09,23.09,0,0,0-14.19-19.12c-.26-.11-.84.28-.43.44Z" transform="translate(-143.98 -234.73)"/></g><g class="cls-1"><path class="cls-2" d="M269.83,287.9c15.41,3.27,30-5.73,42.4-13.74,2.93-1.89,5.92-3.91,8-6.74s3-6.24,5.31-8.87c3.76-4.22,9.37-6.16,14.49-8.15,5.6-2.16,11.55-4.53,15.11-9.64l-.67-.07c-1.28,8.37-3.17,17.32-8.85,23.93-5,5.86-13.62,9.49-21.1,6.3l0,.4,14-11.78-.54-.26a49.48,49.48,0,0,1-17.19,14.62c-.19.1-.32.36-.05.45,7.87,2.66,12.37,12.19,9.43,20-.14.38.58.36.69.07,3-8-1.58-17.77-9.7-20.52l-.06.45a50.47,50.47,0,0,0,17.49-14.83c.25-.35-.33-.45-.55-.27L324.1,271c-.15.13-.18.31,0,.4,5.65,2.41,12,1.05,17.06-2.19,5.83-3.75,9.34-9.92,11.39-16.39a80.76,80.76,0,0,0,2.65-12.19c0-.34-.54-.25-.67-.08-6.35,9.13-19.15,9.09-27.39,15.72a18.1,18.1,0,0,0-4.91,6.23,28.27,28.27,0,0,1-2.84,5,21.45,21.45,0,0,1-4,3.79c-2.93,2.22-6.13,4.13-9.26,6.05a112.77,112.77,0,0,1-10.56,5.8c-8,3.75-16.73,6.08-25.52,4.21-.35-.07-.73.42-.25.52Z" transform="translate(-143.98 -234.73)"/></g><g class="cls-1"><path class="cls-2" d="M330.33,295a1.49,1.49,0,0,1-1.72,1.21,4.82,4.82,0,0,1-2.22-1.14,25.18,25.18,0,0,0-4.32-2.73,6.07,6.07,0,0,0-3.6-.89c-.85.13-1.71.59-1.62,1.56,0,.29.76.12.73-.19-.17-1.71,2.7-.65,3.39-.35a22.56,22.56,0,0,1,4.35,2.6c1,.76,2.1,1.7,3.46,1.62a2.31,2.31,0,0,0,2.28-1.76c0-.33-.69-.22-.73.07Z" transform="translate(-143.98 -234.73)"/></g><g class="cls-1"><path class="cls-2" d="M314.63,291.89a10.5,10.5,0,0,1-8.9-7,8.44,8.44,0,0,1-.14-5.88c.81-1.84,2.79-.29,3.93.36l3.57,2.06,8.27,4.76c.11.06.79,0,.71-.22-2.72-5.73-11.59-4-14.25-9.71-.09-.19-.79,0-.73.19,2.67,5.77,11.55,4,14.25,9.71l.7-.22-8.7-5-4.28-2.47a3.39,3.39,0,0,0-2.91-.59c-1.92.71-1.87,3.7-1.61,5.35a11,11,0,0,0,3,5.92,10.12,10.12,0,0,0,6.62,3.1c.16,0,.83-.29.46-.31Z" transform="translate(-143.98 -234.73)"/></g><g class="cls-1"><path class="cls-2" d="M305.86,277.87a28.38,28.38,0,0,1-5.15-4.32,17.5,17.5,0,0,1-3.89-5.58c-.86-2.48,1-5.24,2-7.45l3-6.88c.45-1,.84-2.13,1.39-3.11.88-1.56,2.62-1.47,4.19-1.49,1.2,0,3-.14,4.14.4s1.14,1.94,1.14,3.1c0,4.62,1.91,8.88,2.5,13.42.33,2.61.21,5.51-1.23,7.81s-4.06,3.89-6.77,3.19c-.29-.07-.86.35-.42.47,4.16,1.07,8-2.28,8.94-6.16,1.54-6-2-11.8-2.27-17.75-.09-2,.28-4.26-2.16-4.75a18.58,18.58,0,0,0-3.8-.23,8.13,8.13,0,0,0-3.69.56,4,4,0,0,0-1.57,2c-.71,1.54-1.38,3.11-2.06,4.66-1.31,2.95-2.84,5.89-3.92,8.94-1,2.88.59,5.18,2.33,7.4a28.61,28.61,0,0,0,6.72,6.13c.25.16.9-.18.57-.4Z" transform="translate(-143.98 -234.73)"/></g><g class="cls-1"><path class="cls-2" d="M306.49,277.31a64.11,64.11,0,0,0-2.5-16.4c-.05-.19-.66,0-.72.16a14.33,14.33,0,0,0-.66,8.8c0,.17.77,0,.73-.2A14.09,14.09,0,0,1,304,261l-.72.16a64,64,0,0,1,2.49,16.39c0,.14.73,0,.73-.19Z" transform="translate(-143.98 -234.73)"/></g><g class="cls-1"><path class="cls-2" d="M288.9,426.85v-1a.13.13,0,0,0-.08-.13.39.39,0,0,0-.24,0,.66.66,0,0,0-.27.09c-.05,0-.14.09-.14.16v1c0,.07,0,.1.08.13a.38.38,0,0,0,.24,0,.66.66,0,0,0,.27-.09c.05,0,.14-.09.14-.16Z" transform="translate(-143.98 -234.73)"/></g><g class="cls-1"><path class="cls-2" d="M354.22,491.45a6.91,6.91,0,0,1,7.83,6.45l.4-.3c-1.9.23-4.1.47-5.63-.93a2.77,2.77,0,0,1-1-2.33,1.8,1.8,0,0,1,2.42-1.5c.2.1.77-.15.53-.42a2.54,2.54,0,0,1-.62-2.16,2.36,2.36,0,0,1,2.87-1.87c1.75.25,3.24,1.39,5,1.51s5.11-1.24,3.47-3.61a5.07,5.07,0,0,0-3.65-1.69,16.56,16.56,0,0,0-5.35.23c-3.31.67-6.85,2.41-8.82,5.24-1.63,2.33-1.79,6.05,1,7.65a4.33,4.33,0,0,0,1.87.52,4.49,4.49,0,0,1,2.81,1.05c1.24,1,2.26,1.94,4,1.82a17.73,17.73,0,0,0,4.83-1.25A13,13,0,0,0,370,497.8a5.56,5.56,0,0,0,1.46-7.34,7.62,7.62,0,0,0-8.75-3.15c-3.45,1.08-6,4-7.46,7.21-.18.39.55.41.7.1a12.81,12.81,0,0,1,6-6.45A6.93,6.93,0,0,1,370.2,490a5.12,5.12,0,0,1-.71,7.46,12,12,0,0,1-3.56,1.91,17.19,17.19,0,0,1-4.36,1.18c-2,.17-2.78-1.14-4.22-2.12-1.21-.83-2.56-.45-3.84-1a4.18,4.18,0,0,1-2.28-3.4,5.94,5.94,0,0,1,1.65-4.47,14.35,14.35,0,0,1,8.86-4.39,13.57,13.57,0,0,1,4.88.15c1.27.31,3.34,1.51,2.29,3.1-.83,1.26-2.92,1-4.13.6-1.46-.53-3-1.38-4.57-1.22a3,3,0,0,0-2.1,4.95l.54-.42c-2-.95-4.08,1.25-3.44,3.23,1,3,4.69,2.9,7.18,2.6.15,0,.4-.11.4-.3a7.5,7.5,0,0,0-8.72-6.94c-.46.09-.31.61.15.53Z" transform="translate(-143.98 -234.73)"/></g><g class="cls-1"><path class="cls-2" d="M359.9,503.46c-4.79,4.34-11.3,8.52-18.08,7.34-5.54-1-10.87-5.81-10.3-11.78l-.59.24,22.35,3.32c.13,0,.72-.09.56-.33a11.8,11.8,0,0,0-13.36-4.52l.41.11c.5-4.49,4.95-6.48,7.76-9.41,2.26-2.37,4.39-6.63,1.62-9.41-.12-.11-.36,0-.48,0a36.43,36.43,0,0,0-15.37,10c-1.62,1.79-3.3,4.24-2.38,6.76a5.91,5.91,0,0,0,4.11,3.35c4.37,1.22,8.21-1.16,10.16-5.08a25.1,25.1,0,0,0,2.09-8.45c.34-3.18.43-6.79,2.72-9.29,2.6-2.84,7-3.06,10.46-1.86,3.73,1.3,6.76,4,9.67,6.54l.2-.27a25.65,25.65,0,0,1-17.94-.26l-.43.36a74.39,74.39,0,0,1,22.78,3.54c2.07.67,4.21,1.45,5.25,3.53,1.47,2.95.56,6.87,3.43,9.1,1.13.88,3.33,1.69,3.53,3.32.16,1.21-.9,2-1.83,2.5-1.22.69-2.51,1.29-3.77,1.89a122.65,122.65,0,0,1-15.78,6.19l.4.12,3.41-15c.72-3.18,1.25-10.15,5.41-10.83l-.28-.19c-4.58,7.74-3.36,17.53-8.42,25-2.45,3.64-6.29,6.61-10.91,5.88-4.06-.64-7.75-3.68-12-3.14-2.94.38-6.69,2.5-5.9,6,0,.06.09.08.14.09a58.25,58.25,0,0,0,26.55.82,56.46,56.46,0,0,0,12.29-3.94c2.89-1.31,6.32-3.26,7.2-6.57.78-2.92-1.15-6.72-4.48-6.51-.11,0-.48.06-.5.24-.33,3.76.44,7.51-.71,11.19a22.36,22.36,0,0,1-5.59,8.82A38.92,38.92,0,0,1,356.09,533a33.63,33.63,0,0,1-19.79-.26c-5.55-1.9-12.89-6.42-12.41-13.23.25-3.58,2.95-7.46,6.93-6.93,3.56.48,6.24,3.53,9.4,5,.12.06.76,0,.65-.26-2.68-6-9.86-7.79-15.37-10.13-2.9-1.23-5.94-2.69-7.91-5.25-3.1-4.06-1.8-9.14.5-13.25,1.39-2.5,3.07-4.83,4.66-7.2s3-4.58,4.59-6.83c2.69-3.86,5.83-7.8,10-10.13a13,13,0,0,1,3.19-1.29,10.61,10.61,0,0,1,2.18-.31c.42,0,1.72-.15,2,.13.52.48-.31,2.76-.46,3.39-.31,1.27-.68,2.53-1.11,3.77a41.52,41.52,0,0,1-7.63,13.38c-3.18,3.73-7.66,6.93-9.36,11.69-1.92,5.35,1.89,9.48,5.81,12.57.16.12.66,0,.7-.19a106.13,106.13,0,0,1,7.58-23.7,103.45,103.45,0,0,1,6-11.25c2-3.26,4.1-7,7.22-9.33,5.58-4.16,11,.56,15.07,4.36a43.69,43.69,0,0,0,6,5,14,14,0,0,0,3.54,1.67c.49.15,1,.18,1.5.34.77.24.91.87.64,1.59-.92,2.51-5,3.61-4.43,6.8.78,4.29,6.17,3.63,9.22,3l-.41-.07a12.86,12.86,0,0,0,7,8.12c.16.07.6,0,.65-.22A26.72,26.72,0,0,0,390,476.44a26.39,26.39,0,0,0-5.15-7.12c-.65-.63-1.79-2-2.7-2.19a8.55,8.55,0,0,0-2.37.41l-3.18.57.23.23c2.12-1.69,2-4.78.49-6.86-1.92-2.71-5.49-4.2-8.35-5.65-6.85-3.45-14.23-6.15-21.93-6.68-11.76-.81-25.35,4.73-29.51,16.61-2.61,7.45-.24,16.18-4.71,23,0,.08,0,.14.05.17,1.68.83,3.7,1.93,4.45,3.76.86,2.09-.85,3.69-1.45,5.57-1.07,3.34.47,7,2.82,9.41,2.77,2.82,6.78,4,10.54,4.8.41.09,2.61.29,2.72.62s-1.56,2.19-1.83,2.59a18.88,18.88,0,0,0-2.75,5.26c-2.38,7.74,4.58,13.87,11.68,14.88,7.59,1.09,15.84-1.51,22.59-4.82A52.71,52.71,0,0,0,381.3,514.4l-.67.14c4.1,3.39,4,9.57,1.47,13.89-3.28,5.56-10.27,7.26-16.3,7.16-.66,0-1.31,0-2-.08-.92-.07-.9-.09-.47-.9l.45-.8a24.45,24.45,0,0,1,2.43-3.46,26.07,26.07,0,0,1,6.91-5.81,25.06,25.06,0,0,1,8.33-3.07c3.12-.54,6.35,0,9.44-.75,5.83-1.34,8.56-7.22,10.61-12.27,0-.05,0-.1-.07-.12-3.69-2-7.47-3.81-11.1-5.89-1.79-1-2.81-2.54-2.14-4.63a9.75,9.75,0,0,1,3.14-4.16c4.13-3.56,9.27-6.06,12.8-10.3a11.37,11.37,0,0,0,2.8-6.71c.16-3.32-1.39-6.36-3.24-9a60.05,60.05,0,0,0-6.52-7.89,18,18,0,0,0-7.64-5c-4.76-1.37-11.7,1.08-12.14,6.66,0,.26.47.12.58,0a7.34,7.34,0,0,0,3.32-6.29,10.74,10.74,0,0,0-3.95-8.11,27.07,27.07,0,0,0-9.09-5.15c-2.83-1-6.11-1.41-8.89,0s-4.85,4.42-3.85,7.52l.41-.28c-3.25.23-5.28-3.46-7.42-5.33a9.91,9.91,0,0,0-8.52-2c-3.64.64-7,2.33-10.33,3.87-3.86,1.78-7.71,3.61-11.45,5.64-10.58,5.73-24.48,16.47-19.34,30.29,2.09,5.63,7.2,10.37,13.53,9.58l-.24-.24a23.66,23.66,0,0,0-7.55,23.65c1.92,8.39,7.68,16.81,15.59,20.54a21,21,0,0,0,14.69,1.09l-.19-.3c-3.58,1.43-8.69,3.85-9.07,8.27-.42,4.92,5.1,7.59,9,8.73,8.31,2.39,17.57.31,24.51-4.7a26.2,26.2,0,0,0,9.07-11.45c.08-.21-.63-.13-.72.1-3.08,7.71-10,13.37-17.95,15.6a26.8,26.8,0,0,1-12.17.62c-3.9-.73-9.14-2.53-10.7-6.57-2.07-5.35,4.26-8.73,8.27-10.33.4-.16.15-.39-.18-.3-18,5.14-33.51-16.4-29.52-32.88a22.69,22.69,0,0,1,7.46-12c.21-.18-.09-.25-.24-.24-5.88.74-10.66-3.81-12.73-8.94-2.32-5.77-1.09-11.78,2.32-16.84,3.76-5.6,9.5-9.58,15.3-12.83,3.6-2,7.3-3.81,11-5.55,3.36-1.56,6.76-3.36,10.38-4.24a11,11,0,0,1,6.69.16,11.57,11.57,0,0,1,4,3.09c1.77,1.89,3.56,4,6.37,3.81.1,0,.47-.12.42-.28-1.18-3.69,2.07-7.24,5.62-7.74,4.07-.56,8.31,1.54,11.7,3.59,2.92,1.77,5.78,4.27,6.7,7.69.82,3.05.1,6.75-2.72,8.52l.58.05c.36-4.57,5.3-7,9.47-6.5,4.92.59,8.7,4.69,11.69,8.28,3.18,3.82,7.18,8.32,6.94,13.64-.19,4.11-2.94,7.25-6,9.72s-6.77,4.68-9.84,7.42c-1.46,1.3-2.95,3-3.13,5.05-.22,2.32,1.67,3.41,3.46,4.36l7.93,4.21c.47.25,1.93.75,2,1.38,0,.36-.41,1-.55,1.33a36.51,36.51,0,0,1-1.73,3.56,15.53,15.53,0,0,1-4.18,5.07c-2.73,2-5.94,1.8-9.15,1.91a26.77,26.77,0,0,0-22.89,14.9c0,.08.08.13.13.14,6.57.64,14.35-.22,19-5.41,3.92-4.34,4.8-12.1,0-16.12a.57.57,0,0,0-.68.14,52,52,0,0,1-23,18.06c-8.83,3.5-23.43,6.44-28.83-4-2.92-5.68.7-11.09,4.18-15.5.07-.1,0-.18-.12-.19-4.56-.82-9.68-1.7-13.16-5a11.07,11.07,0,0,1-3.18-5.56c-.51-2.38.21-4.14,1.27-6.22a3.9,3.9,0,0,0-.46-4.64,9,9,0,0,0-1.93-1.6c-.4-.25-.88-.44-1.25-.72-.58-.45-.19-.73.13-1.32,2.05-3.81,2.24-8.25,2.52-12.48s.75-8.61,2.86-12.47a23.92,23.92,0,0,1,8.28-8.62c8-5.06,17.54-5.53,26.51-3.29a70.77,70.77,0,0,1,16,6.44c2.2,1.17,4.62,2.36,6.15,4.39s1.77,5-.29,6.64c-.21.18.09.27.24.24l2.73-.49a7.23,7.23,0,0,1,2.51-.35c1.13.27,2.43,1.91,3.21,2.74a26.74,26.74,0,0,1,6.59,23.67l.66-.22a12.56,12.56,0,0,1-6.9-8c-.05-.15-.32-.09-.41-.07-2.46.53-5.44,1.09-7.39-.94a3.33,3.33,0,0,1,0-4.72c.86-1,4.73-3.62,3.34-5.39-.3-.4-.57-.31-1.08-.4a10.36,10.36,0,0,1-2.11-.6,16.2,16.2,0,0,1-3.63-2.1c-2.26-1.67-4.22-3.69-6.3-5.57-3.64-3.28-8.19-6.27-13.15-3.84-3.16,1.54-5.22,4.63-7.1,7.48a105.06,105.06,0,0,0-6.21,10.74A106.16,106.16,0,0,0,332,507.74l.7-.19c-2.68-2.1-5.59-4.63-6.19-8.18-.57-3.35,1.22-6.4,3.29-8.89s4.6-4.7,6.71-7.23a42.16,42.16,0,0,0,9.21-20.39c0-.08-.06-.12-.14-.13-5.53-1-10.38,2.09-14.08,5.92a55.06,55.06,0,0,0-5.91,7.6c-2.21,3.3-4.47,6.58-6.63,9.91-3.13,4.83-6,11.21-1.79,16.3,2.73,3.31,7.14,4.81,11,6.34,4.58,1.83,9.86,3.87,12,8.68l.65-.27c-3.12-1.45-5.71-4.31-9.19-5a6.78,6.78,0,0,0-6.7,2.68,8.83,8.83,0,0,0-1,8.74c1.34,3.18,4.11,5.56,7.05,7.25,12.42,7.1,28.68,3.71,39.5-4.82a29,29,0,0,0,8-9.24,16.69,16.69,0,0,0,1.81-5.92c.28-2.71-.16-5.43.08-8.15l-.5.24c3.83-.23,5,4.86,3.47,7.58-2,3.51-6.46,5.12-10,6.42a57.17,57.17,0,0,1-26.51,3,58.07,58.07,0,0,1-6.27-1.15c-1.13-.27-1.66-.54-1.43-1.8a4,4,0,0,1,1.24-2.15c3.4-3.2,7.8-1.26,11.48.17,3.05,1.19,6.16,1.88,9.32.71a14.54,14.54,0,0,0,6.78-5.74c5.07-7.52,3.84-17.3,8.42-25,.11-.18-.16-.21-.28-.19-3.94.65-4.85,5.12-5.59,8.4l-4.06,17.93c0,.19.33.14.41.11a122,122,0,0,0,15.12-5.85c2-.95,9.47-3.49,6-6.75-1.44-1.36-3.34-1.9-4.23-3.82s-.82-3.95-1.38-5.87c-1.28-4.43-6.6-5.25-10.49-6.23a75.32,75.32,0,0,0-18.43-2.27c-.1,0-.75.24-.44.36a26.86,26.86,0,0,0,18.8.2c.07,0,.32-.17.2-.27-4.18-3.68-8.92-7.7-14.85-7.32a10,10,0,0,0-6.1,2.38c-2,1.85-2.7,4.54-3,7.17-.64,5.14-.8,12.39-6,15.32-4,2.27-11.11-.64-9.14-5.94a14.08,14.08,0,0,1,3.6-4.73,37.26,37.26,0,0,1,3.7-3.17,36,36,0,0,1,9.91-5.15h-.48c3.26,3.25-.27,8.09-3,10.34s-6,4.54-6.45,8.3c0,.19.31.15.41.12a11.18,11.18,0,0,1,12.6,4.47l.56-.32-22.35-3.32c-.14,0-.56,0-.58.23-.61,6.39,5.31,11.47,11.27,12.16,6.95.8,13.47-3.25,18.41-7.72.3-.27-.41-.25-.58-.1Z" transform="translate(-143.98 -234.73)"/></g><g class="cls-1"><path class="cls-2" d="M407.66,512.75a16.84,16.84,0,0,1,9.12-9c4.84-2.07,10.31-2,15.36-.77a43.64,43.64,0,0,1,13.54,5.87c1.08.69,2.12,1.42,3.13,2.2.35.27,1.16.72,1.27,1.16s-.4,1-.65,1.42a33.46,33.46,0,0,1-3.83,5,37,37,0,0,1-21.14,11.17,33.88,33.88,0,0,1-12.09-.23c-3.84-.79-9.66-2.93-8.55-8,.81-3.68,5.12-2.73,7.89-2.53a80.9,80.9,0,0,0,8.81.13,84.86,84.86,0,0,0,16.93-2.39c.44-.11.33-.48-.11-.38A54,54,0,0,1,423,517.65l.23.17a7.2,7.2,0,0,1,7.76-5.53.56.56,0,0,0,.56-.19,1.62,1.62,0,0,0-.8-2.28,3.21,3.21,0,0,0-2.93.4,31.42,31.42,0,0,0-3.85,2.95,49.78,49.78,0,0,1-4.57,3.37,16.54,16.54,0,0,1-5,2.24,13.68,13.68,0,0,1-6.07-.17c-3.11-.65-6.31-1.59-9.34-.17l.51.12a22.44,22.44,0,0,0,1.13-6.23c0-.2-.29-.2-.41-.15A4.82,4.82,0,0,0,397.1,517c0,3.09,2.17,5.75,3,8.65.93,3.35.83,6.89.74,10.34s-.45,6.59-2.63,9.26a21.39,21.39,0,0,1-7.54,5.29,18,18,0,0,1-4.84,1.91,4.26,4.26,0,0,1-4.34-2.33c-3-5-1.63-12.23,1.26-16.91,1.19-1.92,7.15-9,8.77-4.15.51,1.53,0,3.47-.52,4.94a13.71,13.71,0,0,1-3,4.9l.65,0,2.83-7.9,1.34-3.72a5.86,5.86,0,0,1,.86-2.07,5.39,5.39,0,0,1,2-.91c.47-.18,0-.44-.29-.31-1,.38-2.2.47-2.58,1.52L391.14,530,387.9,539c-.1.28.56.12.65,0a13.27,13.27,0,0,0,3.86-8.82c0-2.87-2.39-3.8-4.78-2.63-2.69,1.3-4.84,4.13-6.21,6.7a19.41,19.41,0,0,0-2.26,9c0,2.85.51,6.44,2.73,8.47,2.49,2.29,5.8.61,8.38-.59a26.19,26.19,0,0,0,7.72-4.93c2.52-2.55,3.37-5.71,3.52-9.23.18-4.32.38-8.95-1.21-13-.76-2-1.93-3.82-2.34-5.92s.15-4.76,2.33-5.51l-.42-.15a22,22,0,0,1-1.13,6.23c-.08.24.43.16.51.12,3.23-1.52,6.77,0,10.06.53a13.45,13.45,0,0,0,7.05-.72,27.26,27.26,0,0,0,6.61-4c1.16-.9,2.29-1.83,3.43-2.73a11.14,11.14,0,0,1,1.86-1.37c1.05-.5,1.92-.56,2.52.27a1.16,1.16,0,0,1,.08,1.36l.56-.19a8.13,8.13,0,0,0-8.93,6c0,.12.14.17.22.17a55.72,55.72,0,0,0,14.74-1.28l-.11-.38a82.65,82.65,0,0,1-24.88,2.24c-2.65-.17-6.33-1.12-8.41,1.12-1.68,1.82-1.24,4.83.27,6.6,1.94,2.28,5.14,3.11,8,3.66a34.83,34.83,0,0,0,8.41.56,38.29,38.29,0,0,0,16.42-4.79A35.94,35.94,0,0,0,451,512.17s0-.12,0-.16c-9.86-8.19-26.16-14.76-37.95-6.65a16.59,16.59,0,0,0-6.11,7.47c-.1.25.62.17.72-.08Z" transform="translate(-143.98 -234.73)"/></g><g class="cls-1"><path class="cls-2" d="M307.29,461.65c-5.25.67-11.34,1.38-16-1.78-4.22-2.87-5.73-8.2-9.6-11.44l-.32.46c4.15-.46,6.54-4.56,9.67-6.85a24.67,24.67,0,0,1,12.14-4.54,25.12,25.12,0,0,1,12.75,2c1.78.81,5.59,2.39,4.74,4.87s-4,3.86-6.17,4.57c-5,1.62-10.59.87-15.72.09l-.26.52c2.33,0,4.85-.69,7.13-.08,2,.53,4.22,2.67,3.08,4.85-.85,1.62-3,2.19-4.41,3.15a17.72,17.72,0,0,0-3.52,3.29c-2.16,2.53-4,5.55-6.88,7.35a9.23,9.23,0,0,1-10.46-.75,8.88,8.88,0,0,1-2-2.24c-.5-.77-.75-1.69-1.27-2.45-1.24-1.78-3.39-.81-4.93-2-.25-.19-.88.16-.56.41a4.13,4.13,0,0,0,2.19.71,4.19,4.19,0,0,1,2,.48,3.9,3.9,0,0,1,1.2,1.73,9.7,9.7,0,0,0,3.28,4,10.2,10.2,0,0,0,9.84,1.06c3.52-1.6,5.65-5,8-7.9a16.63,16.63,0,0,1,4.72-4.08c1.42-.78,3.19-1.56,3.73-3.24.62-1.92-.89-3.7-2.52-4.51-2.57-1.27-5.61-.32-8.33-.36-.32,0-.77.44-.26.52,4.88.74,10,1.39,14.87.21,2.63-.63,11.13-4.44,7.28-8.13a16.81,16.81,0,0,0-5.62-3.14,25.27,25.27,0,0,0-6.59-1.53,26.89,26.89,0,0,0-13.08,2,23.89,23.89,0,0,0-6.6,4.18c-2.2,2-4.18,4.86-7.34,5.21-.21,0-.57.25-.31.46,4.16,3.48,5.66,9.34,10.57,12,4.68,2.57,10.41,1.93,15.49,1.29.4-.05.56-.58.07-.52Z" transform="translate(-143.98 -234.73)"/></g><g class="cls-1"><path class="cls-2" d="M267,463.26c2.46,1.54,5.31-.29,7.82.79,2.26,1,2.51,5.91,5.83,4.63l-.53-.2a9.91,9.91,0,0,1-2.76,6.46c-1.31,1.34-3,2.3-4.28,3.64a7.39,7.39,0,0,0-2.05,4.33,5.45,5.45,0,0,1-3.33,4.43,12.15,12.15,0,0,1-5.6.78c-2.13-.14-4.47-.47-5.11-2.85s-.07-7.5-3.89-7.22c-.41,0-.55.58-.06.55,3.67-.27,2.47,6.2,3.78,8.17,1.45,2.18,5.39,2.09,7.71,1.87s4.79-1,6.2-2.95c.89-1.25.9-2.65,1.26-4.09.48-1.85,1.92-3.08,3.36-4.21a16.54,16.54,0,0,0,3.77-3.65,10.6,10.6,0,0,0,1.74-5.31c0-.29-.35-.27-.53-.2-1.88.73-2.75-2.15-3.46-3.26a3.62,3.62,0,0,0-2.25-1.61c-2.31-.56-4.93.81-7.06-.53-.29-.17-.91.21-.56.43Z" transform="translate(-143.98 -234.73)"/></g><g class="cls-1"><path class="cls-2" d="M328.27,383.56a2.53,2.53,0,0,1,3.92-.05c.69.86,1.09,2.88-.25,3.24a5.16,5.16,0,0,1-2.28,0,3.82,3.82,0,0,1-1.46-.49,1.65,1.65,0,0,1-.37-1.06c-.23-1.43-.24-2.92-.35-4.35,0-.21-.42-.13-.52-.09-4,1.77-5,8.09-1.27,10.71,3.89,2.75,10.07-.79,9.93-5.45l-.49.27c3,.31,4.62,3.79,4,6.51-.8,3.5-4.61,5.35-7.9,5.65a25.31,25.31,0,0,1-6.67-.52,18.64,18.64,0,0,0-4.84-.71c-2.35.23-2.9,2.29-1.76,4.11,1.45,2.32,4.15,3.37,6.61,4.23a19.86,19.86,0,0,0,8.18,1.26,9.38,9.38,0,0,0,6.26-2.88c2.13-2.33,2.61-5.6,2.51-8.64-.28-8.45-4.21-16.19-8-23.56l-.49.33a14.87,14.87,0,0,1,10.61,7.1c2.68,4.22,3.36,9.42,3.06,14.33-.15,2.41-.16,5.56-2.06,7.31a39.4,39.4,0,0,1-6.24,4.08,52.38,52.38,0,0,1-13.65,6.3c-2.37.63-5.09,1.21-7.48.38s-3.49-3.21-4.14-5.58c-1.24-4.58-2.63-10-.44-14.5a17.67,17.67,0,0,1,4.68-5.43c2.06-1.76,4.14-3.51,6.2-5.26s4.06-3.43,6.08-5.16a10.81,10.81,0,0,0,3.55-4.38,4,4,0,0,0-1.47-4.63,2.83,2.83,0,0,0-3.6.35c-2.43,2.49.55,6.93-2,9.42l.66.05L328.06,364c.2-2,.38-3.9.6-5.85s.67-4,2.6-4.83c3-1.33,6.68.66,9.22,2.14a59.61,59.61,0,0,1,15.82,13.4,40,40,0,0,1,5.77,8.55c1.41,3.05,1.92,6.65-.12,9.55-2.37,3.37-6.25,2.64-8.84,0-3.66-3.7-6.92-13.21-13.77-10.52-.12.05-.33.26-.13.37,8.59,4.55,16.8,12.77,18.66,22.64a16.93,16.93,0,0,1-2.76,13.25A11.42,11.42,0,0,1,342.75,417c-2.51-.76-4.06-2.38-5.66-4.37-1.15-1.44-2.47-2.84-4.47-2.62-.12,0-.48.13-.4.33,1.06,2.83,3.61,4.6,5.46,6.87,2.17,2.66,2.22,6.21-1.15,7.89s-7.24,1.2-10.74,1.08a84,84,0,0,1-14.07-1.4c-3.88-.79-9.91-2-11.07-6.49l-.3.31,17.49-5.72c.11,0,.29-.11.31-.25.44-3.14-4.77-2.42-6.43-2.24L297.35,412c-2.33.25-5.05.9-7.32.1-2-.69-3.69-3.18-2.11-5.07,1.36-1.62,4.34-2.13,6.28-2.67a57.65,57.65,0,0,1,7.35-1.49l0-.44A46.72,46.72,0,0,0,289,406.75c-2.66,1.4-5.62,3.59-5.34,7,.27,3.16,3.17,5.68,6.12,6.39,4,1,8.17-.67,11.85-2.15.46-.19.05-.51-.3-.36-3.53,1.42-7.62,3.07-11.46,2-2.84-.81-5.65-3.51-5.49-6.65.18-3.55,3.9-5.38,6.71-6.67a47,47,0,0,1,10.59-3.42c.36-.06.42-.5,0-.44a56,56,0,0,0-11.21,2.67c-2.1.75-4.66,2.28-3.61,4.9,1.14,2.88,4.49,3.09,7.13,2.84,4.09-.37,8.17-.89,12.25-1.34,2.39-.26,4.79-.54,7.19-.79,1.36-.13,4.33,0,4,2l.31-.25-17.49,5.72c-.13,0-.35.14-.31.31,1,3.88,5.45,5.27,8.87,6.16a71.75,71.75,0,0,0,15.32,2c3.81.15,7.93.59,11.61-.69,2.78-1,5.09-3.4,4.07-6.53-1.22-3.74-5.48-5.54-6.86-9.24l-.4.33c2.63-.29,4.06,3,5.65,4.57a10,10,0,0,0,5.11,2.64,12.41,12.41,0,0,0,11-3.21,16.26,16.26,0,0,0,4.62-12.06c-.15-5.27-2.51-10.24-5.61-14.41a40.48,40.48,0,0,0-13.55-11.53l-.13.37c4.06-1.6,7.55,2.91,9.41,5.9,1.59,2.55,3.46,5.53,6.39,6.67a6,6,0,0,0,6.73-1.79c2.12-2.48,2.27-5.83,1.25-8.82-1.21-3.53-3.61-6.7-5.94-9.57a59.13,59.13,0,0,0-8-8.19,59.76,59.76,0,0,0-9.13-6.34c-2.42-1.36-5.3-2.61-8.13-2.09-4,.73-4.18,4.71-4.52,8l-1.64,15.86c0,.34.54.17.66.05,2.44-2.36.32-6,1.58-8.74,1.4-3.06,4.65.22,4.44,2.47-.22,2.43-2.44,4.15-4.16,5.62-4.24,3.59-8.59,7.09-12.72,10.81a15.18,15.18,0,0,0-4.09,5.28,14.24,14.24,0,0,0-.82,6.69,42.27,42.27,0,0,0,1.39,7.12c.52,2,1.17,4,2.85,5.31,3.31,2.52,8.47,1,12-.2a63.57,63.57,0,0,0,13-6.58c1.84-1.15,4.14-2.23,5.57-3.91s1.44-4.1,1.61-6.12c.45-5.34-.18-11-3.15-15.6a15.28,15.28,0,0,0-10.92-7.12c-.12,0-.6.11-.49.33,3.19,6.27,6.47,12.71,7.59,19.73.54,3.39.8,7.33-.85,10.47a8.29,8.29,0,0,1-7.23,4.26,20.9,20.9,0,0,1-8.67-1.77,12.48,12.48,0,0,1-3.73-2.06c-.9-.81-2.12-2.2-1.89-3.53.41-2.35,4.3-1,5.85-.7a32.44,32.44,0,0,0,5.73.65,12.52,12.52,0,0,0,7.17-2,6.69,6.69,0,0,0,3.12-6.4,5.28,5.28,0,0,0-4.52-4.72c-.13,0-.5.07-.5.27.14,4.41-5.79,7.87-9.2,4.51-2.65-2.62-1.88-8,1.58-9.49l-.52-.08.36,4.35c0,.54,0,.83.33,1.16a4.18,4.18,0,0,0,1.42.56c1.28.35,4,.69,4.52-.89,1.23-3.58-3.53-5.37-5.7-2.81-.29.34.41.39.59.17Z" transform="translate(-143.98 -234.73)"/></g><g class="cls-1"><path class="cls-2" d="M301.09,469c-6.4,2-8.92,8.71-9.91,14.75a68.49,68.49,0,0,0-.74,11.18,50.83,50.83,0,0,0,1.22,11.86,26.52,26.52,0,0,0,5.8,11.6.43.43,0,0,0,.63,0,18.86,18.86,0,0,0-6.62-29.31.44.44,0,0,0-.58.27,135.11,135.11,0,0,1-5,15c-.93,2.31-1.93,4.6-3,6.87-1,2-1.89,4.66-3.74,6.09-2.37,1.82-5.16.18-6.67-1.9a11.39,11.39,0,0,1-1.93-6.28,18.66,18.66,0,0,1,4.73-12.36c3.54-4.16,8.29-7.07,12.9-9.89l-.4-.4c-7.89,5.57-16,11.31-25.39,14.11-1.09.33-2.19.61-3.31.85-.66.14-1.33.26-2,.37-.84.13-1.43.2-1.48-.86-.12-2.36,3.21-3.76,4.9-4.57q7.22-3.42,14.53-6.65,8.29-3.68,16.72-7.07l-.52-.13c1.93,7.37-3.23,14.12-7.65,19.45l.67.1,1.48-17.92c0-.39-.71-.3-.74,0l-1.47,17.91c0,.36.52.27.67.1,4.52-5.46,9.74-12.36,7.76-19.88-.06-.23-.37-.19-.52-.13q-8.54,3.45-16.95,7.16c-2.73,1.21-5.46,2.44-8.17,3.69s-5.4,2.36-8,3.75c-1.42.77-3.25,2.17-3.46,3.91-.06.51.08,1.48.61,1.76s2.19-.22,2.9-.35a51.8,51.8,0,0,0,14.66-5.47,149.4,149.4,0,0,0,15.21-9.83c.36-.25-.11-.58-.4-.4-8.29,5.07-18.35,11.74-18.05,22.75.11,3.83,2.22,9.3,6.77,9.5,2.1.09,3.69-1.31,4.76-3a53.89,53.89,0,0,0,3.6-7.36,137,137,0,0,0,6.68-19.05l-.58.27a18.44,18.44,0,0,1,6.43,28.57l.64,0c-5.07-5.73-6.66-13.39-6.91-20.83-.22-6.68-.08-14.1,2.59-20.34,1.45-3.37,3.82-6.27,7.43-7.38.45-.13.31-.66-.14-.52Z" transform="translate(-143.98 -234.73)"/></g><g class="cls-1"><path class="cls-2" d="M360.63,407.32c14.06-1.23,30.59-2.32,41.51,8.47a23.94,23.94,0,0,1,2.7,3.17c.53.74.88,1.15.35,2a9.23,9.23,0,0,1-1.6,1.93,14.23,14.23,0,0,1-8.16,3.35c-6.12.7-12.53-1.19-17.84-4.16a35.14,35.14,0,0,1-14.28-14.92l-.58.3a113,113,0,0,1,24.93,8.24c.2.1.89-.14.57-.36a22,22,0,0,0-15.2-3.68c-.36.05-.59.5-.09.43a21.3,21.3,0,0,1,14.72,3.61l.57-.36A113,113,0,0,0,363.17,407c-.13,0-.7.07-.59.3,5.65,11.38,18.38,20.12,31.37,19.44a18,18,0,0,0,8.22-2.27,11.12,11.12,0,0,0,2.94-2.48c.36-.43,1.2-1.34,1.25-1.92s-.58-1.06-.85-1.44c-4-5.6-10.27-9.15-16.78-10.94-9.11-2.51-18.73-1.65-28-.85-.37,0-.59.48-.09.44Z" transform="translate(-143.98 -234.73)"/></g><g class="cls-1"><path class="cls-2" d="M359.11,410.42c9.34,3.21,17,12.13,17.71,22.15.22,2.84-.26,6-2.15,8.21-2.05,2.44-5.5,3.56-8.31,1.74-2.2-1.42-3.86-3.88-5.23-6.06a33.88,33.88,0,0,1-3.35-7,34.48,34.48,0,0,1-1.33-18l-.7.18a38.26,38.26,0,0,1,11.65,20c0,.2.65-.06.72-.16,3.19-4.76-.44-10.72-3.42-14.61-1.12-1.47-2.74-3-4.68-2-1.72.87-1.81,3.13-2,4.8a19,19,0,0,1-7.91,13.54,12.33,12.33,0,0,1-3.74,1.76c-.79.22-4.47,1-4.51-.28a7.14,7.14,0,0,1,.71-2.1c.22-.63.47-1.26.72-1.88q.84-2.06,1.86-4a49.82,49.82,0,0,1,12.24-15.24c.16-.13-.52-.07-.66,0A50.12,50.12,0,0,0,341,435.42s0,.07.06.08c5.9,1,11.32-2.42,14.52-7.22a19.91,19.91,0,0,0,3.23-9.1,11.07,11.07,0,0,1,.43-2.42c.43-1.29,1.44-2.37,2.92-1.5s2.74,3,3.71,4.52c2.17,3.48,4.11,8.05,1.56,11.84l.72-.16a38.36,38.36,0,0,0-11.69-20c-.12-.1-.67,0-.7.19a34.7,34.7,0,0,0,1.2,17.68,34.29,34.29,0,0,0,3.8,7.85c1.49,2.28,3.37,5.07,6,6.15,4.27,1.79,9-1.6,10.29-5.61,1.81-5.47-.4-12-3.4-16.61a27.1,27.1,0,0,0-13.89-11c-.17-.06-.82.21-.59.29Z" transform="translate(-143.98 -234.73)"/></g><g class="cls-1"><path class="cls-2" d="M391.18,550.4a116.43,116.43,0,0,1-45.11,41.72A114.1,114.1,0,0,1,329.92,599c-.12,0-.38.23-.1.25a20.82,20.82,0,0,0,14.07-4.11c1.45-1.11,3.42-3.27,1.76-5a12.18,12.18,0,0,0-3.5-2c-1.23-.61-2.47-1.2-3.75-1.71-4.41-1.74-9.49-2.36-13.78.08-1.74,1-3.66,2.71-4,4.79-.34,2.27,2.14,4,3.84,5a14.89,14.89,0,0,0,14.11.37s.19-.1.15-.16a10.25,10.25,0,0,0-10.27-4c-.08,0-.61.19-.36.29a25.3,25.3,0,0,0,23.7-2.5l-.63,0c-1.78,3.4-1.87,7.35-3.52,10.78a9.84,9.84,0,0,1-3.32,4,4,4,0,0,1-2.14.81c-.95-.11-.74-.57-.64-1.4s.25-1.63.43-2.44a27.32,27.32,0,0,1,11.73-16.79h-.6c-2.63,3.19-7.73-.34-10.27-2a77.85,77.85,0,0,1-9.23-6.91l-.21.22c8.66-2.78,18.73,1,23.73,8.49l.66-.24-10.34-2.27c-.13,0-.77.21-.63.27a42.11,42.11,0,0,1,9.15,5.88c.16.13.81-.14.68-.25a41.74,41.74,0,0,0-9.15-5.88l-.64.27,10.33,2.27c.09,0,.77-.09.66-.24a22,22,0,0,0-24.71-8.49c-.05,0-.32.13-.21.22a64.63,64.63,0,0,0,12.48,8.86c2.52,1.3,6.26,2.27,8.35-.28.19-.22-.53,0-.61,0a27.51,27.51,0,0,0-12.46,20.94s.11.06.12.06c3,.16,5.44-1.71,6.95-4.18,2.23-3.62,2.16-8.15,4.12-11.9.1-.18-.58,0-.63,0a24,24,0,0,1-22.56,2.25l-.36.29a9.66,9.66,0,0,1,7.08,1.41c.65.43,2.17,1.39,2.3,2.22.07.47,0,.36-.5.56-.31.13-.61.24-.93.35a13.31,13.31,0,0,1-2,.47c-4.28.66-9.46-.82-12.25-4.28-1.81-2.25.2-5,2.13-6.37a11.46,11.46,0,0,1,7.31-2,22.66,22.66,0,0,1,7.92,2.23c1.16.52,2.3,1.09,3.43,1.68s2.38,1.06,2.64,2.33c.55,2.8-3.84,5-5.84,5.9a19.21,19.21,0,0,1-9.4,1.66l-.1.25a117.3,117.3,0,0,0,51.27-34.62,114.94,114.94,0,0,0,10.44-14.27c.07-.1-.6-.06-.71.12Z" transform="translate(-143.98 -234.73)"/></g><g class="cls-1"><path class="cls-2" d="M377.62,571.06a26.79,26.79,0,0,1-15.14,6.43c-5.32.5-11.49-.46-15.94-3.61-2.54-1.79-4.48-5.63-1.74-8.17,2.21-2,6.13-2.36,9-2.69A45,45,0,0,1,373,565l.85.29c.27.09,1.48.39,1.68.69s-1.29,1.15-1.65,1.35a13.05,13.05,0,0,1-5.12,1.45c-3.74.36-7.51-.33-11.26,0-.26,0-.64.4-.18.44l13.86,1,.27-.43-6.11-.16c-.29,0-.76.43-.27.44l6.11.15c.28,0,.77-.4.27-.43l-13.86-1-.18.43c6.29-.54,14,1.8,19-3.25.07-.07.11-.2,0-.25a46,46,0,0,0-17.37-3.41,44.88,44.88,0,0,0-8.42.79c-2.2.42-4.74.9-6.44,2.49a4.87,4.87,0,0,0-.73,6.07c1.23,2.21,3.65,3.49,5.91,4.41a27.48,27.48,0,0,0,14.1,1.74,28,28,0,0,0,14.71-6.59c.32-.28-.4-.31-.59-.14Z" transform="translate(-143.98 -234.73)"/></g><g class="cls-1"><path class="cls-2" d="M381.83,426.44c3.93,3.25,9.13,4.47,13.41,7.19,4.69,3,8.89,6.73,13.17,10.26.17.14.83-.14.67-.27-4.28-3.53-8.47-7.27-13.16-10.25-4.28-2.72-9.49-3.95-13.41-7.19-.17-.14-.84.14-.68.26Z" transform="translate(-143.98 -234.73)"/></g><g class="cls-1"><path class="cls-2" d="M417.47,443.14a24.54,24.54,0,0,1,.34,14.95,23.84,23.84,0,0,1-3.29,6.88c-.15.21-.3.43-.47.64a1.91,1.91,0,0,1-1.55.95c-1,.21-1,.3-1.7-.33a4,4,0,0,1-.47-.53,11.36,11.36,0,0,1-1.73-3.87,52.48,52.48,0,0,1-1.44-8.26L406,444.35l-1.1-8.73c-.09-.73-.24-1.49-.27-2.22a2.57,2.57,0,0,1,.06-.83l.16-.45,1.07.22c.44.23.95,1.11,1.25,1.5s.79,1.08,1.15,1.64a26.8,26.8,0,0,1,4.16,16.78l.72-.14a74.89,74.89,0,0,0-2-13.47l-.69.24c7.24,7.75,15.15,16.06,25.91,18.48,1.86.42,4,.86,5.86.24s2.37-2.32,1.44-4.15a27,27,0,0,0-9.82-10.17c-5.27-3.36-11.27-5.31-17.16-7.24a.53.53,0,0,0-.59.24,2.31,2.31,0,0,1-2.92,1.63c-.13,0-.67.07-.58.3,1.09,2.84,4.56,3.27,7.11,4.06a32,32,0,0,1,10.87,5.87c.18.14.87,0,.68-.29-4.85-6.71-13.25-9.13-20.92-11l-.36.42c8,.62,17.08.72,23.79-4.32,1-.73,3-2.13,1.76-3.49s-3.81-1.22-5.41-1.25c-4.9-.06-9.67,1.35-14.25,2.94-4.32,1.5-9.41,2.92-12.15,6.87-.14.19.18.22.29.22A35.38,35.38,0,0,0,417,435c.29-.14.25-.43-.1-.37a80.7,80.7,0,0,0-12.21,3.22c-.47.16,0,.43.29.31a79.4,79.4,0,0,1,11.82-3.11l-.09-.37a34.16,34.16,0,0,1-12.55,3.16l.29.22c2.18-3.14,5.87-4.45,9.32-5.7a56.87,56.87,0,0,1,13-3.54,19.62,19.62,0,0,1,6.62.17c1,.23,2.18.87,1.74,2-.36.93-1.68,1.72-2.49,2.27a23.32,23.32,0,0,1-10.23,3.54,59.37,59.37,0,0,1-12.07,0c-.2,0-.77.32-.36.42,7.59,1.84,15.89,4.22,20.68,10.87l.68-.29a32.83,32.83,0,0,0-9.43-5.42c-2.75-1-7.29-1.26-8.51-4.41l-.58.3a3.29,3.29,0,0,0,4.09-2.12l-.58.24c8.88,2.91,18.43,6.13,24.45,13.75,1.12,1.43,4,4.85,2.22,6.54s-5.21.49-7.14,0A36.35,36.35,0,0,1,423,450a105.56,105.56,0,0,1-11.85-11.41c-.15-.16-.77,0-.7.24a76.47,76.47,0,0,1,2,13.46c0,.25.7.09.72-.14a27.06,27.06,0,0,0-4.43-17.31c-.72-1.09-2.71-4.63-4.4-3-.65.63-.47,1.72-.37,2.51.23,1.94.48,3.88.72,5.82l1.4,11.16a71.13,71.13,0,0,0,1.68,10.47c.56,1.95,1.67,5.64,4.31,5.54,2.32-.09,3.82-3.34,4.71-5.07A24.86,24.86,0,0,0,418.2,443c-.1-.27-.82-.06-.73.19Z" transform="translate(-143.98 -234.73)"/></g><g class="cls-1"><path class="cls-2" d="M323,538.47a83.61,83.61,0,0,1-21.34,18.42c-.42.25.23.3.44.17a84.6,84.6,0,0,0,21.57-18.6c.18-.22-.54-.16-.67,0Z" transform="translate(-143.98 -234.73)"/></g><g class="cls-1"><path class="cls-2" d="M301.21,560.32a43,43,0,0,1-36.3,19.89l.34.25a21.79,21.79,0,0,1,11.14-16.69,61.91,61.91,0,0,1,10.77-4.39,29.49,29.49,0,0,1,12.23-1.73l-.22-.32c-3.42,7.39-12.22,9.66-19.49,11.28l.38.37c4-4.72,10.53-5.55,15.91-7.9a22.07,22.07,0,0,0,3.61-2,32.12,32.12,0,0,0,3.39-3c1.63-1.5,3.59-2.52,5.64-1a8.25,8.25,0,0,1,2.84,4.43,10.82,10.82,0,0,1-2.56,10.4l.64,0a20.12,20.12,0,0,1-2-7,33.17,33.17,0,0,1-.4-7.31c.51-5.19,5.64-6.06,9.94-6.3l0-.53a117.83,117.83,0,0,1-12.54,1.9q-3,.3-6,.43c-1,0-1.93.07-2.89.09s-2.54.23-3.15-.8c-1.16-2,2.73-3.36,3.94-3.77a34.51,34.51,0,0,1,6.09-1.5,36,36,0,0,1,5.68-.42c1.88,0,4.24,0,6,.67a3,3,0,0,1,1.35.94c.56.84,0,1-.77,1-1.15,0-2.31.08-3.46.1-2.4,0-4.79,0-7.18,0-.42,0-.55.54-.06.55q5.94.14,11.88-.14a.44.44,0,0,0,.38-.23c1.55-3.1-5.2-3.34-6.63-3.4a36.84,36.84,0,0,0-12.13,1.49,12.54,12.54,0,0,0-4.81,2.15c-.77.69-1.58,1.8-1,2.86s2.19,1.07,3.32,1.06q3.5,0,7-.32a118.91,118.91,0,0,0,15.14-2.15c.37-.08.38-.55,0-.53-3.93.21-9.09.9-10.43,5.3-.77,2.5-.28,5.43,0,8a21.83,21.83,0,0,0,2.23,8.23c.12.24.5.09.63,0a11.29,11.29,0,0,0,3-9.27c-.39-3-2.36-7-5.8-7.11a5.84,5.84,0,0,0-3.94,1.78,34.62,34.62,0,0,1-4.18,3.56c-3.05,1.92-6.58,2.86-9.94,4.06s-6.8,2.74-9.2,5.58c-.22.27.16.43.38.38,7.5-1.68,16.52-4.09,20-11.71.08-.16-.07-.3-.22-.31A30.33,30.33,0,0,0,287,558.87a59.45,59.45,0,0,0-11.35,4.67,22.41,22.41,0,0,0-11.15,17c0,.19.19.25.34.25a43.93,43.93,0,0,0,37.05-20.35c.21-.34-.53-.37-.7-.09Z" transform="translate(-143.98 -234.73)"/></g></svg>