<svg id="Lager_1" data-name="Lager 1" xmlns="http://www.w3.org/2000/svg" viewBox="0 0 503.13 386.37"><defs><style>.cls-1{opacity:0.48;}.cls-2{fill:#fff;}</style></defs><g class="cls-1"><path class="cls-2" d="M420.33,370.72c-1.31,3.25-6,3.85-6.74,7.48-.35,1.74.83,2.85,1.89,4a10.64,10.64,0,0,1,2.15,3.62c1.93,5.54-.38,12.52-5.79,15.14l.4.39a16.9,16.9,0,0,1,9.84-4.19c2.29-.18,4.39-.51,5.44-2.81,1-2.13.71-4.72.17-6.93a46,46,0,0,0-3.46-9.37c-1.22-2.44-2.65-5.57-5.21-6.86s-5.78-.22-8.33.36c-4.88,1.12-10.66,4-10.49,9.88.19,6.52,8.56,5.55,11.25,10.14.08.15.37.13.49.06a11,11,0,0,0,5.19-6.89c0-.13-.14-.24-.25-.24a2.55,2.55,0,0,0-2.45,1.7c-.81,1.61-1.1,3.61-3,4.29-3.92,1.4-8.32-2.22-11.1-4.51a46,46,0,0,1-9.18-10.25,6.05,6.05,0,0,1-1.35-3.62,4.78,4.78,0,0,1,1.87-3.18,12.88,12.88,0,0,1,6.21-2.52,17.3,17.3,0,0,1,13.75,3.89l.49-.46-5-2.45c-1.5-.74-3.38-1.35-4.62-2.48-1.84-1.66.17-3.06,1.87-3.29a21.65,21.65,0,0,1,4.48,0c3.09.22,6.46.8,8.87,2.9s3.7,5.2,2.48,8.14c-.12.3.32.39.51.27,4.52-2.7,10.54-.83,15.12.87,4,1.5,8.4,4,9.59,8.46.8,3,0,6.2-.66,9.17s-1.23,5.77-1.9,8.64c-.38,1.63-1.07,3.61-3.19,2.76a4.24,4.24,0,0,1-2.26-3.34c-.54-2.62-.68-5.31-1.24-7.94a61.84,61.84,0,0,0-6.53-17.29c-.13-.24-.71-.09-.7.18.15,5.36,4.21,9.27,6.29,13.93a11.35,11.35,0,0,1,.55,8.43,14.21,14.21,0,0,1-5.51,7,21.39,21.39,0,0,1-9.49,3.19c-3,.33-7.33,1-9.2-1.89-1.24-1.93-1.46-4.34-2.44-6.38-1.17-2.43-3.44-3.46-5.51-5a5.33,5.33,0,0,1-2.38-3.62c-.28-2,1-3.58,3.16-2.8a9.39,9.39,0,0,1,5.9,8l.29-.35c-4.47,1.52-6.93-4.23-9.62-6.6-2.47-2.17-5.79-2.82-8.66-4.27a11,11,0,0,1-3.92-3.41c-.73-.95-1.55-2.1-2.79-2.41a2.67,2.67,0,0,0-2.85,1.15,4,4,0,0,0-.06,3.95,26.25,26.25,0,0,0,3.49,4.78c1.37,1.68,2.79,3.33,4.25,4.93a120.87,120.87,0,0,0,8.66,8.58c2.94,2.62,6,5.44,9.54,7.25,3.71,1.91,7.65,1.75,11.63.88s8.3-2.08,11.44-4.89c2.72-2.44,4.39-6.17,3.47-9.81-.09-.35-.81-.16-.72.19.9,3.57-.8,7.21-3.52,9.52s-6.39,3.45-9.87,4.27c-4.31,1-8.5,1.32-12.5-.92a51.26,51.26,0,0,1-8.58-6.62,114.37,114.37,0,0,1-15.22-16.35c-1.08-1.41-2.38-3.21-1.63-5.07,1.16-2.86,3.52-.52,4.59.9a13.91,13.91,0,0,0,6.4,4.56,31.19,31.19,0,0,1,4.73,2.09,15.44,15.44,0,0,1,4.05,4c1.87,2.37,4.54,5,7.83,3.84.16-.05.31-.16.29-.35a10,10,0,0,0-4.76-7.6c-1.88-1.11-4.92-1.66-5.67,1.06s1.1,4.68,3.08,6a15.7,15.7,0,0,1,4,3.14,12.94,12.94,0,0,1,1.78,4.1c.74,2.39,1.6,5,4.32,5.7a17.69,17.69,0,0,0,5.24.16,29.6,29.6,0,0,0,5.3-.78c6.14-1.51,12.16-6.07,12.75-12.81.66-7.57-7.2-12.37-7.4-19.72l-.7.19a61.43,61.43,0,0,1,6.81,18.93c.29,1.6.48,3.2.68,4.8a7.75,7.75,0,0,0,1.18,3.76c1,1.38,3.22,2.13,4.64.91a5.16,5.16,0,0,0,1.3-3c.42-1.75.81-3.51,1.19-5.27.73-3.35,1.8-6.89,1.69-10.34-.17-5.2-4.14-8.5-8.59-10.45a37.69,37.69,0,0,0-8.65-2.6c-3-.53-6.16-.48-8.85,1.13l.51.27c1.3-3.14-.17-6.55-2.62-8.66-3.05-2.64-7.42-3-11.27-3.11-1.75-.06-6.76,0-5.91,3.09.41,1.53,2.42,2.19,3.67,2.8l6.91,3.41c.26.12.8-.2.49-.46a17.9,17.9,0,0,0-12.38-4.19c-3.66.16-9.29,1.56-10.57,5.56-.71,2.24.85,4.27,2.06,6a46.23,46.23,0,0,0,5,6c3.11,3.13,7,6.72,11.37,7.75a6.11,6.11,0,0,0,5.06-.64,5.35,5.35,0,0,0,1.6-2.28c.41-1,.88-3.12,2.27-3.07l-.25-.25a10.2,10.2,0,0,1-4.77,6.39l.49.06c-2.2-3.75-7.41-3.45-10-6.7-1.66-2.06-1.35-4.93-.12-7.12,1.45-2.6,4.15-4,6.91-4.85a36.72,36.72,0,0,1,3.73-.88c1.74-.34,3.7-.88,5.43-.25,2.59.93,4,4.07,5.22,6.34a44.8,44.8,0,0,1,3.36,8.55c.66,2.36,1.22,5,.42,7.38a3.85,3.85,0,0,1-3.25,2.78c-1.4.2-2.81.19-4.2.5a17.77,17.77,0,0,0-7.83,4c-.34.29.1.54.4.39,5-2.43,7.58-8.35,6.7-13.76a11.77,11.77,0,0,0-1.32-3.83c-.82-1.46-2.35-2.48-3-4-1.08-2.43,1.45-4.33,3.19-5.54a8.29,8.29,0,0,0,3.31-3.51c.16-.4-.57-.41-.69-.1Z" transform="translate(35.88 -289.79)"/></g><g class="cls-1"><path class="cls-2" d="M398,303.74c1.17-.55,2.61-1.23,3.86-.5a2.92,2.92,0,0,1,1.21,1.57,4.2,4.2,0,0,1-.8,4.13c-1.85,2.19-9.6,5.54-10.85,1.3-.52-1.77,1.21-3.12,2.84-3.05a2.47,2.47,0,0,1,1.29.39c.21.14.37.43.58.53.41.2,1-.05,1.46-.13,2.23-.4,5.37-2.11,4.18-4.87a.32.32,0,0,0-.33-.17,6.08,6.08,0,0,0-2.63.71c-1.48.67-2.74,1.48-4-.1s-2.88-1.25-4.27,0a16.72,16.72,0,0,0-4.08,6.49,7.4,7.4,0,0,0,.37,6.17c2.64,4.35,8.61,2.12,12.29.79,2.63-.95,5.37-1.78,7.9-3a8.91,8.91,0,0,0,4.57-4,7.88,7.88,0,0,0-2.89-9.47,7.41,7.41,0,0,0-5.84-.73,13.77,13.77,0,0,0-3.19,1.29c-1.1.61-3.85,3.19-4.7,1.43-.41-.87-.3-1.92-.68-2.81a5.33,5.33,0,0,0-1.65-2.11,7.21,7.21,0,0,0-5.25-1.44c-4.34.54-7.06,4.86-7.73,8.85-.57,3.39,0,6.9.5,10.26.36,2.28,1.11,4.39,3.36,5.37,3.68,1.61,9.74-.69,12.26,3.15.13.2.5.09.63-.06,1.52-1.74,3.5-1.2,5,.13a3.42,3.42,0,0,0,3.22.92,26.1,26.1,0,0,0,8.59-3.94c4.54-3,9.74-8,8.69-14a10.71,10.71,0,0,0-3.74-6.34c-2.1-1.74-4.39-2.13-7-2.29-1.47-.08-3.24-.17-4.22-1.45-.85-1.11-.74-2.69-1.46-3.89a7,7,0,0,0-5.35-3.08c-6.52-.72-10.44,5.32-13,10.38-.18.37.55.37.69.09,2.42-4.77,6.14-10.82,12.38-9.9a6,6,0,0,1,5.23,4.4,4.9,4.9,0,0,0,1.33,2.82,5.26,5.26,0,0,0,2.78,1c2.62.36,5,.15,7.3,1.7a10.36,10.36,0,0,1,4.32,6.38c1.28,6.13-4.26,11.16-8.92,14.11a29.61,29.61,0,0,1-4.79,2.45,14.45,14.45,0,0,1-2.87,1c-1.42.24-2-.37-3-1.2a4.08,4.08,0,0,0-5.76.46l.63-.05c-1.72-2.63-5.19-2.47-8-2.57a10.79,10.79,0,0,1-5.05-1c-2-1.18-2.35-3.54-2.67-5.66-.74-4.95-1.35-10.6,2-14.77a6.9,6.9,0,0,1,6-2.77,5.83,5.83,0,0,1,4.82,3.35c.46,1.16.16,3.31,1.67,3.75a2.34,2.34,0,0,0,1.87-.44c1.08-.66,2.06-1.44,3.2-2,2.25-1.16,5.05-1.87,7.4-.59a7.2,7.2,0,0,1,3.25,4,7,7,0,0,1-.06,5c-.92,2.14-3.08,3.35-5.14,4.2-2.46,1-5,1.85-7.51,2.76-2.16.78-4.48,1.64-6.83,1.46a5.15,5.15,0,0,1-4.78-5.4c0-2.83,1.62-5.34,3.19-7.57.89-1.28,2.68-3.3,4.15-1.54.53.64.92,1.2,1.79,1.33,2,.29,3.57-1.59,5.51-1.58l-.33-.17a2.63,2.63,0,0,1-.58,2.88,5.26,5.26,0,0,1-3.61,1.4c-.45-.08-.73-.45-1.16-.64a3.56,3.56,0,0,0-1.58-.29c-2,.09-4.31,1.94-3.27,4.13,1.5,3.18,5.89,1.78,8.33.81s5.07-2.85,4.85-5.82a3.64,3.64,0,0,0-1.84-3.08c-1.48-.72-3.12,0-4.5.62-.44.21-.05.6.32.43Z" transform="translate(35.88 -289.79)"/></g><g class="cls-1"><path class="cls-2" d="M381.47,300.07a5.66,5.66,0,0,0-5.74.88c-2.05,1.53-3,4.06-3.61,6.44-1.47,5.27-3.19,11.73.5,16.51a7.6,7.6,0,0,0,5.52,3.08c1.67.09,3.29-.21,4.84.59a23.86,23.86,0,0,0,3.11,1.76,3.17,3.17,0,0,0,2.23,0,5.32,5.32,0,0,0,1.29-.82,3.5,3.5,0,0,1,3.64-.41c2.73,1,5.27,2.61,8.21,2.95,2.26.27,4.91-.2,6.41-2.07a4.36,4.36,0,0,0-.07-5.83c-.23-.21-.91.08-.66.32a4,4,0,0,1-.07,5.55c-1.83,2-5.05,1.8-7.41,1.07s-4.45-2.08-6.8-2.73a3.86,3.86,0,0,0-2.33,0c-1.08.38-1.79,1.57-3,1.69-1.95.18-3.64-2-5.52-2.44a12.16,12.16,0,0,0-2.83-.12,6.83,6.83,0,0,1-4-1.05c-4.22-2.76-4.52-8.25-3.68-12.73a36,36,0,0,1,2.38-8.48c1.25-2.63,4.07-5.07,7.11-3.67.29.13.84-.29.42-.48Z" transform="translate(35.88 -289.79)"/></g><g class="cls-1"><path class="cls-2" d="M425.65,338.66c.77-5.92-2-11.76-6.36-15.66-4.8-4.28-11.25-6.17-17.54-6.74-.19,0-.64.17-.46.42a6.23,6.23,0,0,0,3.61,2.12c1.45.42,3.42.63,4.48,1.83,1.71,2-.76,4.89-1.61,6.75a29.93,29.93,0,0,0-2.21,7.17c-.56,3.14-.91,8.22,3.06,9.27,2.38.62,5.24-.1,7.63-.33l4.09-.4a19.15,19.15,0,0,0,3.71-.4c2.33-.71,0-2.94-.92-3.78l-7.44-6.77c-.21-.19-.78.06-.61.37,1.69,3,3.59,6.32,6.82,7.85a7.45,7.45,0,0,0,7.42-.42c3-2.23,1.88-6.29,2.38-9.48a17.34,17.34,0,0,1,6-10c3.62-3.18,8.09-5.17,12.44-7.12l-.51-.25c-1.95,3.43-1.4,7.4-1.16,11.17a20,20,0,0,1-.29,6.08,14.69,14.69,0,0,1-3.7,6.06,76.27,76.27,0,0,1-10.41,9.76c-1.83,1.42-4.47,3.26-6.7,1.52a2.42,2.42,0,0,1-1-1.4c0-.63.59-.93,1-1.26q1.35-1,2.64-2.16a60.35,60.35,0,0,0,9.88-11c.22-.33-.23-.43-.47-.32a36.32,36.32,0,0,0-7.84,4.56,13.54,13.54,0,0,0-4.55,7.1,9,9,0,0,1-2.62,4.75,10.93,10.93,0,0,1-4.22,2.09c-3.08.85-6.24.71-9.39.88-3.37.18-6.81.76-9.47,3-.22.18-.09.48.21.43q12.15-2.06,24.24-4.49l-.41-.29c-2.49,6.63-8.54,11.22-15.23,13.09-8.34,2.33-17.22.47-25.16-2.46l0,.46c6.18-2.41,11.08-6.94,16.47-10.64,5.67-3.9,13-7.09,19.84-4.32.3.12.84-.32.41-.49-6.26-2.55-13.14-.24-18.63,3.11-6.26,3.82-11.49,9.21-18.41,11.91-.21.08-.3.37,0,.46,8.22,3,17.45,4.9,26.06,2.36,6.76-2,12.92-6.66,15.44-13.4.1-.27-.22-.33-.41-.29q-12,2.43-24.05,4.46l.21.43c5.07-4.28,12.38-2.09,18.34-3.67a10.48,10.48,0,0,0,6.21-3.93c1-1.44,1.22-3.12,1.76-4.73a11.41,11.41,0,0,1,2.45-4.08c2.48-2.7,5.9-4.35,9.17-5.88l-.46-.32a59.23,59.23,0,0,1-10.56,11.57,26.36,26.36,0,0,0-2.85,2.25c-.45.49-.33,1,0,1.64a4,4,0,0,0,4.06,1.76c2.23-.33,4.09-2,5.78-3.35,1.94-1.58,3.81-3.24,5.59-5,3.38-3.32,7.29-6.95,7.83-11.91s-1.57-10.71,1.13-15.45c.17-.3-.35-.33-.51-.25-6.3,2.82-13,5.93-16.73,12a15.92,15.92,0,0,0-1.84,4.28,22.89,22.89,0,0,0-.44,5.35c-.05,1.87-.35,3.87-2,5.06a6.06,6.06,0,0,1-4.73.86c-4.13-.8-6.46-4.93-8.36-8.28l-.61.37,5.62,5.12a35.12,35.12,0,0,1,2.91,2.68c.6.68,1.07,1.52-.15,1.9a9.4,9.4,0,0,1-1.92.19l-7.44.72c-2.26.21-5.33,1-7-1-1.17-1.41-1.31-3.49-1.18-5.23a27,27,0,0,1,1.45-6.82c.74-2.17,1.91-4.06,2.83-6.14a3.31,3.31,0,0,0-.36-3.82c-2.15-2.16-6.07-1.18-7.93-3.78l-.46.42c6.07.55,12.23,2.34,16.94,6.37,4.44,3.81,7.24,9.66,6.48,15.55-.05.37.69.27.73,0Z" transform="translate(35.88 -289.79)"/></g><g class="cls-1"><path class="cls-2" d="M405.18,488.93c-4-1.42-9.16-.25-11.45,3.57-.09.15.07.24.2.24l7,.11c1.35,0,3.23.36,4.48-.37s.65-2.1.05-3.12a9,9,0,0,0-3.73-3.84,4.74,4.74,0,0,0-3.85-.16,5.69,5.69,0,0,0-1.5,1.13,4,4,0,0,1-1.29,1,3.67,3.67,0,0,1-2.66-.27c-1.61-.67-4.78-2.12-3.59-4.36s4.61-1.52,6.69-1.31c4.12.42,8.57.87,12.38-1.11l-.48,0,3.32,5.63.56-.35a40.89,40.89,0,0,0-11.08-1.07,37.7,37.7,0,0,0-5.71.67c-1.28.25-2.85.45-3.76,1.49A10,10,0,0,0,389,491a5.73,5.73,0,0,0,.56,4.08,4.88,4.88,0,0,0,3.48,2.29c1.81.35,3.57.69,5.37,1.12,2.23.54,6.5.63,6.77-2.56,0-.32-.7-.18-.73.08-.19,2.25-2.83,2.58-4.61,2.28-1.63-.28-3.18-.86-4.82-1.11-1.8-.28-3.53-.48-4.62-2.12a5.76,5.76,0,0,1-.48-4.91,13.74,13.74,0,0,1,1-2.45,3.47,3.47,0,0,1,2.66-1.77,34.28,34.28,0,0,1,5.53-.8,39.3,39.3,0,0,1,11.79,1c.17,0,.71-.09.55-.36l-3.32-5.63c-.08-.14-.39-.07-.49,0-3.69,1.92-8,1.39-12,1-2.34-.24-7.12-.89-7.71,2.48-.25,1.47,1,2.48,2.16,3.13a7.72,7.72,0,0,0,4.33,1.38c1.47-.15,2.14-1.26,3.24-2.07,2.17-1.6,4.84.35,6.17,2.11a8.7,8.7,0,0,1,1.6,2.76c.31,1.2-.95,1.53-1.86,1.54-.56,0-1.12,0-1.68,0l-7.68-.12.2.23c2.1-3.5,6.64-4.48,10.33-3.18.25.09.85-.27.44-.42Z" transform="translate(35.88 -289.79)"/></g><g class="cls-1"><path class="cls-2" d="M407.63,491.9a4.3,4.3,0,0,1,.8-4.5,4.89,4.89,0,0,1,2.15-1.46c.6-.19,1.93-.56,2.3.09a4,4,0,0,1-.15,2.18,7.12,7.12,0,0,1-1.2,2.3,16.06,16.06,0,0,1-3.45,3.18c-2.5,1.82-5.21,3.26-7.08,5.81-1.62,2.2-2.24,4.8-.74,7.22.12.2.51.07.63-.06a27,27,0,0,1,9.1-6.48,29.79,29.79,0,0,1,5.32-1.73c1.48-.33,3.28-.34,4.6-1.19,2-1.31,1.3-4-.16-5.43-2.3-2.32-6-1.94-9-1.58l.12.45a11.32,11.32,0,0,0,5.19-3.86,10,10,0,0,0,1.43-2.73c.26-.77.63-3.65,2.06-3l.42-.47a54.23,54.23,0,0,1-21-10.36c-.52-.41-2.25-1.5-1.81-2.2s2-.84,2.69-.88a13,13,0,0,1,5.48,1.13c3.87,1.53,7.44,3.91,11,6,1.77,1,3.78,1.9,5.18,3.43a2.83,2.83,0,0,1,1,2.31c-.32,1.42-2.51,1.21-3.59,1.09a25.06,25.06,0,0,1-9.69-3.72c-5.43-3.18-11.1-7.77-17.7-7.88-3.06-.06-6.16,1.06-7.14,4.22a52.85,52.85,0,0,0-1.25,7l-1.26,7.72c0,.13.12.22.23.22,5.07.19,6.68-5.15,8.92-8.68a10.28,10.28,0,0,1,2.6-3c1.21-.88,4-1.64,4.68.29.59,1.61-1.52,4.27-2.46,5.43a18.07,18.07,0,0,1-3.81,3.49,20.28,20.28,0,0,1-12.4,3.4.5.5,0,0,0-.47.22c-1.49,3.12,1.51,6.1,3.49,8.18a59.68,59.68,0,0,1,4,4.66,23.72,23.72,0,0,0,4.17,4.55c2.26,1.72,6,3.18,8.57,1.29a3.79,3.79,0,0,0,.33-6.09c-.2-.15-.83.08-.61.36a7.62,7.62,0,0,1-1.82,10.6c-4.49,3.28-9.91-.07-13.29-3.34-4.22-4.09-7.91-8.81-11.77-13.22-1.75-2-4-4.23-4.42-7s1.82-4.21,4.14-5c1.91-.62,4-1,5.64-2.26,1.14-.85,1.93-2.16,3.15-2.91s3.44-.67,3.94,1l.57-.33c-2.84-.84-5.42.46-7.67,2.13-2.7,2-6.61,5.43-10.06,2.84-2.65-2-1.91-5.81-1.41-8.6.64-3.55,1.58-7.46,4.61-9.74a8.15,8.15,0,0,1,5.09-1.7c2,.07,3.62,1.17,5.32,2.14,1.86,1.07,4.29,1.89,6.14.3,2.3-2-1.21-3.74-2.29-5.09a6.39,6.39,0,0,1-.37-7c4.23-8.06,15.18-3.06,20.62.68l.22-.44a62.92,62.92,0,0,0-17.65,6.89c-.36.21-.15.53.22.44,8-2,16.57-4.15,24.68-1.61a22.16,22.16,0,0,1,8.68,5,15.42,15.42,0,0,1,2.78,3.51,7.7,7.7,0,0,1,1,2.25c.16,1-1.13,1.58-1.83,2.15-.06,0-.17.15-.13.25a6.67,6.67,0,0,1-5.13,9.13c-.38.06-.58.56-.07.51a9.72,9.72,0,0,0,5.58-2.95c1.8-1.69,3.52-4,6-4.68,3.53-1,6.56,1.8,8.18,4.64,1.88,3.29,3.05,7.94,1.2,11.49a7,7,0,0,1-4.67,3.49,5.54,5.54,0,0,1-3.25-.15c-1-.5-1.93-2.08-2.66-2.94-.17-.2-.78-.06-.7.25a66.65,66.65,0,0,0,3.92,10.68l.57-.33a8.23,8.23,0,0,0-7.09.09,6.21,6.21,0,0,0-2.37,2.06c-1.05,1.57-1.49,3.09-3.38,3.88a19.13,19.13,0,0,1-5.17,1.18,7.09,7.09,0,0,1-5.34-1.2c-2.37-1.91-2.52-5.31-2.46-8.1l-.58.26c7,2.42,14.25-1.61,17.52-7.91a35.34,35.34,0,0,0,3.25-11.3c.53-3.61.35-7.49-2.39-10.22s-6.75-3.59-9-6.68c-.94-1.29-1.8-3.24-1.08-4.82,1-2.25,4.54-1.68,6.54-1.61,4.38.15,9.24.73,12.39,4.12a7.34,7.34,0,0,1,2.23,5.1c-.09,1.93-1.46,3.4-2.27,5.07-.69,1.43-.76,2.93.48,4.08a13.37,13.37,0,0,0,2.64,1.6,8.85,8.85,0,0,1,2.44,2c2.6,3.06,3,7.39,3.18,11.24,0,.37.57.21.71,0A19,19,0,0,1,458,484.44c.13,0,.47-.15.4-.34a15.93,15.93,0,0,0-8.43-8.66l.09.33c2-2.51-.34-5.77-1.86-7.88-1.94-2.69-4-5.4-6.87-7.2-3.64-2.3-10.84-3-12.49,2.19l.65-.23c-6.11-5-7.05-13.49-11.86-19.46-1.54-1.91-4.89-5.29-7.52-3.74s-2.32,5.39-3.42,7.78c-1,2.08-2.81,2.57-4.8,3.33-1.37.53-2.87,1.26-2.71,2.95l.73-.19c-.56-5.62-8.95-7-12.76-4-2.68,2.13-3.66,5.61-3.65,8.91,0,2.56.43,7.33,3.88,7.42.33,0,.74-.49.26-.5-3.25-.08-3.46-5.22-3.4-7.52.09-3,1-6.09,3.39-8,3.54-2.83,11.05-1.17,11.55,3.88,0,.31.76.14.73-.19-.19-1.87,2.32-2.35,3.65-2.85a6.44,6.44,0,0,0,3.21-2.11c1.68-2.35,1.19-5.75,3-7.95,2.35-2.78,6.69,2.33,8,4.22,2,2.9,3.27,6.22,4.77,9.39,1.6,3.36,3.45,6.63,6.36,9a.47.47,0,0,0,.65-.24c.75-2.36,3.22-3.32,5.52-3.39A10.79,10.79,0,0,1,442,462a29,29,0,0,1,5.27,5.89c1.41,2,4.07,5.3,2.15,7.7-.11.13-.06.26.09.33a15.43,15.43,0,0,1,8.12,8.38l.4-.35a20,20,0,0,0-16.25,8.69h.71c-.14-3.26-.44-6.65-2-9.59a9.79,9.79,0,0,0-3.06-3.52c-1.57-1.09-4.41-1.74-4.22-4.15.15-1.94,1.84-3.46,2.48-5.24a5.7,5.7,0,0,0-.27-4.27c-1.54-3.48-5.06-5.44-8.63-6.23a32.09,32.09,0,0,0-6.11-.65c-1.74-.06-3.74-.3-5.39.37-3,1.2-2.39,4.57-.88,6.74,2.23,3.21,6.38,4.14,9.08,6.82,3.22,3.19,2.76,7.83,2,11.91-.87,4.66-2.24,9.55-5.58,13.1a13.2,13.2,0,0,1-13.71,3.65c-.17-.06-.58,0-.58.26-.06,2.62.05,5.62,1.85,7.71,2,2.29,5.14,2.33,7.91,1.84a18.75,18.75,0,0,0,4.6-1.24,5.79,5.79,0,0,0,2.68-2.76,6.27,6.27,0,0,1,3.88-3.49,7.47,7.47,0,0,1,5.2.43c.16.08.69-.08.57-.33a66.26,66.26,0,0,1-3.91-10.68l-.7.26L429,495a8.52,8.52,0,0,0,1.22,1.45,4.42,4.42,0,0,0,2,.5,7.79,7.79,0,0,0,4.66-1.09c3.39-2,4.27-5.92,3.57-9.6s-2.67-7.75-6.1-9.52a6.93,6.93,0,0,0-7.63,1c-2.71,2.13-4.82,5.68-8.54,6.06l-.07.51a7.56,7.56,0,0,0,5.66-3.92,7,7,0,0,0,.81-3.68c0-.56-.22-1.07-.3-1.62-.15-1,1.06-1.52,1.78-2.11.08-.06.16-.15.13-.25-1.76-6.25-7.86-10.28-13.84-11.91-8.06-2.19-16.48-.14-24.34,1.87l.22.43a62,62,0,0,1,17.45-6.82c.17,0,.45-.28.22-.44-5-3.41-12.79-7.31-18.67-3.74a8.6,8.6,0,0,0-4,5.74,6.46,6.46,0,0,0,2.7,6.39c.72.59,1.73,1.35,1.4,2.41s-1.64,1.41-2.58,1.37c-2-.08-3.71-1.69-5.46-2.52a8.47,8.47,0,0,0-8,.48c-2.94,1.73-4.42,4.81-5.22,8-.72,2.87-1.73,6.65-.58,9.54,1.28,3.22,4.91,3.57,7.77,2.4,3.89-1.59,7-6.59,11.7-5.22.18.06.66-.05.57-.33-.55-1.79-2.95-2.07-4.47-1.43a10.64,10.64,0,0,0-3,2.56,9.45,9.45,0,0,1-4,2.16c-2,.63-4.41,1.08-5.88,2.71-1.86,2.07-.88,4.82.45,6.88,2,3.09,4.81,5.78,7.23,8.55s4.63,5.49,7.16,8c3.46,3.46,8.7,7,13.68,4.47,4.34-2.18,6.18-7.93,3.18-11.93l-.61.35c2.4,1.82,1,5.6-1.83,6-3.44.46-6.5-2.13-8.54-4.58s-3.82-4.72-5.92-7c-1.76-1.88-4.38-4.6-3.06-7.37l-.48.22c7.36.35,15.13-3.06,18.76-9.71.69-1.27,1.66-3.15.19-4.24a4.07,4.07,0,0,0-3.69-.3c-2.55.94-4.08,3.52-5.31,5.77-1.55,2.8-3.18,6.65-7,6.51l.24.22,1.89-11.58c.29-1.74.44-3.75,1.72-5.09a6.58,6.58,0,0,1,4.61-1.69c6-.18,11.41,3.87,16.27,6.84a40.18,40.18,0,0,0,7.42,3.78c2.08.74,5.1,1.63,7.28.82,2.45-.91,1.24-3.33-.17-4.61a21.41,21.41,0,0,0-3.87-2.48l-5.06-2.88c-4.36-2.48-12-7.6-16.71-3.14a.2.2,0,0,0,0,.26,54.92,54.92,0,0,0,23.61,12.5c.27.07.86-.28.42-.47-2-.87-2.68,1.78-3.09,3.16a10.22,10.22,0,0,1-6.32,6.53c-.33.13-.22.49.12.45,3.09-.38,7.12-.76,9.07,2.25.84,1.3,1.09,3.18-.5,4.05-1.29.71-3.07.69-4.5,1a28.54,28.54,0,0,0-14.49,8.39l.63-.06c-3.16-5.13,3.14-9.32,6.74-11.78,3.06-2.1,6.59-5,5.88-9.14,0-.1-.14-.13-.23-.15-3.79-.75-8,2.8-6.4,6.76.12.31.84.1.72-.2Z" transform="translate(35.88 -289.79)"/></g><g class="cls-1"><path class="cls-2" d="M371.61,498.09c-1.53,0-4,.74-4.48,2.49-.21.82.76,1.85,1.24,2.52a25.53,25.53,0,0,0,2.63,3.15,27,27,0,0,0,6.4,4.8c2.14,1.16,4.56,2.05,6.35,3.75,2,1.92,1.7,4.11,1.56,6.65-.1,1.95.43,3.7,2.53,4.23a14.07,14.07,0,0,0,3.89.12q2.13-.1,4.26-.39a40.53,40.53,0,0,0,8.55-2c2.14-.8,3.81-2.38,2.22-4.61a45.34,45.34,0,0,0-3.41-3.8l-4-4.34-.55.35c3.62.89,5.76,4.86,9.58,5.21,2.06.19,4.89-1.64,3.47-3.92-.12-.19-.77,0-.7.24A9,9,0,0,1,404,523.64c-.11,0-.41.09-.41.25,0,1.68,2,2,3.31,1.88,2.19-.17,5.18-3.06,7-.93.15.17.58,0,.68-.13a60.78,60.78,0,0,0,6.27-17.52c.06-.31-.65-.15-.73.08L416,519.91l-2.11,6.32c-.41,1.23-1.26,3.07.31,3.83a4.47,4.47,0,0,0,3.33-.19,20.33,20.33,0,0,0,4.24-2.14c2.81-1.82,5.26-4.13,8-6.08a23.22,23.22,0,0,1,10.3-4.07c3.46-.53,7-.69,10.4-1.44,2.88-.62,6.05-1.72,8-4.06a5,5,0,0,0-.23-6.9c-6.06-6.12-15.14-.61-22.24-2.84l-.36.41,16.1.43c.13,0,.65-.14.47-.36l-8-10.07-.62.32a47.72,47.72,0,0,1,14.35,10.26c.17.17.73,0,.7-.24a28.62,28.62,0,0,0-8.7-17.37c-.19-.19-.88.09-.67.29a28.43,28.43,0,0,1,8.65,17.27l.7-.24a48.33,48.33,0,0,0-14.45-10.33c-.16-.07-.83.07-.63.33l8,10.07.48-.36-16.1-.42c-.19,0-.78.28-.36.41,6.45,2,13.23-1.94,19.53,1,2.36,1.12,4.59,3.36,3.85,6.19-.9,3.4-4.95,4.93-8,5.66-6,1.46-12.54.86-18.21,3.7-5.34,2.68-9.18,7.7-14.76,10-1,.41-2.69,1.08-3.61.11-.77-.81-.09-2.15.2-3l2.19-6.55,4.23-12.64-.73.08A59.89,59.89,0,0,1,414,524.68l.67-.13c-1.16-1.34-3-.94-4.47-.36a11,11,0,0,1-3,1.15c-1.08.1-2.82-.12-2.81-1.53l-.41.25c5.44-.92,9.49-6.17,8-11.7l-.69.24c.92,1.48-.36,3-1.89,3.19s-3.15-.82-4.36-1.71c-1.82-1.34-3.43-2.91-5.69-3.47-.13,0-.77.12-.56.35l5.44,6a12.15,12.15,0,0,1,2.3,2.81c.76,1.61-.48,2.66-1.88,3.23a34.44,34.44,0,0,1-7.81,1.92c-2.55.39-5.54.89-8.11.45s-2.73-2.77-2.54-5a7.16,7.16,0,0,0-.67-4.65c-2-3.21-6.52-4.28-9.54-6.27a26.21,26.21,0,0,1-5.56-4.95,24.83,24.83,0,0,1-2.06-2.82,1.5,1.5,0,0,1,.28-2.15,3.86,3.86,0,0,1,2.77-1c.28,0,.76-.42.27-.43Z" transform="translate(35.88 -289.79)"/></g><g class="cls-1"><path class="cls-2" d="M430.6,613.71c.53-2.61,4.19-1.71,4.64.49.62,3-4,6.85-5.4,2.88-.3-.88-.53-2.35.22-3.09,1-1,3.16-.71,4.52-.85a9.64,9.64,0,0,0,5.41-1.91,5.11,5.11,0,0,0,1.87-4.34,3.77,3.77,0,0,0-3.58-3,8.71,8.71,0,0,0-4.94,1.23c-2.57,1.36-4.9,2.77-7.87,3.1s-6-.93-8.78-.14c-1.72.47-3.29,1.82-3.2,3.72a.16.16,0,0,0,.07.07c5.85,2.28,13.11,4.64,18.53.07.26-.21-.19-.25-.33-.21a22.16,22.16,0,0,0-8.28,4.33c-.17.14,0,.25.14.25a6.49,6.49,0,0,1,6.08,8.18c-.55,2-1.49,3.94-1.89,6a21.75,21.75,0,0,0-.22,6.49l.65-.26c-4.72-2.78-9.63-5.71-12.68-10.41a14.56,14.56,0,0,1-2.47-7.57c0-1.48.17-3,.24-4.44a19.42,19.42,0,0,0-.36-3.95c-.27-1.74,2.06-1.3,3.22-1.38a28.68,28.68,0,0,0,3.56-.47,29.34,29.34,0,0,0,12.35-5.67c1.7-1.33,3.95-3.14,4.92-5.13,1.06-2.18-1.55-3.28-3.32-3.47a6.93,6.93,0,0,0-5.59,1.95h.65l.79-3c.05-.2-.33-.14-.4-.12A25.88,25.88,0,0,0,414,604.12a24.83,24.83,0,0,0-2.15,4.2,12.79,12.79,0,0,0-1.22,5,9.54,9.54,0,0,0,.78,2.82c.4,1.12.79,2.25,1.16,3.38q1,3.18,1.86,6.41c.58,2.28,1.16,4.59,1.54,6.91.33,2.07.4,4.35-1.14,6l.62-.16a11.52,11.52,0,0,1-7.53-9.32,16.32,16.32,0,0,1,.7-7.53c.71-2.2,1.92-4.18,2.72-6.34.66-1.78,1.1-3.87.1-5.62-.49-.84-1.38-1.43-1.74-2.34a3.59,3.59,0,0,1,.83-3.47c1.29-1.64,3.29-2.4,4.84-3.73a5.1,5.1,0,0,0,1.86-4.7,4.86,4.86,0,0,1,.81-3.54,4.46,4.46,0,0,1,3.57-1.8c1.26,0,.69,1.13.46,1.92l-.54,1.84-1.36,4.61c-.07.23.65.13.72-.1l2.45-8.29a.11.11,0,0,0-.07-.12c-2.75-.85-6.2.86-6.75,3.81a30.66,30.66,0,0,0,0,3.18,4.53,4.53,0,0,1-1.87,3.2c-1.58,1.3-3.51,2.08-4.8,3.72-1.15,1.47-1.48,3.17-.23,4.67a5.84,5.84,0,0,1,1.62,2.85,7.52,7.52,0,0,1-.5,3.63c-.76,2.24-2,4.26-2.78,6.5a17.09,17.09,0,0,0-.89,7A11.88,11.88,0,0,0,414.87,639a.63.63,0,0,0,.63-.16c2.21-2.34,1.29-5.89.69-8.68a113,113,0,0,0-3.42-12.39c-.67-2-1.7-3.87-1.3-6a21.07,21.07,0,0,1,1.59-4.75,25.19,25.19,0,0,1,6-8.1,24.47,24.47,0,0,1,10.22-5.59l-.41-.11-.79,3c-.07.26.57.08.65,0,1.78-1.77,5.45-2.57,7.4-.52,1.76,1.86-2.37,5.12-3.65,6.22a27.88,27.88,0,0,1-13.22,6.26,27.44,27.44,0,0,1-3.62.39,8.93,8.93,0,0,0-2.37.15c-1.86.59-.65,3-.61,4.33.07,2.57-.52,5.11-.09,7.68a15.62,15.62,0,0,0,2.58,6.13c3.08,4.54,7.92,7.4,12.55,10.14.16.09.68,0,.65-.27a21.62,21.62,0,0,1,.58-8c.59-2.14,1.87-4.24,1.81-6.51a6.86,6.86,0,0,0-6.79-6.43l.14.24a21,21,0,0,1,7.8-4.1l-.33-.22c-3.1,2.61-7.26,2.72-11,1.83a39.11,39.11,0,0,1-5.08-1.65c-.84-.32-1.41-.74-1-1.69a4.07,4.07,0,0,1,3.94-2.08c1.72,0,3.42.45,5.15.45a15.87,15.87,0,0,0,4.54-.65,18.28,18.28,0,0,0,3.75-1.61c1.69-.95,3.41-2.16,5.42-2.19a3.63,3.63,0,0,1,3.86,2.58,4.66,4.66,0,0,1-1.54,4.24c-1.41,1.3-3.44,1.63-5.28,1.79-1.25.1-2.79-.06-4,.49-2,.91-1.85,4.16-.31,5.47s4,0,5-1.31c1.41-1.75,1.56-4.83-1-5.58-1.58-.46-3.75.14-4.11,1.93-.05.26.67.14.72-.1Z" transform="translate(35.88 -289.79)"/></g><g class="cls-1"><path class="cls-2" d="M414.44,626.23a68.58,68.58,0,0,1-14.91-4.91,70.11,70.11,0,0,1-6.68-3.57c-1.71-1-3.66-2.81-5.82-2.58a3.56,3.56,0,0,0-2.95,2.64c-.61,2,.32,3.93,1.32,5.62,1.35,2.29,2.78,4.54,4.18,6.8.93,1.53,1.74,2.66,3.66,1.93a24,24,0,0,1,4-1.39,15.33,15.33,0,0,1,4.06-.23,15.17,15.17,0,0,1,7.76,2.85l.32-.45a11.76,11.76,0,0,0-10.89,8.53l.57-.27A10.28,10.28,0,0,1,391,630c0-.26-.38-.23-.52-.16-2.65,1.29-2.43,4.74-1,6.89,1.08,1.61,3,2.53,4.65,3.38a16.52,16.52,0,0,1,5.44,3.79c2.71,3.18,3.75,7.51,4.67,11.49a14.63,14.63,0,0,1,.43,6.27,6,6,0,0,1-4.29,4.4c-2.84,1-6.75,1.25-8.12,4.4l.62-.17c-5-4.28-9.13-10.11-9.85-16.8-.65-6.11,1.95-12.82,7.44-15.94l-.51-.09c.37,3.41,2.57,6,3.69,9.2.93,2.6,1.06,6.21-1.55,7.87h.56A30.9,30.9,0,0,1,388,634.85c0-.14-.12-.2-.23-.21-3.6-.29-6.82,3.53-5.49,7l.3-.33a22.84,22.84,0,0,1-21.9-8.46l-.1.3c2-1.46,4.79,0,7.07-.54,2.53-.59,2.45-3.38,4.42-4.65,2.6-1.68,6.1-.42,8.64.72s5.06,2.36,7.92,2.09l-.2-.39a28.68,28.68,0,0,1-10.92,4.4l.12.44c3.19-1.43,6.44-2.77,9.59-4.3a3.52,3.52,0,0,0,2-1.77c.45-1.21-.23-2.49-.91-3.46-1.83-2.63-4.12-4.8-5.14-7.94-.9-2.79-.58-6.08,1.67-8.13.13-.12.05-.26-.09-.32-4.72-2.08-8.62-5.5-12.38-9-1.63-1.49-3.69-3.19-4-5.52s1.54-4.16,3-5.73a7.57,7.57,0,0,0,2.41-3.94,4.49,4.49,0,0,0-.7-3.62A2.62,2.62,0,0,0,370,581a22.39,22.39,0,0,0-2.6,1.6,23.24,23.24,0,0,1-3.58,1.75A23.84,23.84,0,0,1,356,586c-2.31.08-4.67-.32-7,.13-3.43.68-6.53,4.22-3.77,7.45,4.94,5.77,16,7,21.87,2.1,1.52-1.26,2.88-3.1,2.74-5.18-.15-2.29-2.29-3.54-2.85-5.65a2,2,0,0,1,.35-1.8c.33-.46,1.9-1.43,1.72-.24s-1.4,2.45-2,3.22a15.4,15.4,0,0,1-6.27,4.51l.52.16c.35-2.48,2.57-3.83,4.6-4.91a14,14,0,0,0,4.76-3.39c1-1.22,1.83-3,1.2-4.54-.8-2-3.31-2.12-4.86-3.22-3.54-2.48-4.5-7.51-3.5-11.5,1.31-5.25,5.22-9.36,8.66-13.33l13.41-15.46-.51.14c3.13,1.15,3.9,5,3.85,7.92-.07,3.37-.85,7.1,1.09,10.13.92,1.43,2.32,2.48,3.21,3.93a7,7,0,0,1,.69,5.41c-.91,3.78-3.67,6.83-6.26,9.58A104.11,104.11,0,0,1,377,581.29l.57.18a27,27,0,0,0,2.14-12.67,26.37,26.37,0,0,0-1.38-6.69c-.13-.39-.64-1.2-.61-1.6,0-.65.85-.83,1.4-1a9.16,9.16,0,0,1,4.08-.59l-.23-.21-2.28,10.58a25.14,25.14,0,0,0-1,5.1,2.25,2.25,0,0,0,1.23,2.12c1.88.94,4.25-.06,6.08-.57a42.58,42.58,0,0,1,10.16-1.56,41.51,41.51,0,0,1,10.6,1c1.52.34,3.3.82,4.29,2.13,1.18,1.57,1,3.87-1.19,4.39a24.51,24.51,0,0,1-5.14.2c-1.91,0-3.82,0-5.74,0a97,97,0,0,1-10.64-.7c-4-.5-10.18-1.09-12.1,3.45H378l.39-2.07a.16.16,0,0,0-.09-.16c-6.17-3.1-12.3-6.35-18.58-9.23-5.56-2.55-11.42-4.56-17.61-4.36a.43.43,0,0,0-.41.28c-1.21,4.37,5.38,6,8.29,6.93l17.71,5.53c.16,0,.58,0,.58-.26a20.11,20.11,0,0,0-8.91-16.26,20.41,20.41,0,0,0-18.71-1.67c-.1,0-.31.23-.18.35a17,17,0,0,1,4.45,6.23c.09.2.36.16.52.1,1-.38,1.09-1.36,1-2.33a7.21,7.21,0,0,1,0-2.58,5.27,5.27,0,0,1,2-2.7c1.81-1.34,4.16-1.61,6.29-2.12a26.14,26.14,0,0,0,5.44-2c2.21-1.09,7-3.56,5.73-6.77-.59-1.53-2.29-2.4-3-3.9a10.8,10.8,0,0,1-.85-5.33,47.39,47.39,0,0,1,1.86-9.86,31.9,31.9,0,0,1,3.79-9.12,15.41,15.41,0,0,1,3.31-3.75c1.39-1.12,4.47-3.22,5.95-1.44A47.36,47.36,0,0,1,380.4,524a34.33,34.33,0,0,1,3.23,5.88c2.91,8-7.06,10.88-10.12,16.69h.71v-14.2c0-.32-.53-.24-.66-.06-8.25,10.91-6.67,26.42-15.83,36.79l.58-.11c-3.51-1.67-7.23-3.41-11.21-3.24-2.41.1-4.73,1-7.17.72a33.18,33.18,0,0,1-6.81-2A101.76,101.76,0,0,0,320,561c-3.32-.65-6.71-1.26-10.09-.78-2.93.42-5.79,1.7-7,4.57-.11.25.23.31.4.26,11.49-3.4,24.44.6,32.63,9.19a30.29,30.29,0,0,1,5.64,8.34l.21-.29A19.18,19.18,0,0,1,321,580.13c-5-4.09-7.35-11.23-13.78-13.55-.28-.1-.84.28-.43.46l19.09,8.3.35-.47a72.7,72.7,0,0,1-22.68-5.9c-.17-.07-.67.08-.58.33,2.2,6.3,9.26,8.56,14.09,12.36a15,15,0,0,1,6,9.89,9.83,9.83,0,0,1-5.18,10l.49,0L308,591.76c-3-2.82-6.14-5.56-8.64-8.82-2.23-2.91-3.87-6.42-3.33-10.15.47-3.31,2.54-6.73,6.07-7.31l-.3-.27c-3,7.78,4.57,13.64,10.21,17.37l.41-.44c-4.42-.8-6.3-5.48-7.24-9.36s-2-9.29-.07-13.18,6.77-4,10.27-5.94a6.05,6.05,0,0,0,3-3.36c.74-2.25-.2-4.6-1.22-6.6a55.39,55.39,0,0,1-4-8.69,33,33,0,0,1-1.42-9.51c0-.27-.35-.23-.52-.16-8.23,3.07-17.59,7.15-19.63,16.67-1.05,4.94-.24,10.46,1.21,15.25.6,2,1.61,4,3.61,4.85a4.15,4.15,0,0,0,4.49-.61,4.85,4.85,0,0,0,1.21-2.85c.23-1.58.28-3.19.4-4.78l.81-10.41c0-.34-.7-.23-.73.07a44.44,44.44,0,0,1-6.94,20.37l.56-.2q-6.21-2.3-12.4-4.68c-3-1.15-6.61-3.26-9.79-1.75-.13.07-.27.2-.18.35,1.48,2.47,3.25,4.92,4.49,7.51.42.87.09,1.07-.53,1.7l-1.39,1.39c-1,1-2,1.9-3.05,2.82a83.17,83.17,0,0,1-13.57,9.63l.52.16c.11-7.64,1.94-16.65,9.71-20.07a10.62,10.62,0,0,1,5.61-.88c.7.09,1,0,.74.59a4.73,4.73,0,0,1-.54.88,11.76,11.76,0,0,1-1.77,2,12,12,0,0,1-10.17,2.94c-.33-.07-.74.4-.26.49a13,13,0,0,0,13.75-6.89.19.19,0,0,0-.13-.26c-4.82-1.19-9.78,1.08-12.9,4.77-3.82,4.52-4.68,10.75-4.77,16.48,0,.25.36.25.52.16a83.67,83.67,0,0,0,19.36-15.15.2.2,0,0,0,0-.25l-5-8.35-.18.35c1.86-.88,3.86-.19,5.66.5l5.23,2q5.26,2,10.56,4a.53.53,0,0,0,.56-.2,44.68,44.68,0,0,0,7-20.5l-.73.07c-.38,4.92-.6,9.89-1.16,14.8-.15,1.29-.48,2.81-1.77,3.43a3.78,3.78,0,0,1-3.63-.57c-1.85-1.32-2.47-3.8-3-5.89-1-4.4-1.71-9.09-.7-13.56a17.13,17.13,0,0,1,7-10.14c3.66-2.64,7.93-4.31,12.13-5.88l-.52-.16a33.53,33.53,0,0,0,4,15.8c1.34,2.49,3.37,5.44,2.75,8.43-.5,2.36-2.53,3.55-4.62,4.32-3.68,1.36-7.67,2.22-9.15,6.36-1.4,3.95-.49,8.88.51,12.83s3.08,8.51,7.62,9.33c.19,0,.71-.24.41-.44-5.44-3.61-13-9.34-10.09-16.92.08-.2-.12-.3-.3-.28-5,.81-7.48,6.13-6.92,10.78.84,6.86,7.43,11.87,12.08,16.3l10.29,9.78a.42.42,0,0,0,.49,0c5.34-2.52,6.85-9.08,4.59-14.22-2.47-5.66-7.94-8.19-12.78-11.43-2.69-1.81-5.17-4-6.26-7.13l-.58.32A73.28,73.28,0,0,0,326,575.36c.24,0,.74-.3.34-.47l-19.09-8.31-.43.46c3.61,1.3,6,4.36,8.22,7.32,2.1,2.78,4.2,5.55,7.19,7.44a20.13,20.13,0,0,0,19.87.83c.08,0,.26-.17.21-.29-5.08-11.18-16.87-18.53-29-19a30.67,30.67,0,0,0-10.08,1.23l.41.26c2.73-6.45,12.42-4.16,17.59-3.07A104,104,0,0,1,332.91,565a41.07,41.07,0,0,0,5.81,1.8,13.89,13.89,0,0,0,5-.11,16.44,16.44,0,0,1,7.45.05,39.07,39.07,0,0,1,6.56,2.63.51.51,0,0,0,.58-.11c9.17-10.39,7.58-25.88,15.83-36.79l-.67-.06v14.21c0,.35.6.21.71,0,2.7-5.12,10.88-7.63,10.72-14.2a11.52,11.52,0,0,0-1.7-5.16c-1.15-2.07-2.45-4.07-3.69-6.1-.8-1.3-1.67-3.71-3.4-4-1.35-.22-2.89.64-4,1.3-5.66,3.32-8,10.16-9.43,16.2-.8,3.36-1.7,7-1.34,10.44a8.35,8.35,0,0,0,1.81,4.56c.53.63,1.24,1.11,1.72,1.79.85,1.23.38,2.56-.49,3.62-1.64,2-4.5,3.26-6.88,4.14s-4.85,1.12-7.2,2a7.5,7.5,0,0,0-4.16,3.21,4.42,4.42,0,0,0-.58,2.46c.05.81.62,2.65-.46,3l.52.1a17.53,17.53,0,0,0-4.51-6.35l-.18.35a19.46,19.46,0,0,1,18.47,2.11,19.77,19.77,0,0,1,8.1,15.49l.58-.26-15.82-4.94c-2.94-.92-11.17-2.44-9.86-7.13l-.41.28c6.78-.22,13.17,2.33,19.17,5.23,3,1.44,5.93,2.95,8.89,4.43l4.59,2.3a21.17,21.17,0,0,1,2.18,1.1c.6.39.66.4.64,1.1a10.79,10.79,0,0,1-.23,1.24c-.07.33.61.21.71,0,2.21-5.23,10.27-3,14.52-2.66,3.55.3,7.11.37,10.67.36,1.65,0,3.31,0,5-.06a9.53,9.53,0,0,0,3.68-.44c2-.88,2.22-3.27,1-4.91-1.61-2.08-4.94-2.44-7.34-2.82A43.52,43.52,0,0,0,386,575.69c-1.39.42-3.39,1.12-4.74.25-1.61-1.05-.46-3.84-.14-5.32l2.58-12c0-.13-.13-.2-.24-.21a10.36,10.36,0,0,0-6.51,1.69c-.07,0-.17.15-.13.24a26.67,26.67,0,0,1,.07,21.1c-.15.33.42.3.58.18a107.73,107.73,0,0,0,9.8-9c2.75-2.84,5.65-5.87,7-9.68a8.67,8.67,0,0,0,.45-4.67,9.64,9.64,0,0,0-2.73-4.4,9.07,9.07,0,0,1-2.54-5.62c-.16-2.09.17-4.17.17-6.25,0-3.12-.92-6.81-4.16-8a.53.53,0,0,0-.51.14l-12.12,14c-3.39,3.91-7.27,7.81-9.28,12.66A13,13,0,0,0,364,572.3a8.58,8.58,0,0,0,4.19,3.63c1.25.51,2.67.94,3.1,2.39a4.24,4.24,0,0,1-.81,3.39c-2.46,3.73-9.14,4-9.85,9,0,.27.38.21.52.16a16.12,16.12,0,0,0,8.36-7.39c.31-.59.77-1.07.16-1.56a1.4,1.4,0,0,0-1.16-.25,3,3,0,0,0-2.22,2.28c-.29,1.65,1.28,3.07,2.07,4.34,1.46,2.31.75,4.73-1.13,6.57-3.36,3.29-8.95,3.8-13.33,2.76-3.2-.77-11.11-4.18-8.45-8.65,1.58-2.66,4.85-2.68,7.57-2.58a29.19,29.19,0,0,0,6.26-.31,24.9,24.9,0,0,0,6.42-2,27.62,27.62,0,0,0,2.72-1.5c1-.66,2.4-1.91,3.65-1.05s1.23,3.12.79,4.46c-.6,1.83-2.34,3.07-3.55,4.5a5.64,5.64,0,0,0-1.64,4.9c.53,2.34,2.64,4,4.32,5.56,3.74,3.43,7.62,6.76,12.31,8.82l-.09-.33c-4.06,3.72-1.94,9.56.84,13.31,1.61,2.18,5.83,6,1.7,7.87-3.13,1.45-6.3,2.82-9.44,4.22-.31.14-.24.5.11.44a29.86,29.86,0,0,0,11.47-4.6c.27-.17.06-.41-.2-.39-5.67.53-10.73-5.67-16.49-2.95a4.81,4.81,0,0,0-2.12,1.92c-.9,1.49-1.31,2.91-3.35,3-2.24.1-4.63-.82-6.63.61-.09.07-.18.2-.1.3a23.57,23.57,0,0,0,22.7,8.62c.11,0,.36-.17.3-.33-1.12-2.91,1.26-6.59,4.5-6.33l-.24-.21a31.19,31.19,0,0,0,4.83,19.92c.11.17.44.07.57,0,2.4-1.52,2.75-4.52,2.17-7.1-.82-3.7-3.64-6.61-4.06-10.46,0-.2-.41-.15-.52-.09-5.47,3.1-8.27,9.43-7.93,15.59.4,7.15,4.81,13.4,10.09,17.93a.48.48,0,0,0,.62-.17c1.34-3.08,5.46-3.15,8.2-4.24,3.18-1.27,4.6-3.9,4.42-7.29a30.68,30.68,0,0,0-1.08-5.78,35.18,35.18,0,0,0-1.78-5.52,15.53,15.53,0,0,0-2.95-4.63,17.27,17.27,0,0,0-4.88-3.25c-2.05-1-4.3-2.14-5.26-4.36-.75-1.74-.8-4.27,1.15-5.22l-.53-.16a10.65,10.65,0,0,0,8.34,11.58c.21,0,.51,0,.58-.26a10.91,10.91,0,0,1,10.08-8c.19,0,.58-.25.32-.44a16,16,0,0,0-10.1-3,15.41,15.41,0,0,0-5.27,1.18,6.89,6.89,0,0,1-1.6.67,1.84,1.84,0,0,1-1.8-1c-.7-1-1.31-2.13-2-3.19a51.26,51.26,0,0,1-3.65-6.17c-.87-2-1-5.85,2.1-5.78a7.16,7.16,0,0,1,3.65,1.58c.93.6,1.89,1.18,2.85,1.73a67.18,67.18,0,0,0,6.16,3.13,68.42,68.42,0,0,0,14,4.51c.28.06.85-.37.42-.46Z" transform="translate(35.88 -289.79)"/></g><g class="cls-1"><path class="cls-2" d="M237.77,602.33a16.07,16.07,0,0,0-12.31-2.16,24.39,24.39,0,0,0-5.9,2.46c-2.66,1.38-5.95,3.14-8.8,1.24-1.82-1.21-2.67-3.36-4.17-4.89a8.11,8.11,0,0,0-5.28-2.33c-4-.31-7.74,1.35-11.12,3.25-2.89,1.63-5.8,3.55-9.1,4.21-3.74.75-7.46-.41-11-1.53l-.58.25a22.68,22.68,0,0,1,18.29,10.81l.7-.21a215.48,215.48,0,0,0-25.6-9.52c-.15,0-.71.22-.64.25,3.83,1.78,7.59,3.71,11.25,5.8,3.3,1.88,6.9,3.76,9.77,6.26,6.12,5.33,2.14,13.57,2.28,20.39l.72-.2a28.26,28.26,0,0,0-7.06-7.76,34.15,34.15,0,0,0-9.36-4.66,5.75,5.75,0,0,1-3.73-3.45,34.72,34.72,0,0,1-1-4.86c-.57-2.48-2.41-5.22-5.27-4.65,0,0-.54.18-.42.24,3.48,1.84,7.21,3.79,9.53,7.09,2.22,3.15,2.86,7.17.69,10.52a29.15,29.15,0,0,1-4.21,4.67l-4.71,4.66c-1.62,1.61-3.24,3.23-4.88,4.83-1.12,1.11-2.7,2.77-4.5,1.94a5.49,5.49,0,0,1-2-2.09c-2.39-3.54-4.73-7.14-6.83-10.86-1.05-1.87-2-3.77-2.91-5.72a19.8,19.8,0,0,1-2.05-5.9c-.46-4.63,5.34-6.67,8.87-7.69a29.74,29.74,0,0,1,10.69-1,7.31,7.31,0,0,1,1.32.15c.76.21.76.47.53,1.17-1.29,3.89-4.78,6.4-6.68,9.92-1.55,2.85-2.3,6.79.29,9.27.11.11.58-.05.67-.15,2-2.06,1.9-4.81,1.67-7.47-.26-3.12-.75-6.32.83-9.19a8.79,8.79,0,0,1,9.46-4.59,9.72,9.72,0,0,1,6.89,5.92l.72-.19a15.87,15.87,0,0,0-8.19-5.86c-3.53-1.08-6.89-.61-10.41.21-3.76.88-9.19,1.62-11.26-2.63-.67-1.36-1-2.92-2.4-3.71a5.22,5.22,0,0,0-3-.44c-3.2.3-6.82,2.39-9.9.69L127,605a195.08,195.08,0,0,0,24.27,1.7c.06,0,.66-.12.6-.23A11.23,11.23,0,0,0,144,601c-.15,0-.78.22-.6.27l6.08,1.41c.08,0,.72-.09.66-.23a23.33,23.33,0,0,0-10.69-11.13c-.12-.07-.79.13-.68.24a91.82,91.82,0,0,0,13.36,10.71c.12.08.69,0,.71-.22.51-5.49-5.38-8.87-9.26-11.51L126.6,579c-.12-.09-.68,0-.7.21-1.31,11.21,7,22.4,18.06,24.49.09,0,.76-.15.64-.26A23.85,23.85,0,0,0,127.43,598c-3.9.33-7.68,1.85-11.46.06-2.94-1.39-5.18-3.94-7.27-6.36-.1-.13-.7,0-.72.19-1.36,14.47,10,28.84,24.4,30.91,5.41.77,13.5-.53,15.47-6.57,1.22-3.75-1-8,.7-11.6,1.9-4.09,7.24-3.3,10.88-4.46,3.22-1,6.23-3.9,4.07-7.43-2.35-3.86-7.32-3.32-11-2.22-.05,0-.49.17-.28.23l5,1.25c.39.1.82.16,1.2.3.62.23.71.21.09.49a4.32,4.32,0,0,1-2.59.1,6.12,6.12,0,0,1-4.76-4.45l-.24.16a17.27,17.27,0,0,1,10-.36c.09,0,.74-.12.67-.23-3.26-5.23-7.93-12-15-10.43-2.36.53-4.83,1.9-5.85,4.2-1.38,3.11.85,6.61,3.14,8.66s5.56,3.28,8,1c0,0,.06-.06,0-.08-2.39-1.65-4.26-5.3-2.35-8a3.82,3.82,0,0,1,5.07-1.07c1.33.9,1.29,2.61,2.3,3.74,1.85,2.08,5.3.56,7.61.63a11.34,11.34,0,0,1,8.11,4.29,11.05,11.05,0,0,1,2.45,9.54l.6-.2-6.7-.06a7.15,7.15,0,0,1-1.53,0s.84-.26,1.15-.37c.92-.31,1.84-.63,2.73-1,3.2-1.36,6.36-3.66,7.2-7.23,1.57-6.7-6.65-9.79-11.75-10.87-2.4-.51-5.84-.67-7.2,1.84-.07.12.6-.05.68-.11,2.81-2.24,2.56-6.43.64-9.19-2.32-3.36-6.83-4.25-10.65-4.38-6.35-.23-16.68,1.05-17.77,9-.46,3.34,1,7.22,4.62,8,.1,0,.76-.16.64-.25a10.7,10.7,0,0,1-4.42-8.44c.07-3.56,2.7-7.22,6.41-7.56.06,0,.69-.21.46-.27-6.5-1.66-14.41-.93-19,4.45a12.3,12.3,0,0,0-3.06,9.65,9.44,9.44,0,0,0,5.42,7,8.86,8.86,0,0,0,8.21-.23c.29-.17-.42-.07-.55,0-3.28,1.88-7.45.46-9.94-2.11a9.65,9.65,0,0,1-2.11-9.4,13.4,13.4,0,0,1,7-8.32c4.17-2,9-1.9,13.44-.77l.46-.27a8.27,8.27,0,0,0-7.13,5.88c-1.18,4,1,8.19,4.14,10.63l.64-.25c-2.86-.58-4.37-3.29-4.56-6a8.56,8.56,0,0,1,4.32-8c3.44-2.11,7.77-2.46,11.72-2.39,3.76.06,8.24.79,10.72,3.94,2.11,2.68,2.61,7.13-.29,9.44l.68-.1c1.69-3.11,6.61-1.38,9.21-.5s5.35,2.08,7.06,4.29a6.87,6.87,0,0,1,.07,8.18c-2.25,3.38-6.24,4.68-9.92,5.84-.1,0-.39.2-.12.2l8.61.07c.12,0,.56,0,.6-.2,1.34-5.67-2.5-11.64-7.92-13.44a10,10,0,0,0-3.73-.52c-1.57.09-3.2.63-4.78.34-2.18-.4-2.18-2.26-3.19-3.8a3.42,3.42,0,0,0-2.58-1.46,5.37,5.37,0,0,0-4.85,2.13c-1.6,2.45-.26,5.75,1.76,7.48.4.33.58.41.23.82a2.76,2.76,0,0,1-2.17.4,6.91,6.91,0,0,1-2.45-1,11.42,11.42,0,0,1-3.58-3.51c-1.81-2.74-2.22-6,.44-8.3,3-2.67,7.23-2.36,10.43-.23s5.43,5.6,7.46,8.86l.66-.23a18.69,18.69,0,0,0-10.83.5c-.05,0-.26.08-.24.16,1,4.12,6,5.77,9.52,3.78.07,0,.13-.11,0-.14l-7.22-1.79-.27.23c3.81-1.12,9.68-1.27,10.88,3.64,1.07,4.41-4.12,5.85-7.38,6.3-2.52.36-5.47.77-7.27,2.76-2.4,2.65-1.27,6.51-1.21,9.69.16,8.3-8.85,10.52-15.59,9.26a28.79,28.79,0,0,1-16.74-10.31,28.4,28.4,0,0,1-6.5-20.35l-.72.19c2,2.31,4.08,4.69,6.8,6.15s5.78,1.31,8.85.75a25.35,25.35,0,0,1,11,.13,23.59,23.59,0,0,1,9.28,4.76l.64-.25c-11-2.07-19.22-13.27-17.93-24.41l-.7.21,16.53,11.25c4,2.7,10.15,6.11,9.62,11.75l.71-.22a92.45,92.45,0,0,1-13.37-10.71l-.68.24a23.28,23.28,0,0,1,10.65,11.08l.66-.23L144,601l-.6.27a11,11,0,0,1,7.74,5.4l.6-.23a193.14,193.14,0,0,1-24.14-1.7c-.1,0-.75.19-.64.26,2.14,1.18,4.66.56,6.89,0a12.39,12.39,0,0,1,4.78-.66c1.69.26,2.53,1.48,3.12,3,3.32,8.35,13.28,2.27,19.48,3A15.72,15.72,0,0,1,172,616.71c.09.13.77-.07.72-.19a9.83,9.83,0,0,0-15.26-4,10.2,10.2,0,0,0-3.64,8.89c.17,3.5,1.38,7.81-1.32,10.68l.67-.16c-2.89-2.75-1.59-7.3.36-10.22,2.2-3.29,5.45-5.94,6.35-10q0-.06-.06-.06c-6.51-1-13.91-.09-19.63,3.35a7.79,7.79,0,0,0-2.91,2.73,5.81,5.81,0,0,0-.11,4.73,57.73,57.73,0,0,0,5,10.51c2,3.44,4.15,6.78,6.37,10.07.75,1.1,1.65,2.26,3.07,2.41a4.6,4.6,0,0,0,2.91-.86,27.56,27.56,0,0,0,4-3.74l4.53-4.48c2.55-2.53,5.75-5,7.55-8.19,1.88-3.32,1.06-7.24-1.11-10.22-2.35-3.23-6-5.15-9.45-7l-.41.24c2-.39,3.42,1.41,4.14,3a17.58,17.58,0,0,1,1,4.18,6.35,6.35,0,0,0,5.46,6.16,28.46,28.46,0,0,1,15.28,12c.08.13.73,0,.72-.2-.13-6.66,3.76-14.82-2-20.16-2.89-2.66-6.68-4.6-10.07-6.53-3.67-2.09-7.43-4-11.25-5.8l-.65.26a214.78,214.78,0,0,1,25.52,9.49c.09,0,.78-.1.7-.22A22.85,22.85,0,0,0,170,602.56c-.11,0-.67.23-.58.26,4.72,1.5,9.3,2.56,14.1.79s8.8-5.45,13.9-6.46a9.87,9.87,0,0,1,7.15,1c1.92,1.22,2.84,3.32,4.33,4.95,2.92,3.2,7,1.71,10.3,0,3.1-1.57,6-3.09,9.54-3.07a15.52,15.52,0,0,1,8.36,2.54c.16.11.76-.19.68-.24Z" transform="translate(35.88 -289.79)"/></g><g class="cls-1"><path class="cls-2" d="M437.54,576a22.72,22.72,0,0,1,15.07,17.9l.39-.38c-5,.24-11.19.24-15.08-3.52-3-2.91-4.39-8.53-1-11.66a.25.25,0,0,0,0-.4c-1.53-1.49-4.6.3-3.88,2.38a.34.34,0,0,0,.43.17,15.14,15.14,0,0,0,7-3.86c.09-.09.17-.22.08-.34a5.39,5.39,0,0,0-9.24,1.12c-2.25,5.63,3.44,10.85,2.25,16.51l.7-.19a33.31,33.31,0,0,1-3.09-7.15c-.62-2.12-.66-4.6-1.64-6.58-.89-1.79-2.79-2.64-4.55-3.35a31.58,31.58,0,0,0-6.41-1.78c-9.33-1.65-19.06-.22-28.13-3.46a35.93,35.93,0,0,1-13.08-8.23c-.25-.24-.86.13-.55.44,6.45,6.33,14.72,9.64,23.65,10.45,4.61.42,9.24.38,13.85.82a43,43,0,0,1,7,1.2c2.2.59,4.93,1.36,6.6,3a6.68,6.68,0,0,1,1.61,3.8,34.91,34.91,0,0,0,.89,3.9A33.2,33.2,0,0,0,433.7,594c.16.28.65.07.7-.19,1-4.74-2.51-8.76-2.71-13.39-.09-2.07.54-4.39,2.56-5.36a4.72,4.72,0,0,1,5.74,1.5l.09-.35a14.46,14.46,0,0,1-6.69,3.69l.43.17c-.5-1.46,1.45-2.88,2.61-1.75l0-.4c-3.52,3.22-2.51,8.8.48,12,4,4.27,10.63,4.33,16,4.07.2,0,.43-.15.39-.37A23.15,23.15,0,0,0,438,575.44c-.33-.11-.85.36-.41.51Z" transform="translate(35.88 -289.79)"/></g><g class="cls-1"><path class="cls-2" d="M385,569.8c15.39,2.26,29.23-7.37,41-16,2.79-2.06,5.63-4.17,7.68-7,2.21-3,2.86-6.9,5.22-9.88,3.54-4.48,9.09-6.77,14.13-9.1,5.39-2.49,11.06-5.24,14.24-10.5h-.71c-.74,8.37-2,17.27-7.13,24.23-4.61,6.32-13.05,10.64-20.81,7.9l.08.3,13.19-12.64-.64-.1a49.67,49.67,0,0,1-16.26,15.69c-.16.09-.18.3,0,.35,8.08,2.17,13.14,11.43,10.69,19.41-.09.29.65.2.73-.07,2.51-8.18-2.75-17.57-11-19.78l0,.36A50.32,50.32,0,0,0,451.88,537c.21-.33-.51-.23-.64-.1l-13.18,12.64c-.12.11-.07.25.08.3,5.78,2,12.08.3,16.89-3.25,5.49-4,8.59-10.24,10.25-16.72a77.46,77.46,0,0,0,2-12.67c0-.35-.6-.16-.7,0-5.77,9.52-18.6,10.29-26.39,17.46a18.89,18.89,0,0,0-4.65,7,18.74,18.74,0,0,1-6.55,9.14c-2.88,2.41-6,4.57-9.08,6.71a104.73,104.73,0,0,1-9.91,6.21c-7.58,4.1-16,6.85-24.7,5.58-.31-.05-.75.39-.27.46Z" transform="translate(35.88 -289.79)"/></g><g class="cls-1"><path class="cls-2" d="M445.85,573.08a1.56,1.56,0,0,1-1.79,1.34,5.42,5.42,0,0,1-2.27-1.08,23.67,23.67,0,0,0-4.46-2.4,6,6,0,0,0-3.55-.63c-.83.18-1.67.69-1.51,1.64.05.29.77.12.72-.19-.25-1.6,2.36-1,3.11-.68a21.88,21.88,0,0,1,4.64,2.32c1.1.72,2.28,1.65,3.68,1.49a2.29,2.29,0,0,0,2.16-1.89c0-.34-.71-.21-.73.08Z" transform="translate(35.88 -289.79)"/></g><g class="cls-1"><path class="cls-2" d="M430,571c-5.26,0-9.93-4.7-10.14-9.92,0-1.23.05-3.84,1.91-3.41a13.33,13.33,0,0,1,2.49,1.15l2.41,1.19,9.66,4.77c.09.05.77-.08.7-.21-3.08-5.55-11.81-3.22-14.84-8.78-.08-.17-.77.1-.72.19,3,5.58,11.77,3.25,14.84,8.78l.7-.22-8.9-4.39-4.53-2.24a3.71,3.71,0,0,0-2.69-.51c-2.12.61-1.91,3.71-1.56,5.39a11,11,0,0,0,3.35,5.77,10.18,10.18,0,0,0,6.85,2.72c.14,0,.81-.28.47-.28Z" transform="translate(35.88 -289.79)"/></g><g class="cls-1"><path class="cls-2" d="M87.09,571.73c1.07,1.65,2.09,4-.1,5.23a4.11,4.11,0,0,1-4.74-.62,12.38,12.38,0,0,1-3-4.45c-.78-1.73-1.65-4.8.65-5.86,1.7-.77,3.16,1.12,3.31,2.61a2.78,2.78,0,0,1-.11,1.18c-.11.3-.44.56-.51.83a2.66,2.66,0,0,0,.3,1.38c.76,2.25,3,4.81,5.52,3.25a.32.32,0,0,0,.2-.33,6.23,6.23,0,0,0-1.13-2.55c-.56-.87-1.52-2-1.08-3.11s1.61-1.38,1.55-2.63a3.19,3.19,0,0,0-1.29-2.13,16.49,16.49,0,0,0-7.1-3.2,7.84,7.84,0,0,0-6,1.06c-4.51,3.21-1.1,9.2.84,12.85a62.91,62.91,0,0,0,4.2,7.53,7.9,7.9,0,0,0,4.84,3.43,8.17,8.17,0,0,0,8.71-4.78,7.52,7.52,0,0,0-.5-6,15.82,15.82,0,0,0-2.26-3.34c-.83-1-3-2.64-1.08-3.68.83-.45,1.79-.51,2.6-1a5.69,5.69,0,0,0,1.71-1.81,7,7,0,0,0,.72-5.42c-1.21-4.34-6.2-6.23-10.29-6.22a33.32,33.32,0,0,0-9.65,1.94c-2.19.67-4.27,1.68-5,4-.58,1.92-.24,4,0,6,.24,2.28.56,5-1.35,6.71-.11.1-.2.29,0,.4a3.42,3.42,0,0,1,1.29,4.33c-.64,1.31-1.6,2-1.22,3.65A14.78,14.78,0,0,0,69,584.76,31.49,31.49,0,0,0,72.07,589c3.62,4.13,9.24,8.65,15.11,6.88a10.89,10.89,0,0,0,5.76-4.21,10.36,10.36,0,0,0,1.68-7.2c-.11-1.37-.37-3,.29-4.29.76-1.49,2.62-1.57,3.88-2.48a6.84,6.84,0,0,0,2.58-5.58c0-6.63-6.61-9.69-12-11.53-.33-.11-.85.36-.42.51,4.83,1.65,10.83,4.18,11.59,9.92.3,2.28-.29,4.94-2.26,6.33-1,.72-2.36.87-3.31,1.71a3.77,3.77,0,0,0-1.16,2.34c-.39,2.58.58,5.06-.28,7.62a10.2,10.2,0,0,1-5.3,5.88c-6.12,2.83-12.37-2.41-16.06-6.87a30.39,30.39,0,0,1-2.78-4,20.65,20.65,0,0,1-1.34-2.55,3,3,0,0,1,.25-3.16,4.4,4.4,0,0,0,1-3.07,3.88,3.88,0,0,0-1.78-2.81l0,.4c2.37-2.09,1.78-5.38,1.48-8.18a11.14,11.14,0,0,1,.28-5.26c.94-2.33,3.57-2.91,5.75-3.54,4.8-1.41,10.45-2.61,14.82.62,3.15,2.32,4.4,7.67.8,10.28-1.07.78-3.33.75-3.86,2.18a1.76,1.76,0,0,0,.38,1.69c.7.94,1.61,1.72,2.32,2.66a9.52,9.52,0,0,1,2.32,6.48,6.53,6.53,0,0,1-3,4.65,6.87,6.87,0,0,1-5.79,1c-2.11-.66-3.55-2.51-4.64-4.33-1.3-2.16-2.41-4.44-3.59-6.67s-2.41-4.38-2.71-6.84a5.14,5.14,0,0,1,5-5.92c2.8-.23,6.15,1.23,8.42,2.78a4.63,4.63,0,0,1,1.36,1.32c.6.95.24,1.65-.46,2.42a2.37,2.37,0,0,0-.85,1.81c.08,1.9,2.08,3.18,2.33,5.09l.2-.33c-2.34,1.43-4.28-1.63-4.66-3.57-.13-.64.28-1,.44-1.58a3.38,3.38,0,0,0,0-1.58c-.45-2-2.7-3.59-4.64-2.32-2.91,1.91-1.1,5.82.2,8.13s3.49,4.58,6.41,4.05a4.11,4.11,0,0,0,2.88-1.87c.9-1.61-.07-3.31-1-4.67-.19-.29-.88,0-.66.32Z" transform="translate(35.88 -289.79)"/></g><g class="cls-1"><path class="cls-2" d="M88.63,554.62a5.47,5.47,0,0,0-2.14-5.76c-2.11-1.68-5-2-7.54-2.28-5.18-.59-11.17-1.06-15.2,2.91a7.55,7.55,0,0,0-2.42,6c.14,1.58.65,3.1.16,4.68-.39,1.28-1.24,2.44-1.42,3.78a2.88,2.88,0,0,0,1,2.57,4.7,4.7,0,0,1,1.35,1.68,5.21,5.21,0,0,1-.17,2.87c-.67,2.79-1.82,5.54-1.64,8.47.16,2.41,1.28,5,3.72,5.79a4.56,4.56,0,0,0,5.21-1.47c.21-.3-.52-.27-.68-.05-1.56,2.19-4.77,1.4-6.2-.49s-1.53-4.45-1.13-6.7,1.52-4.69,1.73-7.11a3.15,3.15,0,0,0-.62-2.38c-.77-1-1.87-1.54-1.83-2.93.06-2,1.72-3.64,1.7-5.73,0-1.07-.32-2.11-.4-3.17a6.68,6.68,0,0,1,.8-3.72c2.66-4.87,8.66-5.22,13.56-4.78,2.71.25,5.72.38,8.19,1.62,2.3,1.15,4.08,3.64,3.29,6.28-.08.29.65.2.73-.08Z" transform="translate(35.88 -289.79)"/></g><g class="cls-1"><path class="cls-2" d="M92.07,577c2.73-1.11,5.65-.25,8.17,1a34.5,34.5,0,0,1,3.59,2.16,5.57,5.57,0,0,1,1.42,1.13,2.73,2.73,0,0,1,.24,2.32c-.48,2.3-1,4.82-2.6,6.66A6,6,0,0,1,96,591.84,6.24,6.24,0,0,1,92.58,585c.07-.36-.67-.27-.73,0a6.65,6.65,0,0,0,2.94,6.87,7,7,0,0,0,7.43-.27c2.31-1.61,3.19-4.48,3.78-7.1.32-1.38.75-2.85-.43-3.94a20.16,20.16,0,0,0-4.08-2.66c-3-1.64-6.42-2.75-9.74-1.4-.46.18,0,.57.32.42Z" transform="translate(35.88 -289.79)"/></g><g class="cls-1"><path class="cls-2" d="M98.54,576.07c6.42-4.83,5.77-13.85,2.17-20.17a34.57,34.57,0,0,0-3.89-5.42c-1-1.14-2.1-2.63-3.76-2.6-2.92,0-4,4.15-6.79,4.06-.28,0-.77.4-.28.42,2.36.07,3.61-2.07,5.27-3.36,2.14-1.68,3.8.48,5.16,2.08a35.35,35.35,0,0,1,3.41,4.74c3.65,6.22,4.55,15.3-1.88,20.13-.32.25.4.26.59.12Z" transform="translate(35.88 -289.79)"/></g><g class="cls-1"><path class="cls-2" d="M73.47,622.42c5.77,1.37,11.87-.64,16.28-4.48,4.94-4.32,7.59-10.64,8.84-17,.06-.29-.48-.14-.59-.08-2.82,1.59-2.32,5.4-4.54,7.42-1.18,1.07-2.67.33-3.81-.43s-2.1-1.45-3.23-2.08a30,30,0,0,0-7-2.81c-3-.79-7.81-1.37-9.23,2.28A10.57,10.57,0,0,0,69.8,609c0,1.45,0,2.9,0,4.34l0,4.34c0,.87-.36,2.65.16,3.43,1,1.42,3-.44,3.74-1.1l7.71-6.84c.3-.26-.29-.29-.44-.23-3,1.32-6.28,2.75-8.3,5.49-1.62,2.21-2.16,5.63-.5,8,2,2.87,6.11,2.16,9.08,3a17.51,17.51,0,0,1,9.11,6.89c2.84,4,4.37,8.72,5.88,13.32l.65-.28c-3-2.14-6.72-2.19-10.25-2.31a24.87,24.87,0,0,1-6.14-.75,13,13,0,0,1-5.66-3.89,76.61,76.61,0,0,1-8.53-11c-1.21-1.87-3-4.34-2.4-6.71.34-1.3,2-3.16,3-1.44.59,1,1.21,1.93,1.85,2.87a59.67,59.67,0,0,0,10.08,11.27c.15.13.79,0,.7-.24a35.78,35.78,0,0,0-3.7-8.25,13.74,13.74,0,0,0-6.87-5.33,8.91,8.91,0,0,1-5.7-7c-.65-3.13-.25-6.28,0-9.43.22-3.54.15-7.21-1.9-10.25-.14-.21-.71,0-.7.25q.75,12.25,1.89,24.48l.65-.28c-6.45-3.23-10.39-9.92-11.52-16.9-1.39-8.54,1.39-17.18,5.14-24.77l-.7.09c1.82,6.71,6.13,12.25,9.29,18.34,3.06,5.92,5.09,13.37,1.75,19.6-.17.31.56.25.68,0,3.24-6.05,1.54-13.24-1.34-19.08-3.15-6.41-7.76-12.1-9.66-19.09-.07-.25-.62-.08-.7.08-3.79,7.67-6.59,16.37-5.19,25C52,611.69,56,618.44,62.52,621.7c.18.1.67,0,.64-.28Q62,609.19,61.28,596.94l-.7.24c4.68,6.93-1,16,3.19,23.1,2.12,3.61,6.6,3.71,9.43,6.52s4.25,6.79,5.53,10.5l.7-.24a60,60,0,0,1-10.2-11.44q-1-1.5-2-3.06c-.44-.75-.84-.78-1.7-.53A3.84,3.84,0,0,0,63,625.84c.06,2.34,1.7,4.5,2.93,6.38q2.16,3.28,4.64,6.34c3,3.7,6.08,7.56,11,8.44s10.42-.41,14.67,2.65c.14.1.73,0,.64-.28-2.2-6.75-4.67-14-10.75-18.25A14.72,14.72,0,0,0,82,629.05a34.71,34.71,0,0,0-5.16-.85,5.55,5.55,0,0,1-4.43-2.76,6.53,6.53,0,0,1-.34-4.38c1-4.27,5.47-6.24,9.14-7.83l-.44-.23-5.69,5c-.91.81-1.8,1.68-2.75,2.44a1.69,1.69,0,0,1-1.83.1,4,4,0,0,1,0-1.09c0-.64,0-1.29,0-1.93l.08-7.72c0-2.22-.27-5.19,2-6.42,2-1,4.44-.53,6.47,0a29.52,29.52,0,0,1,6.64,2.65c2.27,1.25,5.48,4.71,8.19,2.55,2.38-1.9,1.83-5.92,4.61-7.48l-.59-.08c-1.15,5.74-3.41,11.42-7.57,15.66s-10.43,6.7-16.39,5.27c-.25,0-.86.32-.44.42Z" transform="translate(35.88 -289.79)"/></g><g class="cls-1"><path class="cls-2" d="M5.46,628.73C1.25,628-3.67,630-5.29,634.14c0,.14.26.11.3.1L2,633.15c1.34-.21,3.29-.2,4.4-1.13,1.29-1.09-.2-2.6-1-3.47a7.82,7.82,0,0,0-4.43-2.71,4.62,4.62,0,0,0-3.64.84A10,10,0,0,0-4,628.27a3.33,3.33,0,0,1-2.65,1.1,9.13,9.13,0,0,1-1.92-.47c-1.72-.53-4-1.69-2.88-3.85,1.21-2.33,4.91-2,7.15-2.15,3.86-.29,8-.75,11.13-3.17l-.62.1,4.24,5,.57-.3a41.71,41.71,0,0,0-10.81.76,40.78,40.78,0,0,0-4.87,1.34,11.17,11.17,0,0,0-4,1.87c-1.07,1-1.34,3-1.47,4.39a5.94,5.94,0,0,0,1.09,4.32A4.75,4.75,0,0,0-5.37,639c.76,0,1.52-.05,2.28-.05,1.14,0,2.27.17,3.4.24,2.27.15,6.57-.4,6.3-3.6,0-.17-.74,0-.73.2C6.1,638.37,3,639,1,638.86c-1.53-.08-3-.29-4.57-.24-2,.07-3.88-.2-5.05-2a6.6,6.6,0,0,1-.64-4.91,11,11,0,0,1,.67-2.41,4.45,4.45,0,0,1,2.67-1.87,36.2,36.2,0,0,1,5.09-1.6,39.87,39.87,0,0,1,11.37-.94c.09,0,.73-.1.57-.29l-4.24-5c-.12-.13-.52,0-.62.11-3.33,2.54-7.73,2.72-11.75,3-2.28.15-6.81.31-7,3.51-.09,1.57,1.42,2.37,2.69,2.81a8.08,8.08,0,0,0,4.35.64c1.4-.32,2-1.36,2.82-2.39,1.84-2.21,4.84-.81,6.55.79a7.27,7.27,0,0,1,2.19,2.78c.41,1.69-2.27,1.74-3.37,1.92l-7.6,1.19.3.1c1.47-3.81,5.69-5.62,9.57-5,.18,0,.83-.27.46-.33Z" transform="translate(35.88 -289.79)"/></g><g class="cls-1"><path class="cls-2" d="M8.32,631.16c-1.57-2.57.22-6.67,3.42-6.87,1.77-.11.83,3.36.43,4.27a14.49,14.49,0,0,1-2.94,4.09c-2.16,2.27-4.65,4.15-6.1,7-1.25,2.44-1.47,5.17.43,7.32a.46.46,0,0,0,.68-.12,26.8,26.8,0,0,1,7.35-7.58,29,29,0,0,1,4.77-2.67,33.35,33.35,0,0,0,4.46-1.82c2.22-1.42,1.54-4-.26-5.51-2.68-2.19-6.5-1.16-9.46-.26l.22.45a11.42,11.42,0,0,0,4.44-4.57,10.14,10.14,0,0,0,1-2.92c.13-.7,0-3.9,1.48-3.54l.34-.5a54,54,0,0,1-23.43-7.16A6.12,6.12,0,0,1-6,610.1c-.37-.35-.34-.35,0-.72a5,5,0,0,1,2.32-1.24,12,12,0,0,1,5,0c3.88.67,7.59,2.31,11.27,3.64a41.9,41.9,0,0,1,6,2.29c1.73.95,3.87,3.45.69,4.3-3.46.91-7.51-.27-10.76-1.42-6.21-2.18-12.71-6.05-19.53-5.18-3.1.39-6.17,2-6.64,5.33a50.22,50.22,0,0,0,0,7.36l.07,7.58a.26.26,0,0,0,.33.23c5.17-.7,5.7-6.52,7.43-10.43a9.66,9.66,0,0,1,2.09-3.18c1.49-1.42,5-1.94,4.57,1.1-.49,3.34-2.77,6.56-5.21,8.79a20.29,20.29,0,0,1-11.25,5.11.43.43,0,0,0-.4.29c-.91,3.23,2.45,5.65,4.69,7.32A55.5,55.5,0,0,1-10.75,645a25.81,25.81,0,0,0,5,3.93c2.5,1.36,6.41,2.28,8.75.09,1.85-1.73,1.82-4.95-.56-6.16-.18-.1-.89.1-.61.36a7.58,7.58,0,0,1,.47,10.29c-3.61,4.47-9.66,2.44-13.72-.25a83.64,83.64,0,0,1-6.63-5.12l-7.42-6c-2.11-1.71-4.84-3.59-5.72-6.3s1-4.3,3-5.43c1.85-1,3.94-1.77,5.42-3.33,1.05-1.1,1.61-2.69,2.85-3.61s3.07-.9,3.78.48l.45-.42c-2.72-.32-4.93,1.13-6.78,3-2.36,2.35-5.2,6.44-9.12,5.23-3.41-1-3.53-5.15-3.52-8.08,0-3.51.14-7.44,2.44-10.3a8.41,8.41,0,0,1,4.22-2.87c2-.59,3.88,0,5.79.7,2.19.84,5.2,1.73,6.93-.52s-1.93-3.41-3.21-4.55A6.44,6.44,0,0,1-20.34,599C-17.24,590.75-6,593.76,0,596.5l.05-.45a63,63,0,0,0-16.2,9.8c-.35.29.11.5.4.37,7.32-3.28,15.2-6.74,23.42-5.86a22.43,22.43,0,0,1,9.66,3.26,15.74,15.74,0,0,1,3.54,3.07,8.39,8.39,0,0,1,1.33,1.91c.5,1.15-.61,1.87-1.34,2.71a.2.2,0,0,0,0,.26,6.71,6.71,0,0,1-3.57,9.89c-.43.14-.32.61.14.49,4.88-1.38,5.74-7.14,9.9-9.4,3.51-1.9,7.27.77,9.36,3.54,2.23,2.94,4,7.24,2.66,10.92a7.09,7.09,0,0,1-3.94,4,5.42,5.42,0,0,1-3.22.41c-1.08-.33-2.25-1.73-3.11-2.45-.16-.14-.77,0-.64.3a67.83,67.83,0,0,0,5.71,9.92l.55-.4a8.33,8.33,0,0,0-6.8,1.09,6.19,6.19,0,0,0-2.13,2.41c-.86,1.77-.94,3.43-2.76,4.58a19.41,19.41,0,0,1-4.8,2c-2,.59-4.25.75-6-.54-2.27-1.64-2.9-4.66-3.3-7.27l-.49.35c7.42,1.19,13.86-4.1,16-11a36,36,0,0,0,1.19-12c-.15-3.38-1-6.84-3.82-9s-7-2.46-9.83-4.85c-1.3-1.1-2.72-3-2.35-4.81.52-2.48,3.94-2.57,5.94-2.85,4.53-.64,9.66-1,13.44,2.09a6.76,6.76,0,0,1,2.82,5.18c-.06,1.77-1.11,3.32-1.5,5A3.19,3.19,0,0,0,32,613.21c1.8.85,3.63,1.13,5.19,2.48,3,2.59,4.09,6.72,4.89,10.43.07.3.62.15.71-.06a19.1,19.1,0,0,1,13.91-10.85c.18,0,.38-.22.27-.41a15.6,15.6,0,0,0-7-6.11c-.42-.18-.84-.36-1.26-.51-.2-.06-1-.19-1.12-.34s.21-1.18.2-1.54a7.22,7.22,0,0,0-2.13-4.13c-3.86-4.4-9.57-9.47-15.9-8.19-2.57.52-5.17,2.11-5.56,4.91l.64-.24c-6.7-3.82-9.16-11.65-14.6-16.76a14.38,14.38,0,0,0-4-2.74c-1.31-.57-2.79-1.2-4.09-.38-2.58,1.61-1.8,5.58-2.34,8.12s-2.3,3.34-4.31,4.55c-1.22.73-2.55,1.68-2.11,3.28l.72-.2c-1.42-5.13-9.41-5.52-12.81-2.31-2.58,2.42-3.11,6.11-2.61,9.46.39,2.63,1.63,7.6,5.22,7.09.39-.06.56-.59.06-.52-3.26.46-4.31-4.81-4.6-7.13-.38-3,.11-6.21,2.27-8.44,3-3.14,10.45-2.66,11.75,2.05.09.33.81.13.72-.2-.51-1.89,2-2.8,3.26-3.55a6.15,6.15,0,0,0,2.73-2.7,12.58,12.58,0,0,0,.77-4.18c.1-1.44.1-3.23,1.07-4.41,1.25-1.51,3.55-.3,4.93.49a15.64,15.64,0,0,1,3.74,3,73.65,73.65,0,0,1,5.86,7.95c2.15,3.07,4.55,6,7.85,7.9.2.12.6,0,.64-.23.34-2.39,2.44-3.78,4.65-4.3a10.73,10.73,0,0,1,7.71,1.4,30,30,0,0,1,6.19,5c1.71,1.67,4.62,4.39,3.18,7a.2.2,0,0,0,.13.28,15.43,15.43,0,0,1,9.49,6.9l.26-.4C50.34,616,44.67,620,42.12,626l.71-.06c-.69-3.21-1.6-6.56-3.66-9.18a9.67,9.67,0,0,0-3.42-2.8c-1.68-.81-4.48-.92-4.94-3.13-.37-1.81,1-3.68,1.41-5.38a5.67,5.67,0,0,0-.8-4.51c-2-3.23-5.9-4.62-9.55-4.82a33.45,33.45,0,0,0-6.63.44c-1.63.23-3.54.35-5,1.26C7.45,599.63,9,603,11,604.86c2.8,2.56,6.94,2.79,10,5,3.58,2.6,3.87,7.21,3.82,11.26-.06,4.91-.62,10.15-3.54,14.27a13.17,13.17,0,0,1-12.63,5.55c-.21,0-.53.12-.49.36.37,2.5,1,5.28,2.92,7.05,2.34,2.13,5.58,1.69,8.34.7s5.5-2.08,6.49-5.15a6.39,6.39,0,0,1,3-4,7.33,7.33,0,0,1,5.41-.63c.19,0,.75-.1.54-.4a66.15,66.15,0,0,1-5.65-9.79l-.65.3,1.45,1.22a8.31,8.31,0,0,0,1.45,1.22,4.61,4.61,0,0,0,2.06.16,7.81,7.81,0,0,0,4.4-1.87c3-2.58,3.16-6.64,1.8-10.14s-4-7.24-7.82-8.3c-2.83-.81-5.42.37-7.29,2.5-2.24,2.55-3.73,6.3-7.28,7.3l.14.49a7.49,7.49,0,0,0,4.87-4.81,7,7,0,0,0,.2-3.58c-.13-.64-.48-1.17-.65-1.77s-.13-.46.25-1,.82-.93,1.22-1.39c0,0,.09-.14.06-.2-2.85-6-9.68-8.91-16-9.44-8.24-.7-16.1,2.72-23.45,6l.4.37a62,62,0,0,1,16-9.7c.22-.09.29-.34.05-.45-5.48-2.52-13.93-5-19.1-.46A8.5,8.5,0,0,0-21.57,602a6.45,6.45,0,0,0,3.72,5.61c.84.45,2.05,1.11,1.82,2.25s-2,1.84-3.14,1.75c-1.9-.16-3.6-1.27-5.44-1.7a8.62,8.62,0,0,0-7.93,2.45c-2.55,2.52-3.17,6.16-3.28,9.6-.08,2.81-.37,6.48,1.58,8.79,2.23,2.64,5.87,1.78,8.33,0,3.2-2.31,5.38-7.23,10-6.69.23,0,.59-.15.46-.42-.87-1.71-3.44-1.53-4.81-.56-1.15.81-1.74,2.12-2.57,3.2A10,10,0,0,1-26.39,629c-1.88,1-4.24,1.86-5.3,3.84-1.32,2.48.4,5,2.14,6.79a98.69,98.69,0,0,0,8.26,6.85c2.83,2.3,5.61,4.73,8.6,6.81,4.06,2.82,10,5.3,14.38,1.72,3.62-3,4.31-8.71.79-12l-.62.37c2.73,1.4,2,5.39-.79,6.26-3.39,1.07-6.87-1.09-9.33-3.2-1.21-1-2.33-2.16-3.54-3.19s-2.42-1.83-3.62-2.75c-2-1.53-4.73-3.67-3.93-6.52l-.4.29c7.18-.88,14.15-5.42,16.68-12.42.48-1.35,1.27-3.4-.22-4.4a3.91,3.91,0,0,0-3.78.1c-2.47,1.28-3.57,4.25-4.42,6.72-1,3-2,7.06-5.75,7.57l.33.23L-17,620.26c0-1.68-.2-3.59.68-5.11a6.22,6.22,0,0,1,4.09-2.64c6.14-1.48,12.57,2,18.13,4.12A34.5,34.5,0,0,0,14.37,619c2,.23,5.3.57,6.8-1.06,1.73-1.89-1.13-3.86-2.61-4.58s-3.1-1.17-4.64-1.73l-5.48-2c-4.39-1.59-12.06-4.58-15.58.18-.08.1-.1.24,0,.31a54.88,54.88,0,0,0,25.42,8.29c.24,0,.77-.39.33-.5-2.07-.52-2.39,1.88-2.53,3.37A10.23,10.23,0,0,1,11,629c-.35.21-.16.57.23.45,3.16-1,7.67-2.07,9.79,1.35s-3.06,4.46-5.34,5.5A28.37,28.37,0,0,0,3.55,646.77l.68-.12c-3.69-4.17.83-9.23,3.91-12.13,2.86-2.68,6.45-6.35,4.95-10.62a.29.29,0,0,0-.24-.17c-3.9-.1-7.45,4-5.19,7.75.17.27.86,0,.66-.32Z" transform="translate(35.88 -289.79)"/></g><g class="cls-1"><path class="cls-2" d="M-26.15,643.44a5.27,5.27,0,0,0-2.52,1c-.55.43-1.68,1.6-1.51,2.39s1.61,1.88,2.19,2.43a26.09,26.09,0,0,0,3,2.44,27,27,0,0,0,7.21,3.54c2.37.76,5.07,1.27,7,2.89s1.84,3.68,2.11,5.91c.21,1.78.93,3.35,2.88,3.66a9.79,9.79,0,0,0,3.4-.32q2.43-.49,4.8-1.23A47.05,47.05,0,0,0,10,663.09c1.87-1,4.24-2.74,2.34-4.93a29.05,29.05,0,0,0-4.28-3.44l-4.64-3.6-.47.35c3.77.26,6.6,3.92,10.51,3.49,2-.22,4.27-2.46,2.55-4.36-.14-.16-.81,0-.7.24a9,9,0,0,1-5.29,12.26c-.1,0-.24.14-.22.26.26,1.53,2.1,1.58,3.32,1.34a5.88,5.88,0,0,0,2.15-.89c1.35-.91,3.21-2.66,4.87-1.33a.51.51,0,0,0,.7-.19A60.48,60.48,0,0,0,24.05,644c0-.31-.69-.16-.73.09l-2.08,13.67-1,6.58c-.18,1.24-.48,2.81,1.05,3.26,2.41.71,5.31-1.93,6.91-3.38,2.53-2.29,4.58-5,7-7.48a23,23,0,0,1,9.11-5.7c3.24-1.12,6.61-1.86,9.82-3.09,2.9-1.11,6.11-2.75,7.73-5.53a5,5,0,0,0-1.48-6.83c-7.07-4.91-14.89,2-22.29,1l-.27.41,15.94-2.33c.09,0,.57-.18.38-.35l-9.63-8.55-.55.34a47.76,47.76,0,0,1,15.83,7.63c.15.11.78.05.7-.24a28.63,28.63,0,0,0-11.59-15.67c-.2-.14-.87.16-.57.36a28.35,28.35,0,0,1,11.43,15.5l.7-.24a48.17,48.17,0,0,0-16.06-7.74c-.13,0-.78.14-.56.34l9.63,8.56.38-.35-15.93,2.33c-.15,0-.67.35-.27.41,6.54.88,12.36-3.9,18.89-2.45,2.61.58,5.51,2.28,5.42,5.33-.11,3.67-4.1,6-7.09,7.3C49.3,649.59,43,650.14,38,653.7s-7.82,9.08-12.87,12.37a6.06,6.06,0,0,1-2.56,1.18c-1.88.19-1.79-1.45-1.6-2.74.34-2.28.7-4.55,1-6.83L24.05,644l-.73.09a60.16,60.16,0,0,1-3.17,18.28l.69-.19c-1.41-1.13-3.15-.49-4.54.37a10.8,10.8,0,0,1-2.92,1.69c-1.06.26-2.6.24-2.83-1.09l-.21.26c5.14-1.81,8.12-7.69,5.72-12.77l-.69.24a2.09,2.09,0,0,1-.33,3c-1.54,1.32-3.91.38-5.48-.4-2.07-1-3.94-2.32-6.31-2.48-.1,0-.69.19-.47.35l6.57,5.1a12.11,12.11,0,0,1,2.59,2.24c1,1.49-.09,2.77-1.36,3.57a33.61,33.61,0,0,1-7,3.1,34.43,34.43,0,0,1-7.79,1.93c-5.1.47-2.92-5.92-5-8.59-2.34-3-7.11-3.31-10.38-4.7A26.07,26.07,0,0,1-26.27,650,16.19,16.19,0,0,1-29,647.3c-1.17-1.63,1.3-3.21,2.72-3.45.35-.06.59-.5.1-.41Z" transform="translate(35.88 -289.79)"/></g><g class="cls-1"><path class="cls-2" d="M325,639.8a39.13,39.13,0,0,0,32.11-13.38c.12-.13-.09-.18-.18-.18-7-.16-14.44.12-20.66,3.64C331.14,632.79,327,638,327,644c0,.2.52,0,.58,0l11.32-6c.28-.15.07-.3-.16-.26l-4.82.84,0,.33a17.16,17.16,0,0,1,17.23,4.24,17.45,17.45,0,0,1,4.23,16.51l.42-.23a28.6,28.6,0,0,1-20.64-4.51c-2.56-1.74-6.09-4.4-5.84-7.88s4.14-5.16,7.15-4.61c3.92.71,6.74,4.13,9.14,7l.49-.32c-5.79.17-10-4.3-14.47-7.29-3.79-2.54-8.58-4.53-13-2.44l.36.21c3.89-2.24,7.8-4.46,11.69-6.72a8.2,8.2,0,0,0,3.2-2.72,5.14,5.14,0,0,0-.07-4.63c-1.44-3.27-4.15-6.22-6.53-8.84a65.54,65.54,0,0,0-8.31-7.75,67.54,67.54,0,0,0-10.47-6.72c-.15-.08-.61,0-.65.21-2.69,13.54,5.69,28.12,18.73,32.61.16.05.62,0,.66-.21A16.22,16.22,0,0,0,319.47,618c-.15-.08-.69,0-.66.26.48,3.47,2.88,6.17,4.5,9.15s2.11,6.78-1.07,9c-3.35,2.34-7.75,1.57-11.5,1-3.59-.58-7.38-1-10.66.91-.4.23.15.29.35.21a10.4,10.4,0,0,0,6-8.7c.51-4.53-1.45-8.69-4.39-12A49,49,0,0,0,290,608.44a46.58,46.58,0,0,0-14.23-5.75,24.42,24.42,0,0,0-15.47,1.63c-.05,0-.21.15-.12.22a37.78,37.78,0,0,1,8.44,8.63c2.46,3.52,3.94,7.57,6.28,11.16,3.83,5.85,10.31,9,17.08,10.11a38.56,38.56,0,0,0,11.6,0c.09,0,.55-.15.4-.31a97.67,97.67,0,0,0-16.65-14.47c-.18-.13-.85.14-.68.27a27.31,27.31,0,0,1,10.76,18.53c0,.14.34.07.41.05,7.23-1.55,14.69,2.69,18.35,8.86s2.86,14.15-1,20.18a22.65,22.65,0,0,1-9.41,8.34l.48,0c-7.07-5-14.43-12.31-14.86-21.52A17,17,0,0,1,295.17,643a13.11,13.11,0,0,1,5.07-3.9,10,10,0,0,1,2.84-.71c.75-.08,1.42-.22,1.67.64a10.12,10.12,0,0,1,.1,2.21l.94,19.62.72-.19-2.18-9-1.08-4.52a15.9,15.9,0,0,0-1.12-3.71c-1.78-3.36-7-3.39-10.22-2.73-3.4.71-6.87,2.56-8.72,5.6A8.12,8.12,0,0,0,282,651c.19,2.8,1.6,5.39-.4,7.91-1.63,2.06-4.33,3.16-6.63,4.31-2.81,1.4-5.64,2.77-8.52,4-4.48,1.94-10.76,3.86-14.78,0-3.53-3.42-3-9.18-1.66-13.46a27.39,27.39,0,0,1,6.9-11.09,30.09,30.09,0,0,1,13.48-7.69,26.27,26.27,0,0,1,7.54-.85c1.94.06,7.46.2,7.13,3.14l.59-.23c-11.55-1.11-19.5,9.79-24.93,18.43-.16.26.56.17.67,0,5.14-8.2,12.78-19.13,23.81-18.06.13,0,.56,0,.58-.23.23-2.09-2.33-2.75-3.92-3a26.26,26.26,0,0,0-6.68-.3,30.07,30.07,0,0,0-12,3.67c-7.76,4.27-14.32,12.32-14.87,21.43-.27,4.6,1.55,9.36,6.4,10.59,4.5,1.13,9.32-.79,13.36-2.62q4.37-2,8.65-4.15c2-1,4.13-2.05,5.55-3.83,1.73-2.16,1.06-4.43.62-6.91a8.12,8.12,0,0,1,1.45-6.47,13.13,13.13,0,0,1,14.3-4.18c3.54,1.26,3.75,5.38,4.51,8.55l2.64,11c0,.22.73,0,.72-.19l-1.07-22.57c0-.05-.1-.08-.14-.08-6.15-.42-11.21,4-13.43,9.46-2.79,6.86-.42,14.11,3.95,19.73a45.17,45.17,0,0,0,9.69,8.93.54.54,0,0,0,.48,0,23.11,23.11,0,0,0,13.13-17.61,18.59,18.59,0,0,0-9.89-18.6,16.91,16.91,0,0,0-11.54-1.72l.4.06a27.46,27.46,0,0,0-10.81-18.6l-.68.27a97.67,97.67,0,0,1,16.65,14.47l.4-.31c-7.58,1.13-16,.22-22.41-4.18a23.91,23.91,0,0,1-7.66-9.25,52.06,52.06,0,0,0-6.74-10.81,36.47,36.47,0,0,0-4.41-4.29c-.18-.15-1.29-.84-1.29-1,0-.42.82-.59,1.12-.7a19.74,19.74,0,0,1,3.59-1A27.48,27.48,0,0,1,278.94,604a52.09,52.09,0,0,1,11.78,5.58,50.29,50.29,0,0,1,9.86,7.61c2.93,3,5.23,6.87,5.24,11.19,0,4-1.78,8.28-5.66,9.9l.35.21c3.56-2.06,7.81-1,11.63-.42a17.84,17.84,0,0,0,7.83-.23,7.38,7.38,0,0,0,4.94-3.84c1.08-2.46.14-5-1.11-7.18-1.61-2.81-3.81-5.42-4.26-8.72l-.66.26a16,16,0,0,1,7.62,16.56l.65-.21c-12.95-4.46-21.27-19-18.6-32.39l-.65.21A66.84,66.84,0,0,1,324.74,615a64.32,64.32,0,0,1,6.76,8.08,10,10,0,0,1,2.17,5c.1,2.15-1.45,3.49-3.14,4.49-4,2.36-8,4.6-12,6.9-.39.22.15.3.36.2,5.34-2.51,10.9,1.54,15,4.63,3.5,2.64,7.31,5.36,11.89,5.23.11,0,.64-.13.49-.32-2.42-2.9-5.19-6.21-9.07-7a8,8,0,0,0-7.41,2.27c-2.56,2.89-.56,6.4,1.86,8.59a28,28,0,0,0,10.76,6,29.46,29.46,0,0,0,13.26.84c.12,0,.38-.09.42-.23A17.61,17.61,0,0,0,351,642.07a18,18,0,0,0-17.16-3.49c-.29.09-.46.41,0,.33l4.82-.84-.17-.26-11.32,6.05h.59c0-5.89,4-11,9-13.8,6-3.4,13.21-3.6,19.92-3.44l-.18-.18a37.78,37.78,0,0,1-31,13c-.2,0-.84.33-.46.36Z" transform="translate(35.88 -289.79)"/></g><path class="cls-2" d="M236.62,427.51c1.57,3.38,1.29,7.31.78,10.9-.54,3.77-1.5,7.44-2.23,11.17-.82,4.18-1.53,8.3-3.67,12.05-2.39,4.18-6.27,6.6-10.22,9.11a67.29,67.29,0,0,0-10.05,7.65,47.8,47.8,0,0,0-4.41,4.7,19.44,19.44,0,0,0-3.37,5.25c-1.09,3,.73,5.1,2.79,7.09a28.63,28.63,0,0,0,6.88,5.16A22.85,22.85,0,0,0,218,502c1.79.44,3.59.84,5.36,1.38a24.16,24.16,0,0,1,10,6.05.45.45,0,0,0,.68-.11c1.52-2.9-.15-5.9-2-8.25s-5.12-3.93-8-4.89c-5.34-1.77-11.2-1.42-16.69-2.48-.18,0-.47.09-.49.29-.21,1.61,1.55,2.59,2.77,3.18a33.9,33.9,0,0,0,6.9,2.23c2.78.67,5.59.89,8.39,1.43a10.94,10.94,0,0,1,8.14,6.76,10.69,10.69,0,0,1,1,5.73c-.26,1.9-.86,3.71-1,5.63l.57-.27c-3.23-1-6.49-1.89-9.66-3s-6.17-2.18-9.51-2.14c-5.72.07-10,3.66-12.32,8.67-2.62,5.62-3.32,12.15-3.87,18.26a114.89,114.89,0,0,0,4.44,43.59,64.24,64.24,0,0,0,3.57,9.81,11.82,11.82,0,0,0,5.77,6c3,1.31,6.4,1.48,9.6,1.75,3.62.3,7.24.45,10.87.48a142.77,142.77,0,0,0,22.43-1.63,157.61,157.61,0,0,0,24.24-5.94c7.76-2.48,15.91-3.37,23.61-6,.43-.15.31-.65-.13-.5-6.39,2.21-13.07,3.18-19.6,4.88-3.32.87-6.56,2-9.86,3s-6.93,1.89-10.45,2.64a141.72,141.72,0,0,1-43.19,2.35c-3.15-.31-6.51-.7-9.11-2.67s-3.9-5.23-5-8.23A113.26,113.26,0,0,1,200.15,570c-2.3-13.42-2.47-27.77.49-41.11,1.34-6,4.21-13,10.87-14.53,4-.93,7.89.24,11.59,1.61,3.31,1.23,6.71,2.16,10.09,3.2.18.06.56,0,.57-.27.21-3.2,1.6-6.14.76-9.36a13.21,13.21,0,0,0-4.92-7.51c-2.83-2-6.28-1.86-9.54-2.42a54.48,54.48,0,0,1-6.88-1.72c-1.6-.51-5.89-1.63-5.6-3.95l-.49.29c5.15,1,10.49.86,15.59,2.17a17.69,17.69,0,0,1,8,4.13c2.13,2.17,4.22,5.71,2.65,8.7l.68-.11a24.75,24.75,0,0,0-7.95-5.44,76.55,76.55,0,0,0-9.43-2.62,14.3,14.3,0,0,1-4-1.49A32.18,32.18,0,0,1,209,497c-2-1.61-5.32-4.13-5.2-7,.1-2.41,1.92-4.58,3.35-6.38a46.56,46.56,0,0,1,4.36-4.74,67.42,67.42,0,0,1,10.6-8.05c3.56-2.25,7.08-4.49,9.43-8.09a30.32,30.32,0,0,0,4-11.54c.7-4.12,1.81-8.16,2.45-12.29.58-3.79,1-8-.7-11.6-.15-.32-.86-.11-.73.19Z" transform="translate(35.88 -289.79)"/><path class="cls-2" d="M210.92,596.36c-6.15-2.5-12.25-4.91-17.89-8.46a29.54,29.54,0,0,1-5.06-3.49c-1.56-1.52-1.63-3.82-1.93-5.85q-1-6.67-1.62-13.39c-1.82-18.32-2.13-36.74-2.33-55.13s-.48-36.92.66-55.35c.29-4.57.64-9.15,1.15-13.71a11.45,11.45,0,0,1,1.83-5.89,11.71,11.71,0,0,1,4.32-3.2c4.23-2,8.73-.85,12.91.7,3.9,1.44,7.67,3.19,11.6,4.53a34.09,34.09,0,0,0,4.95,1.32,13.39,13.39,0,0,0,5.56.21,10.91,10.91,0,0,0,3.87-1.69c1.12-.79,2.21-1.64,3.27-2.5,1.61-1.31,3.08-2.77,2.65-5-.4-2.05-2-3.77-3.49-5.11a14.18,14.18,0,0,0-1.13-.92c-.24-.18-.89.17-.56.4a14.26,14.26,0,0,1,3.38,3.42,5.44,5.44,0,0,1,1.13,3.52,4.9,4.9,0,0,1-2.12,3.15c-2.6,2.15-5.27,4.47-8.83,4.44-4,0-7.81-1.45-11.45-2.85-6.84-2.65-14.88-7.45-22.22-3.91-2.9,1.4-5.17,3.45-5.95,6.65a41.42,41.42,0,0,0-.79,6.19q-.33,3.43-.58,6.89c-1.32,18.43-1.11,36.91-.92,55.37.18,18.19.39,36.41,2,54.54q.58,6.84,1.47,13.66c.29,2.2.54,4.43,1,6.62a6.05,6.05,0,0,0,2.56,4,77.44,77.44,0,0,0,16.94,9.15l5.26,2.14c.28.11.84-.3.42-.47Z" transform="translate(35.88 -289.79)"/><path class="cls-2" d="M197.62,404.67a12.28,12.28,0,0,1-4.21-6.78,17.52,17.52,0,0,1,.49-7.65,59,59,0,0,1,6.55-16.83c3.38-5.56,7.74-10.44,12.14-15.19s8.81-9.3,13.42-13.76c5.49-5.31,11.18-10.41,17-15.36.14-.12-.52-.05-.65.06A356.34,356.34,0,0,0,213.11,357a112.5,112.5,0,0,0-12.48,15.09,59.58,59.58,0,0,0-7.18,17.21,20.35,20.35,0,0,0-.87,8.16,12.36,12.36,0,0,0,4.35,7.42c.14.13.78-.15.69-.24Z" transform="translate(35.88 -289.79)"/><path class="cls-2" d="M243.36,329.29A96.75,96.75,0,0,1,264.68,323a107.86,107.86,0,0,1,21.62-1.13c16,.62,31.66,4.69,46.87,9.51,7.55,2.4,14.67,5.28,21.16,9.89,5.65,4,11.1,8.46,16.48,12.85A74.57,74.57,0,0,1,384,367.34a40.59,40.59,0,0,1,4.79,8.37A92.56,92.56,0,0,1,392,385.5a46.54,46.54,0,0,1,2.08,10.12,35.07,35.07,0,0,1-1.23,10.92c-1.82,6.95-5.13,13.37-8.1,19.88a21.33,21.33,0,0,1-3.77,6.41,13.57,13.57,0,0,1-5.78,4c-2.45.67-3.58-1.48-3.24-3.68.4-2.59,2.25-4.76,3.86-6.73s3.36-3.87,4.29-6.22a10.75,10.75,0,0,0,.56-3.91c0-2.08.08-4.16.09-6.24,0-7.78-.35-15.64-2.35-23.2-3.5-13.2-11.66-24.89-21.65-34-9.45-8.65-22.28-15.5-35.26-11.08S301,358.44,297.56,371c-2,7.15-3,14.77.15,21.75a49.87,49.87,0,0,0,5.63,8.95q3.42,4.59,7.21,8.88c4.9,5.55,10.37,10.4,15.77,15.44,5.13,4.79,10.76,10.63,10.68,18.13a32.81,32.81,0,0,1-2.43,10.75,11.39,11.39,0,0,1-1.85,3.84,7.37,7.37,0,0,1-3.51,2,25.32,25.32,0,0,1-9.06.44c-3.69-.3-7.35-.92-11-1.41-8.07-1.07-16.15-2.06-24.16-3.49a49.76,49.76,0,0,1-10.36-2.6,16,16,0,0,1-4.26-2.54c-.78-.67-.83-1.14-.2-2a5.84,5.84,0,0,1,2.19-1.61c1.19-.57,2.45-.95,3.65-1.47,1.84-.8,3.63-1.68,5.5-2.43a65.72,65.72,0,0,1,11.22-3.42,44.71,44.71,0,0,1,20.61.22,33,33,0,0,1,8.56,3.63,68.61,68.61,0,0,1,9.14,6.34c2.37,2,4.07,5.22,3.5,8.39-.62,3.43-3.72,5.15-6.91,5.6-3.35.46-6.75-.1-10.06-.57q-5.81-.83-11.55-1.94c-7.87-1.54-15.55-4.08-23.49-5.23-6.24-.9-12.64-.7-18.46,1.95-5,2.29-9.31,6.32-10.72,11.79a25.43,25.43,0,0,0,0,10.88c.73,3.92,1.8,7.79,2.76,11.66l3,12c.85,3.45,2.66,8,.84,11.37-.88,1.65-2.48,2.66-4,3.7-1.32.94-2.64,1.88-4,2.77-2,1.33-4.91,3.46-7.49,3s-3-3.69-3.44-5.79a23.49,23.49,0,0,0-2-6.24c-.53-1-1.34-1.79-2.51-1.41-1.87.62-2.81,3.31-3.49,4.91-.1.24.62.16.72-.09.42-1,1.8-4.79,3.35-4.46,1,.22,1.61,2,1.91,2.81a37.37,37.37,0,0,1,1.25,4.4,14.86,14.86,0,0,0,1.4,4.55c1.38,2.25,4,2,6.11,1.14,3.49-1.38,6.54-3.86,9.58-6a8.76,8.76,0,0,0,3.75-4.44c.63-2.09.18-4.36-.31-6.43-1.26-5.34-2.63-10.67-3.95-16-2.22-9-6.42-20.29.26-28.42,6.12-7.45,16.52-8.55,25.43-7.19,5.21.79,10.28,2.26,15.39,3.5,5.3,1.27,10.65,2.3,16,3.13,4.15.65,8.48,1.52,12.7,1.14,3.15-.28,6.53-1.46,8-4.49,1.63-3.33.1-7.41-2.45-9.83a42.76,42.76,0,0,0-5.43-4.11c-1.87-1.25-3.77-2.5-5.75-3.57-7.22-3.9-15.66-4.82-23.72-3.85a62,62,0,0,0-13.48,3.26c-2.58.92-5.08,2-7.57,3.16-1.55.72-3.22,1.18-4.73,2a5.2,5.2,0,0,0-2.75,3.05.12.12,0,0,0,0,.1c3.17,3.15,7.5,4.42,11.76,5.3,5.37,1.12,10.81,1.92,16.25,2.67,5.64.78,11.3,1.48,16.94,2.28a55.33,55.33,0,0,0,12.32.81c2.9-.26,6.25-1.09,7.89-3.74a27.64,27.64,0,0,0,2.35-6.18,28,28,0,0,0,1.39-7.53c.23-9.82-8.76-16.76-15.36-22.74A131.34,131.34,0,0,1,301.56,398c-3.07-4.53-5.18-9.39-5.2-15a48.74,48.74,0,0,1,2.92-15.37c3.08-9.3,8.54-18.1,17.16-23.16a26.43,26.43,0,0,1,14.4-3.75A32.79,32.79,0,0,1,345,345c8.43,4.6,15.62,11.76,21.37,19.38a64.91,64.91,0,0,1,12.23,26.72,94.19,94.19,0,0,1,1.42,16.85c0,2.8,0,5.61-.09,8.41a10.12,10.12,0,0,1-1.33,5.43c-1.88,3.18-4.87,5.62-6.53,9-.92,1.83-1.76,5.6.88,6.51,2.15.73,4.71-1,6.31-2.21a19.3,19.3,0,0,0,3.41-3.35,18.11,18.11,0,0,0,2.27-4.17c3.9-8.75,8.77-17.45,9.75-27.15a37.6,37.6,0,0,0-1.73-14.2,72.21,72.21,0,0,0-4.74-13.39c-4-7.68-10.31-13.69-16.92-19.08-3.49-2.85-7.08-5.56-10.61-8.36a83,83,0,0,0-12.8-8.79,89.06,89.06,0,0,0-14.53-5.66c-5.22-1.65-10.48-3.21-15.79-4.57-19.64-5-40.74-7.27-60.61-2.1A105.26,105.26,0,0,0,243.07,329c-.47.19,0,.46.29.32Z" transform="translate(35.88 -289.79)"/><path class="cls-2" d="M301.31,588.11a191.81,191.81,0,0,0,22.81-8.19c5.57-2.41,11.53-4.54,16.49-8.08a18.34,18.34,0,0,0,5.54-5.89,37.17,37.17,0,0,0,3.3-9.77c.82-3.61,1.45-7.27,2.44-10.84a105.1,105.1,0,0,1,4.35-11.94c5.83-14,13.48-27.17,20.62-40.54,6.91-12.92,13.43-26.2,17.17-40.42,2-7.65,3-15.54,4.21-23.34.59-3.68,1.12-7.38,1.44-11.09a25.3,25.3,0,0,0-.49-9.22,11,11,0,0,0-1.92-3.77c-.15-.19-.65,0-.7.19-2.5,12.79-6.39,25.24-10.25,37.67-1,3.1-1.72,6.35-3,9.34-.94,2.25-1.75,4.56-2.49,6.89-1.6,5-2.93,10.15-4.67,15.14a53.82,53.82,0,0,1-8.93,16.65c-.05.06-.11.15,0,.22s.75.59.87.88c.23.53-.49,1-.75,1.41a1.94,1.94,0,0,1-1,1c-.55.27-1.12.5-1.69.73-1.7.7-3.75,1.5-4.36,3.42-.89,2.79,1.58,5.76,3.26,7.73a62.7,62.7,0,0,0,7.91,7.28c.22.18.9-.11.67-.3-3.29-2.72-16.77-13-8.83-17.06,1.2-.61,2.49-1,3.69-1.63a2.69,2.69,0,0,0,1-.66c.07-.1.12-.44.19-.55s.27-.32.4-.51a2.18,2.18,0,0,0,.33-.52c.18-.54,0-.59-.37-.95-.1-.1-.49-.37-.5-.5a6.89,6.89,0,0,1,.73-.91,43.61,43.61,0,0,0,3.47-5.17c4-6.93,6.07-14.68,8.34-22.29.57-1.91,1.16-3.81,1.8-5.7s1.45-3.64,2.1-5.48c1.63-4.54,2.87-9.27,4.29-13.89a314.31,314.31,0,0,0,8.6-32.34l-.7.19c4.06,5.16,2.45,13.11,1.63,19.08-.54,4-1.25,8-1.89,11.92-.6,3.75-1.07,7.52-1.86,11.24-3,14.27-9.1,27.65-15.81,40.53s-14.14,25.48-20.24,38.72c-3.21,7-6.31,14.19-8,21.69-.8,3.48-1.41,7-2.34,10.45-.88,3.29-2,6.69-4.22,9.32-3.93,4.6-9.92,6.94-15.34,9.26-7.14,3.05-14.23,6.05-21.63,8.44q-2.81.9-5.66,1.73c-.43.12-.33.54.11.41Z" transform="translate(35.88 -289.79)"/><path class="cls-2" d="M195.84,435.12a5.55,5.55,0,0,1,4.52.49c.6.45,1,1.1,1.63,1.56a14.07,14.07,0,0,0,4.82,2.2,36.93,36.93,0,0,0,11.85,1.08,28.69,28.69,0,0,0,11.26-3.09,16.44,16.44,0,0,0,5.57-4.2c1.36-1.69,2.7-4.41,1.57-6.53a10.85,10.85,0,0,0-2.41-2.65q-1.83-1.69-3.7-3.33-3.57-3.15-7.28-6.12-7.33-5.86-15.18-11.06-3.87-2.57-7.85-5c-1.21-.72-3.39-2.57-4.65-.91s-.33,4.93.56,6.63a14.39,14.39,0,0,0,5.16,5.43,55.76,55.76,0,0,0,8.85,4.06c2.63,1.09,5.16,2.41,7.76,3.58a78.8,78.8,0,0,1,11.3,6.42c.17.11.8-.18.68-.26a69,69,0,0,0-9.37-5.54c-3.92-1.8-7.78-3.7-11.78-5.3-4.88-2-10.29-4.34-12.35-9.6a8.88,8.88,0,0,1-.63-3.26c0-.51,0-1.57.35-2,.84-.91,1.85,0,2.66.52,2.46,1.46,4.9,3,7.3,4.54a207.82,207.82,0,0,1,27.33,21.23,9.79,9.79,0,0,1,2.69,3.08,5.39,5.39,0,0,1-.54,4.25,12.65,12.65,0,0,1-5.45,5.29,26.7,26.7,0,0,1-11.83,3.45,32.46,32.46,0,0,1-13.16-1.69,11.78,11.78,0,0,1-2.56-1.34,15.23,15.23,0,0,1-1.66-1.55c-1.41-1.31-3.82-1.16-5.53-.7-.42.11-.36.36.07.25Z" transform="translate(35.88 -289.79)"/><path class="cls-2" d="M237.74,436c-.11,2.28-2.61,3.61-4.45,4.39a39.05,39.05,0,0,1-9.76,2.46,71.85,71.85,0,0,1-22.39.11c-1.86-.33-5.38-.79-6.3-2.79-.09-.19-.79.05-.72.2.83,1.8,3.73,2.34,5.43,2.69a54.11,54.11,0,0,0,10.78,1,86.8,86.8,0,0,0,12.59-.8,42.41,42.41,0,0,0,10.47-2.56c2.05-.85,5-2.29,5.07-4.86,0-.13-.71,0-.72.2Z" transform="translate(35.88 -289.79)"/><path class="cls-2" d="M289.77,440.32c-6.62-.63-13.32,2.45-18.3,6.63-1.47,1.23-2.7,2.72-4.05,4.08a81,81,0,0,1-6.47,6,9.42,9.42,0,0,1-2.91,1.95c-2.88.77-2.49-2.77-1.9-4.41,1.42-4,5.2-6.62,8.73-8.61a61.59,61.59,0,0,1,25.62-7.66,64,64,0,0,1,25.86,3.35c3.65,1.28,7.47,2.75,10.46,5.27,1.46,1.22,2.82,2.55,4.2,3.86a12.8,12.8,0,0,0,3.34,2.67c4.7,2,10.11-2.71,12-6.64,1.07-2.27,1.77-6.05-.46-7.88s-5.63-1.33-8.25-.94c-6,.89-11.86,2.25-17.84,3.07a93.62,93.62,0,0,1-22.38.31c-2.53-.25-5-.59-7.55-1-.17,0-.79.25-.59.28a106.06,106.06,0,0,0,24.2,1.33,163.17,163.17,0,0,0,18-2.71c3.11-.58,6.46-1.45,9.64-1.34,1.67.05,3.7.44,4.74,1.91a6.43,6.43,0,0,1,.61,4.64,12.34,12.34,0,0,1-5.37,7.67,7.22,7.22,0,0,1-4.83,1.37,6.78,6.78,0,0,1-3.56-2.11c-2.48-2.28-4.84-5-7.84-6.66a56.94,56.94,0,0,0-11.74-4.61,65.13,65.13,0,0,0-24.7-1.91,63.53,63.53,0,0,0-22.92,7.07c-3.22,1.73-6.52,3.78-8.67,6.82-1.34,1.9-3.66,7.49.64,7.22,1.67-.11,3.27-1.62,4.48-2.62a82.74,82.74,0,0,0,6.44-6,51.91,51.91,0,0,1,4.15-4.11,28.65,28.65,0,0,1,10-5.32,18.33,18.33,0,0,1,6.83-.66c.16,0,.83-.26.47-.3Z" transform="translate(35.88 -289.79)"/><path class="cls-2" d="M194.82,440.16a4.34,4.34,0,0,1-1.36-1.73,2,2,0,0,1,.34-1.84,4.82,4.82,0,0,1,1.22-1.12,3.22,3.22,0,0,1,.51-.28l.12-.05s0,0,0,0-.08,0-.08,0-.16,0-.15-.1c0,.27.7.14.72-.09s-.64-.15-.8-.09a4.6,4.6,0,0,0-1.19.7c-.92.68-1.84,1.78-1.47,3a4.55,4.55,0,0,0,1.43,1.88c.18.16.86-.11.68-.28Z" transform="translate(35.88 -289.79)"/></svg>