<svg id="Lager_1" data-name="Lager 1" xmlns="http://www.w3.org/2000/svg" viewBox="0 0 265.36 302.17"><defs><style>.cls-1{opacity:0.48;}.cls-2{fill:#fff;}</style></defs><g class="cls-1"><path class="cls-2" d="M136.92,339.35a14.41,14.41,0,0,0,15.5-3.24,13.82,13.82,0,0,0,1.45-16.74c-.22-.35-.58-1.09-1-1.23-.61-.23-2,.25-2.63.34l-6.63,1c-4.08.59-8.23,1-12.27,1.81-2.41.47-5.16,1.35-6.44,3.63-1.38,2.47-.25,5.43,1.68,7.24,2.71,2.55,6.73,2.65,10.24,2.49,2.15-.11,6.48-.3,6.55-3.31a.17.17,0,0,0-.14-.18A15.67,15.67,0,0,0,128.87,335c-.05,0-.11.15,0,.22,7.4,6.78,15.36,14.19,18.57,24,.7,2.15,2,5.77.66,7.85-2.11,3.29-6.39.69-8.51-1.05-4.09-3.37-8.28-6.95-11.26-11.38-3.38-5-5-11.75-2.13-17.39l-.68.13a36.28,36.28,0,0,1,10.81,15.06l.7-.25L127.17,337c-.73-1.12-.48-2.09-.59-3.34a10.72,10.72,0,0,0-1.09-3.75,10.2,10.2,0,0,0-.61-1.07c-.32-.48-.95-1-1-1.54-.12-1.2,1.82-1.44,2.67-1.56,1.51-.22,3.18-.3,4.44-1.27a4.92,4.92,0,0,0,1.64-4.21,17.64,17.64,0,0,0-1.59-5.94c-1-2.55-2-5.11-2.87-7.72-1.87-5.75-3-12-.43-17.78a.14.14,0,0,0-.06-.2,7.21,7.21,0,0,0-7.52,1.41c-2.77,2.33-3.59,5.85-3.26,9.34.42,4.33,2.24,8.58,4,12.52a82,82,0,0,0,6.27,11.45c.13.2.78,0,.69-.24a35.81,35.81,0,0,0-9.32-14.61c-.15-.15-.68-.07-.69.18a15.5,15.5,0,0,0,4,11.54c1.38,1.57,3.13,3.27,2.9,5.55a2.4,2.4,0,0,1-2.94,2.41,22.88,22.88,0,0,1-3.34-.9,52.43,52.43,0,0,1-21.38-13.08,51.88,51.88,0,0,1-8.38-11.11l-.38.36c12.9-.46,23.16,9.6,30.48,19.09l.11-.28c-3.95,2.33-8.66-1.07-12-3.12l-5.52-3.41-3-1.84a10,10,0,0,1-1.34-.88,2,2,0,0,1-.55-.72c.12-.35.24-.42.34-.18-.45.21,0,.49.3.33,1.14-.52-.56-1.59-1.22-.82s.47,1.72,1.05,2.11c1.71,1.17,3.54,2.2,5.3,3.29,3.11,1.92,6.19,4.19,9.58,5.57,2.46,1,5.09,1.32,7.45-.08.09,0,.18-.17.1-.27-7.5-9.71-17.9-19.7-31.06-19.23-.17,0-.5.16-.38.37a52.76,52.76,0,0,0,19,19.38,51.66,51.66,0,0,0,12.5,5.38c1.54.43,3.44,1,4.83-.1a4,4,0,0,0,.88-4.42c-.92-2.37-3.22-4-4.52-6.11a15.14,15.14,0,0,1-2.1-8.91l-.7.19a35.8,35.8,0,0,1,9.27,14.51l.7-.24a80,80,0,0,1-8.7-17.62C117.23,300,116,291.58,122.87,289a5.8,5.8,0,0,1,2.37-.4,2.89,2.89,0,0,1,1,.16c.61.28.52.31.46.9a13.51,13.51,0,0,1-.56,1.66,17,17,0,0,0-.5,2.44,24.76,24.76,0,0,0,.5,8.45,63.07,63.07,0,0,0,2.95,9.29c1,2.51,2.24,5,2.66,7.7a6.48,6.48,0,0,1-.42,4.12c-.81,1.44-2.33,1.74-3.83,1.94-1.73.24-3.94.37-4.56,2.32a.12.12,0,0,0,0,.1,10.55,10.55,0,0,1,2.84,5.87c.12.9-.15,1.93,0,2.79A6.61,6.61,0,0,0,126.9,338l.94,1.45,8.48,13.06c.13.2.79,0,.7-.25a36.61,36.61,0,0,0-10.87-15.15.5.5,0,0,0-.67.12c-2.73,5.34-1.54,11.7,1.46,16.66a36.65,36.65,0,0,0,6.2,7.4,66.14,66.14,0,0,0,7.14,6.13c1.88,1.32,4.14,2.14,6.4,1.29,2.54-1,2.84-3.27,2.43-5.68-1-5.85-3.94-11.12-7.58-15.72a75.88,75.88,0,0,0-6.2-6.85c-1.05-1-2.12-2.07-3.19-3.08L130.67,336c-.16-.15-.83-.61-.88-.81-.11-.5.43-.74.8-1a14.49,14.49,0,0,1,9.28-3c.61,0,2.13-.08,2.58.33s0,1.1-.42,1.45c-1.12,1.08-3,1.14-4.45,1.22-3.43.19-7.45.26-10.17-2.19-2.08-1.86-3.29-5.11-1.45-7.56s5.47-2.75,8.26-3.15l11.05-1.6a60,60,0,0,1,6.39-.92c.62,0,.69-.09,1.13.35a5.72,5.72,0,0,1,.7,1.06,12.45,12.45,0,0,1,1.09,2.41,14,14,0,0,1-.1,9.18c-2.45,6.7-10.47,9.93-17,7.27-.24-.1-.89.24-.57.37Z" transform="translate(-54.08 -288.12)"/></g><g class="cls-1"><path class="cls-2" d="M157.25,314.3c4-1.39,8-2.68,12-4.22,3.3-1.29,6.6-2.95,8.94-5.69,3.36-3.95,3.74-11.55-1.7-13.93a.47.47,0,0,0-.51.13c-2.81,3.07-8,1.54-11.69,2.3a16.37,16.37,0,0,0-9.54,5.91A16,16,0,0,0,151.55,310a15.22,15.22,0,0,0,.62,3.13c.21.67.44,1.52,1.13,1.86a2,2,0,0,0,1.5,0,29.22,29.22,0,0,0,3.33-1.5,106.69,106.69,0,0,0,14.39-8.32c.33-.23,0-.51-.32-.45a24.57,24.57,0,0,0-15.42,11.43c-.12.21.16.35.32.34,3.28-.33,6.42-1.47,9.69-1.83a24.67,24.67,0,0,1,8.56.6,25.42,25.42,0,0,1,14.22,9.4l.16-.39c-5.81,3.44-12.76,4.07-19.32,2.83a46.13,46.13,0,0,1-9.65-3.07q-2.25-1-4.42-2.13c-1.4-.73-4-2-3.28-4l-.55.21a59.81,59.81,0,0,0,23.54,6.55c.18,0,.69-.19.46-.44a27.74,27.74,0,0,0-25.71-8.13l.44.25a26.89,26.89,0,0,0-8.55-22.49.44.44,0,0,0-.63.16c-2.83,9.55,2.8,18.85,7.85,26.55.17.26.66.09.7-.18a26.24,26.24,0,0,0-6.55-20.9c-.23-.26-.92,0-.66.33a25.83,25.83,0,0,1,6.47,20.61l.7-.19c-4.95-7.54-10.59-16.74-7.81-26.11l-.63.16a26.41,26.41,0,0,1,8.37,22.1c0,.24.28.28.44.25a27,27,0,0,1,24.91,7.92l.45-.45a59.35,59.35,0,0,1-23.38-6.51.44.44,0,0,0-.55.21c-1.11,3,3.76,4.78,5.75,5.74a51.3,51.3,0,0,0,10.75,3.87c7.11,1.6,14.82,1.11,21.19-2.66.13-.07.28-.24.17-.39a25.94,25.94,0,0,0-14.06-9.49,25.33,25.33,0,0,0-8.4-.84c-3.61.26-7,1.55-10.62,1.91l.33.33a23.69,23.69,0,0,1,14.86-11l-.31-.45a108.61,108.61,0,0,1-11.55,6.89c-1,.49-1.92,1-2.89,1.42s-2.22,1.27-3.42,1.21c-.93-.06-.95-.37-1.22-1.16-.15-.44-.26-.9-.37-1.35a15.35,15.35,0,0,1,14.32-18.69c3.31-.13,7.2.41,9.67-2.29l-.51.13a7,7,0,0,1,3.86,6.56,10.16,10.16,0,0,1-3.24,7.55A24.61,24.61,0,0,1,167.9,310c-3.57,1.32-7.2,2.53-10.8,3.78-.43.15-.3.69.15.53Z" transform="translate(-54.08 -288.12)"/></g><g class="cls-1"><path class="cls-2" d="M192.51,388.66c3.3-.61,7.26-1.19,9.86,1.48s1,6.06-.77,8.54l.65-.21c-3.1-.7-2.72-4.82-3.2-7.18a4.8,4.8,0,0,0-2-3.18,3.71,3.71,0,0,1-1.31-1.24c-.45-1,.38-1.72,1.22-2a11,11,0,0,1,5.35-.09,9.49,9.49,0,0,1,4.17,1.76,8.72,8.72,0,0,1,3.06,8.08c-.49,3.66-3.09,6.67-6.18,8.49-.3.17.42.08.55,0a12.62,12.62,0,0,0,6.23-8,8.83,8.83,0,0,0-3.2-9,12.54,12.54,0,0,0-9.44-1.63c-1,.2-2.43.68-2.59,1.82a1.71,1.71,0,0,0,.77,1.55,7.68,7.68,0,0,1,2,1.8c1.57,2.64,0,8.2,4,9.09a.79.79,0,0,0,.66-.2c1.95-2.7,3.34-6.47.35-9-2.8-2.36-6.7-1.73-10-1.12-.28,0-.65.34-.14.25Z" transform="translate(-54.08 -288.12)"/></g><g class="cls-1"><path class="cls-2" d="M201.91,407.93c-1.12-4.12-2.39-8-5.66-10.94-1.82-1.62-3.5-3.13-4.39-5.47a10.9,10.9,0,0,1-.39-6.44.2.2,0,0,0-.09-.19,2.34,2.34,0,0,0-3.09.18c-1.31,1.17-1.23,3.32-1.38,4.91l-.64,6.76a44.19,44.19,0,0,0-.48,6.69c.2,3.52,2.67,5.21,5.9,5.87a61.94,61.94,0,0,0,13.67.89l0-.53c-1.8.33-1.95,2.75-.76,3.86a4,4,0,0,0,3.48.61,38.13,38.13,0,0,0,5.58-1.88c2.52-.92,6.37-1.58,7.18-4.59s-.34-6.91-1.49-9.71a23.62,23.62,0,0,0-6.3-8.78.45.45,0,0,0-.65.24l-2.53,9.65c-.4,1.55-.61,3.06-2,4a6.64,6.64,0,0,0-2.21,1.86c-.21.34.52.36.69.08.66-1.07,2-1.37,2.83-2.27a7.37,7.37,0,0,0,1.3-3.27l2.66-10.13-.65.24a22.88,22.88,0,0,1,5.83,7.82,19.8,19.8,0,0,1,2,9.18c-.17,2.15-1.46,3.18-3.35,3.9-1.72.66-3.47,1.26-5.2,1.89s-4.06,1.86-5.9,1.13c-1.12-.44-2.11-3-.35-3.35.39-.07.38-.54,0-.52a76.06,76.06,0,0,1-7.7-.19,34.83,34.83,0,0,1-6.75-.93c-2.1-.59-3.83-1.81-4.31-4s0-4.46.23-6.58l.69-7.25c.1-1.06.15-2.13.32-3.18a4,4,0,0,1,.71-1.89l.62-.49,1.36,0c.19.17,0,.78-.05,1a11.11,11.11,0,0,0,3.28,9.67c1.81,1.75,3.68,3.18,4.9,5.44a32.15,32.15,0,0,1,2.47,6.93c.09.34.81.15.72-.19Z" transform="translate(-54.08 -288.12)"/></g><g class="cls-1"><path class="cls-2" d="M218.56,406.62c-.7,2.78.19,5.63-.37,8.42-.69,3.39-4,4.58-7.09,4.53-2.33,0-6-1.18-5.85-4.12.05-.85.46-1.8-.35-2.44s-2.47-.45-3.45-.48a20.32,20.32,0,0,1-4.73-.49,10.55,10.55,0,0,1-4-2.53,4.86,4.86,0,0,0-2.56-1.22c-1.54-.2-3,0-4.43-.67-2.25-1.13-3.55-3.55-4.23-5.87a16.54,16.54,0,0,1-.61-3.27,22.67,22.67,0,0,0-.33-4.28,16.79,16.79,0,0,0-2.11-3.73,6.49,6.49,0,0,1-.81-4.09,7.22,7.22,0,0,1,5.38-6.29l-.42-.11a29.5,29.5,0,0,0,5.28,12.24c.17.23.86,0,.66-.3a29.26,29.26,0,0,1-5.22-12.14c0-.17-.31-.14-.42-.12-4.55,1-7.52,6.52-5.3,10.77.77,1.49,2,2.67,2.33,4.37s.12,3.25.35,4.86a12.49,12.49,0,0,0,3.14,7.07,6.8,6.8,0,0,0,2.64,1.64c1.68.55,3.6-.05,5.16.84,1.2.68,2,1.84,3.23,2.52a10.64,10.64,0,0,0,4.32,1.15c.82.07,1.64.09,2.45.12a9.54,9.54,0,0,1,2.62.16c1.4.48.7,1.68.7,2.67a3.13,3.13,0,0,0,.39,1.47c1.17,2.1,4.09,2.75,6.29,2.74,2.66,0,5.7-.82,7.1-3.3,1.72-3.08.18-6.9,1-10.19.07-.31-.66-.21-.73.07Z" transform="translate(-54.08 -288.12)"/></g><g class="cls-1"><path class="cls-2" d="M185.89,389.15c1-4-2.94-11.36,3-12.81a20.07,20.07,0,0,1,4-.35c1.56-.05,3.13-.08,4.69,0a17.87,17.87,0,0,1,8.32,2.2,11,11,0,0,1,4.39,5c.57,1.35,1.69,7-1.25,6.28a6.37,6.37,0,0,1-2.7-2.27,24.83,24.83,0,0,0-2.4-2.72,13.14,13.14,0,0,0-5.85-3.14c-4.26-.95-9.1.84-11.11,4.85-.09.16.61.1.72-.11a8.64,8.64,0,0,1,7.44-4.64,11.79,11.79,0,0,1,8.12,3.31c1.73,1.56,3,4.37,5.35,5.09a2.71,2.71,0,0,0,1.9-.12c.83-.38,1-1.43,1.13-2.26.77-4.77-3.08-9.06-7.27-10.64a23.73,23.73,0,0,0-8.15-1.28c-2.51,0-5.35-.17-7.79.54-6.23,1.8-2.2,8.77-3.28,13.13,0,.22.67.11.72-.11Z" transform="translate(-54.08 -288.12)"/></g><g class="cls-1"><path class="cls-2" d="M172.42,370c-1.61-3.05-3.44-6.27-6.28-8.34a9,9,0,0,0-4.41-1.73c-1.66-.15-3.82.19-4.9-1.38-.12-.16-.63.06-.72.16a22.93,22.93,0,0,0-5.23,10.67,22.18,22.18,0,0,0-.36,2.82c0,.51-.3,1.8.25,2.11.35.19,1.36-.22.84-.61-.16-.11-.54.06-.67.15l-.08.06c-.14.09.51,0,.65-.07l.08-.05-.67.15c.48.35.28-.91.29-1.23,0-.71.08-1.41.17-2.11a22.65,22.65,0,0,1,1.09-4.6,23,23,0,0,1,4.35-7.42l-.72.16c.81,1.19,2.22,1.32,3.55,1.39a10.07,10.07,0,0,1,5.33,1.44c3.09,2,5,5.44,6.71,8.62.09.16.78-.1.73-.19Z" transform="translate(-54.08 -288.12)"/></g><g class="cls-1"><path class="cls-2" d="M177.47,379.78a33.26,33.26,0,0,0-1.2,14.3c.31,2.67,1,5.39.58,8.1-.37,2.38-1.89,5-4.46,5.38l.3.06c-2.06-4.31-4.36-8.59-6.06-13.07-1.42-3.76-2.56-8.18-1.09-12.1a7.09,7.09,0,0,1,4.5-4.6,3.82,3.82,0,0,1,5,2.62c.65,2.26.76,4.73,1.19,7,.48,2.48,1,4.95,1.69,7.39.54,2.06.95,4.65,2.19,6.43,1,1.49,3.27,1.31,4.09,2.89,1.22,2.35-.64,5.15-.16,7.61a2.26,2.26,0,0,0,2.24,1.85,14.44,14.44,0,0,0,2.62-.25c1.49-.17,3-.29,4.48-.35a62.76,62.76,0,0,1,8.11.19c2.47.22,5.43.31,7.59,1.65a4.56,4.56,0,0,1,2.1,2.81c.3,1.34-.36,2.35-1.12,3.38-1.18,1.6-1.48,2.87,0,4.39a4.8,4.8,0,0,1,1.58,2.64,5.26,5.26,0,0,1-.75,3.37c-1.52,2.55-4.62,3.34-7.3,4l.4.09A15.49,15.49,0,0,0,202.25,418l-.39.3,15.6-1.74-.3-.07c.33,3.19,2.81,5.36,4.81,7.64,1.75,2,3.33,5,2.31,7.75-2.07,5.55-9.78-2-12.85,2.33-.16.23.55.15.66,0,1.69-2.37,5.8-.08,8.13.09,1.95.15,4-.54,4.78-2.51.87-2.34-.18-5.19-1.64-7.05-2.06-2.65-5.1-4.84-5.48-8.43,0-.1-.25-.07-.3-.06L202,418c-.08,0-.53.14-.39.3a15.36,15.36,0,0,1,1.72,17.46c-.09.16.37.09.4.09,3.62-.93,8.54-2.49,8.74-7a4.05,4.05,0,0,0-.54-2.26c-.54-.9-1.58-1.47-2-2.45-.88-2.06,1.9-3.53,2.11-5.49s-1.32-3.6-3-4.36c-2.21-1-4.9-1.14-7.29-1.34a63.25,63.25,0,0,0-8.26-.17c-1.24.06-2.47.15-3.7.28s-3.35.79-4.41-.24-.58-2.91-.38-4.17a9.54,9.54,0,0,0,.17-4.08c-.57-1.92-2.61-1.69-3.86-2.88a7.4,7.4,0,0,1-1.58-3.3c-.41-1.36-.8-2.72-1.16-4.1-.72-2.75-1.32-5.53-1.82-8.33-.22-1.25-.41-2.5-.59-3.75a7.49,7.49,0,0,0-1-3.28c-1.83-2.67-5.91-1.62-8,.13-3.66,3.07-3.41,8.55-2.27,12.71,1.54,5.62,4.55,10.86,7.05,16.09.05.1.22.08.3.07A6,6,0,0,0,176.5,405c1.36-2.21,1.33-4.83,1-7.32a67.08,67.08,0,0,1-.81-8.84,31,31,0,0,1,1.47-9.18c.07-.2-.65-.1-.71.11Z" transform="translate(-54.08 -288.12)"/></g><g class="cls-1"><path class="cls-2" d="M208.59,434.34a16.55,16.55,0,0,0-1.3,10.53,2.3,2.3,0,0,1-1.3,2.89A12.7,12.7,0,0,1,202.4,449a14.32,14.32,0,0,1-6.28-.21c-3.34-.86-6.11-3.38-9.58-3.83-2-.27-4.07.29-6-.71a9.4,9.4,0,0,1-3.44-3.53c-1.94-3.2-2.63-7.09-5.47-9.71l-.5.28a39.78,39.78,0,0,0,9.43-1.66,52.38,52.38,0,0,0,8.7-3.86,18.67,18.67,0,0,1,5.5-1.79,19.48,19.48,0,0,0,4.06-1c2.15-.9,4.17-2.93,3.69-5.44,0-.16-.76,0-.72.2.69,3.59-3.19,5.28-6,5.82a24.09,24.09,0,0,0-6.91,2.12,51.91,51.91,0,0,1-8,3.61,37.32,37.32,0,0,1-9.43,1.71c-.07,0-.64.15-.49.28,3,2.78,3.6,7,5.83,10.28a8.5,8.5,0,0,0,3.6,3.2c2,.84,4.12.19,6.18.62s3.94,1.62,5.84,2.55a16.1,16.1,0,0,0,5.17,1.55c3.07.35,7.14-.14,9.68-2.09,1.66-1.27.41-3.86.36-5.61a16,16,0,0,1,1.65-7.52c.06-.12-.62-.07-.71.12Z" transform="translate(-54.08 -288.12)"/></g><g class="cls-1"><path class="cls-2" d="M202.53,415.91a35.79,35.79,0,0,1-18-4.85.54.54,0,0,0-.62.17,7,7,0,0,0-1,6.23,9.53,9.53,0,0,0,1.75,2.85,4.14,4.14,0,0,1,.93,1.66c.14.65-.2,2.1-1.17,1.84-.24-.06-.85.3-.44.41a1.86,1.86,0,0,0,2.12-1c.64-1.22-.09-2.37-.86-3.32a7.6,7.6,0,0,1-1.9-4.09,6.61,6.61,0,0,1,1.26-4.57l-.62.17a36.35,36.35,0,0,0,18.32,4.92c.28,0,.77-.43.28-.43Z" transform="translate(-54.08 -288.12)"/></g><g class="cls-1"><path class="cls-2" d="M174.66,432.77c-1.64,1.84-4,2.12-6.37,2-1.73-.13-4.84-.17-5.83-1.85-.85-1.44-.53-3.37-1.23-4.91a41.19,41.19,0,0,0-2.68-4.39c-.78-1.28-1.53-2.78-1.09-4.33.5-1.77,2.14-2.5,3.78-3,2.32-.64,5.13-.93,6.55-3.14a.06.06,0,0,0,0-.07,4.51,4.51,0,0,0-4,.31c-2.43,1.19-4.27,2.88-7.06,3.31-5.11.78-10.12-1.29-14.78-3.12a48.38,48.38,0,0,0-7.22-2.37,19.15,19.15,0,0,0-3.1-.45c-.46,0-.95,0-1.4,0s-.43.11-.54-.34a6,6,0,0,1,.42-1.44q2.37-8.07,4.73-16.15c1.52-5.17,3.21-10.49,7-14.48l-.69.12c3.35,7.76.27,17.56,5.73,24.54a9.12,9.12,0,0,0,7.8,3.56,6.91,6.91,0,0,0,6.09-3.64c.06-.13-.26-.1-.29-.09l-4.18.74c-1.34.23-2.43.64-3.63-.17a10.56,10.56,0,0,1-3.69-4.92c-1.82-4.49-1.29-9.49-2.8-14.06a14,14,0,0,1-1-3.38,5.47,5.47,0,0,1,1.24-3.45c1.55-2.31,3.18-4.57,4.77-6.85.83-1.19,1.64-2.39,2.49-3.56a7.68,7.68,0,0,1,1.23-1.44,5,5,0,0,1,3.73-.95,15.07,15.07,0,0,1,6.69,2.21c4.51,2.68,8,6.82,11.52,10.62.13.15.81-.11.68-.25-3.65-3.94-7.26-8.28-12-10.91-3.31-1.83-8.85-3.48-11.79-.16a79.28,79.28,0,0,0-5.09,7.21c-.9,1.29-1.8,2.57-2.7,3.87a6.86,6.86,0,0,0-1.48,3.24c-.12,1.41.6,2.7,1,4a25,25,0,0,1,.94,4.37,54.21,54.21,0,0,0,1.37,8.33,11.77,11.77,0,0,0,3.94,6.13,2.82,2.82,0,0,0,2.75.72l5.89-1L160,403c-1.44,3-5,3.74-8,2.86s-5.14-3.51-6.32-6.39c-2.77-6.79-.94-14.49-3.85-21.24-.09-.2-.6,0-.7.11-3.68,3.86-5.41,9-6.89,14q-2.76,9.33-5.47,18.65c0,.11.15.11.21.1,7.12-.39,13.24,3.83,20,5.44a19.2,19.2,0,0,0,8.19.38,12.33,12.33,0,0,0,3.23-1.1c1.51-.75,2.82-2,4.43-2.55.61-.2,2.38-.5,1.84.63-.12.26-.51.47-.75.63a6.85,6.85,0,0,1-1.75.77c-1.11.35-2.25.55-3.36.88-1.66.5-3.39,1.32-4,3.09-.72,2.2.88,4.33,2,6.06a17.74,17.74,0,0,1,1.82,3.16c.54,1.29.41,2.69.85,4,.47,1.46,1.68,1.87,3.07,2.14a24.47,24.47,0,0,0,4.36.5,8.18,8.18,0,0,0,6.41-2.36c.16-.18-.54-.11-.66,0Z" transform="translate(-54.08 -288.12)"/></g><g class="cls-1"><path class="cls-2" d="M172.9,419.32a42,42,0,0,1-7.78,21c-5,7-12.14,11.4-19.36,15.79l-13.42,8.16c-.3.18.42.1.55,0l12.36-7.51c3.7-2.25,7.44-4.45,10.94-7a42.75,42.75,0,0,0,14.42-18.15,41.46,41.46,0,0,0,3-12.46c0-.09-.7,0-.72.2Z" transform="translate(-54.08 -288.12)"/></g><g class="cls-1"><path class="cls-2" d="M106.68,481.26c2.33.91,4.7.35,7.1.2,2.17-.14,5.24.5,6,2.86.29.85.34,1.6-1.21,1.38a4.05,4.05,0,0,1-1.74-.91,15.72,15.72,0,0,0-2.79-2.17,12.35,12.35,0,0,0-3.2-.63c-1.37-.22-3.17-1.27-2.52-2.93l-.51.22a4.44,4.44,0,0,0,4.36-3.74,5.52,5.52,0,0,0-3.31-5.45c-4.32-2-8.87,2.54-8.22,6.9.78,5.32,7.16,7.16,11.56,8.25a23.23,23.23,0,0,1,7.85,3.1,8.45,8.45,0,0,1,2.72,3c.23.47.45.65-.14,1.06a4.19,4.19,0,0,1-1.36.36,11.24,11.24,0,0,1-3.88-.15c-4-.76-8-2.46-11.86-3.9q-3-1.11-5.88-2.29c-.89-.36-2.77-.73-3.08-1.73a5.94,5.94,0,0,1,0-1.46v-1.94l-.71.22c2.67,2.14,2.07,6,2.67,9a13.88,13.88,0,0,0,4.83,7.67,22.26,22.26,0,0,0,17.28,4.94,13.36,13.36,0,0,0,8.13-4.25s.06-.08,0-.11c-4.21-2.34-8.42-4.7-12.64-7a26.24,26.24,0,0,0-5.39-2.4,29.74,29.74,0,0,0-5.32-.56c-2.19-.22-3.74-1.19-4.08-3.48s-.08-4.41-.26-6.6c-.28-3.52-1.75-7.15-5.46-8.12-2.25-.59-4.14-1.09-5.43-3.2a6.53,6.53,0,0,1-.64-5.56c0-.08-.07-.09-.12-.09-3.83-.41-5.2,4.1-6.11,7a114.22,114.22,0,0,0-4.1,15.35c-.7,4.15-.91,8.8,1.19,12.61,2.22,4,6.56,5.74,10.86,6.6a57.19,57.19,0,0,0,29.77-2.07,33.48,33.48,0,0,0,6.52-2.78,5.64,5.64,0,0,0,2.9-5.08,46.51,46.51,0,0,0-1.13-8l-.64-3.89c-.23-1.39-.35-2.95-1.27-4.1-1.47-1.83-4.2-2.21-6.08-3.53-2.23-1.56-4-3.75-6.38-5.06a6.67,6.67,0,0,0-5.67-.6,4.13,4.13,0,0,0-2.83,4.45l.71-.23a6.22,6.22,0,0,1-2.29-3.79c0-.16-.76,0-.72.2a6.36,6.36,0,0,0,2.32,3.85c.12.09.74,0,.71-.23-.56-2.78,2.31-4.74,4.87-4.23a12.06,12.06,0,0,1,5.34,3.14,24.66,24.66,0,0,0,4.46,3.5c1.48.8,3.26,1.18,4.5,2.37,1.59,1.54,1.59,4.35,1.93,6.4.37,2.27.76,4.54,1.12,6.81.31,1.87.63,3.95-.19,5.73-1,2.17-3.65,3.06-5.72,3.9a56,56,0,0,1-26.27,3.77c-4-.39-8.34-1-11.85-3a11.77,11.77,0,0,1-5.67-8.56,28.36,28.36,0,0,1,.7-10.65c.94-4.21,2.19-8.38,3.48-12.49a20.77,20.77,0,0,1,2-5,6.52,6.52,0,0,1,.86-1.1,5.82,5.82,0,0,1,.53-.46c.13-.09,1.24-.64,1.39-.46s-.19,1.62-.19,2a6.69,6.69,0,0,0,4.86,6.44c2.15.59,4,1,5.33,2.93a10.67,10.67,0,0,1,1.67,5c.22,2.15,0,4.32.22,6.47.15,1.65.74,3.09,2.36,3.75a12.89,12.89,0,0,0,4.33.54,15.48,15.48,0,0,1,6.29,1.79c4.07,2,8,4.39,12,6.61.56.31,2.51,1.07,2.25,1.72s-1.59,1.43-2.2,1.81a13.2,13.2,0,0,1-5.76,1.84A21.61,21.61,0,0,1,109,501a18.46,18.46,0,0,1-8-6.49,12.38,12.38,0,0,1-1.82-4.72c-.27-1.62-.27-3.27-.6-4.88a5.91,5.91,0,0,0-2-3.65c-.12-.1-.7,0-.7.23v3.88a.1.1,0,0,0,.07,0q7.73,3.24,15.66,6c3.9,1.33,8.19,2.75,12.15.82,0,0,.18-.08.15-.15-2.25-6.13-10-6.43-15.21-8.33-2.94-1.07-6.06-2.84-7.07-6-1.08-3.36,1.43-8.47,5.5-7.74a5.61,5.61,0,0,1,4.1,3.54c.82,2.23-.33,5.38-3.07,5.42-.13,0-.46.07-.52.22a2.27,2.27,0,0,0,1.49,2.79c1.67.75,3.53.27,5.1,1.39,1.72,1.23,3.63,3.69,6,2.39.92-.5.3-1.87-.2-2.52a5.4,5.4,0,0,0-2.68-1.76c-3.32-1.09-6.81.78-10.11-.51-.17-.06-.82.21-.6.29Z" transform="translate(-54.08 -288.12)"/></g><g class="cls-1"><path class="cls-2" d="M109.9,466.89a11,11,0,0,1,12.38-.86,11.66,11.66,0,0,1,5.5,8.61c0,.2.74,0,.72-.19-.47-6.62-2.34-14-8-18.17a19.81,19.81,0,0,0-10.42-3.37c-1.84-.13-3.69-.13-5.53-.08a15,15,0,0,0-4.73.47c-1.77.63-2.3,2.2-2.76,3.88a47.38,47.38,0,0,0-1.43,7.73c0,.25.7.1.72-.1a47.56,47.56,0,0,1,1.36-7.5c.38-1.4.72-3.07,2.2-3.72a10,10,0,0,1,3.5-.38c4.53-.15,9.29-.16,13.52,1.68,7.69,3.35,10.27,12.06,10.82,19.75l.72-.19a11.72,11.72,0,0,0-7.57-9.65,12.36,12.36,0,0,0-11.6,2c-.31.24.41.2.57.07Z" transform="translate(-54.08 -288.12)"/></g><g class="cls-1"><path class="cls-2" d="M97.22,465.87c-3.14-.69-5.13-3.71-5.42-6.78-.39-4.15,2.6-7.1,6.63-7.59,4.42-.54,9,1.19,12.88,3.17a87,87,0,0,1,11.44,7.46c3.15,2.32,6.44,4.84,8.47,8.26a12.13,12.13,0,0,1,1.7,5.27c.14,1.94-.14,3.89-.11,5.84a7.7,7.7,0,0,0,1.42,4.86c1.22,1.52,3.17,2.15,4.55,3.5,3.12,3.07,2.07,8.08-.45,11.14-6.19,7.52-21.09,11.34-26.9,1.37l-.7.23c3.19,3.77,8.82,2.59,13.14,3.51a10.56,10.56,0,0,1,6.48,4.39,20.28,20.28,0,0,1,2,3.63c.25.57.47,1.14.68,1.72a6.33,6.33,0,0,1,.37,1c.09.58.07.56-.41,1a22.22,22.22,0,0,1-4.47,2.3c-1.55.71-3.13,1.37-4.73,2A62,62,0,0,1,104,525.85c-3.23.08-6.32-.35-8.31-3.15-4.31-6-.17-13.23,3.24-18.53.07-.1,0-.16-.1-.17-2.49-.33-4.29,1.54-5.06,3.74-1.25,3.58.79,7.54-.89,11a7.1,7.1,0,0,1-4.43,3.47,14.6,14.6,0,0,1-2.61.55c-.52.07-2.2.48-2.47-.07s.71-2.2,1-2.7A10.94,10.94,0,0,0,85.47,518c.66-2-.39-3.94-1.12-5.72l-3-7.34a12,12,0,0,1-1.1-3.37,3.32,3.32,0,0,1,.3-2,1.81,1.81,0,0,1,2.37-.92l.59-.32c-2.06-.54-3.75,1.23-4,3.2-.37,3.16,2.87,5.71,1.8,8.95-.37,1.13-1.18,2-2.5,1.75-.86-.17-1.6-1.14-2.11-1.8a32.73,32.73,0,0,1-3.15-5.12c-1.57-3.14-3-6.79-3.06-10.35a7.06,7.06,0,0,1,2.1-5.57,4.24,4.24,0,0,1,5.74-.15c.16.15.84-.11.68-.27-1.9-1.85-4.94-1.29-6.87.24-3,2.37-2.62,6.74-1.72,10a32.88,32.88,0,0,0,5.72,11.62c.89,1.13,2.09,2.11,3.62,1.77a3.15,3.15,0,0,0,2.17-2c.8-1.95,0-3.81-.81-5.62a8.48,8.48,0,0,1-.91-3.18c0-1.33.94-3.66,2.69-3.21.15,0,.89-.16.59-.32a2.83,2.83,0,0,0-3.66,1.27c-1.29,2.31.85,5.69,1.71,7.8L83.44,512a14.56,14.56,0,0,1,1.5,4.5c.15,2.57-2.51,4.21-2.25,6.77,0,.08.16.08.21.08,4.53-.08,10.47-1.27,11.29-6.61.47-3-.72-6.13.31-9.07a7.21,7.21,0,0,1,.93-1.81c.32-.42,1.81-2.05,2.43-1.52.37.31-.56,1.39-.77,1.73-.47.76-.93,1.53-1.37,2.32-2.58,4.7-4.13,11.12,0,15.48,2,2.11,4.76,2.43,7.53,2.39a62.33,62.33,0,0,0,9.83-1,64,64,0,0,0,21.08-7.72s.17-.1.15-.18c-1.53-4.67-3.85-9.85-9-11.36-4.48-1.32-10.59.28-14-3.69-.12-.14-.79.07-.7.24a13.16,13.16,0,0,0,10.38,6.18c4.68.39,9.33-1.31,13.23-3.79,3.49-2.21,6.92-5.48,7.11-9.88a7.17,7.17,0,0,0-2-5.49c-1.68-1.63-4.1-2.28-5.19-4.5s-.73-4.67-.63-6.95a14.46,14.46,0,0,0-.82-6.19c-1.68-4.11-5.33-7.07-8.8-9.64a84.41,84.41,0,0,0-12.51-8.15c-3.94-2-8.51-3.56-13-3-3.84.47-7.33,2.9-7.49,7-.14,3.6,2.08,7.26,5.71,8.06.2,0,.85-.27.46-.36Z" transform="translate(-54.08 -288.12)"/></g><g class="cls-1"><path class="cls-2" d="M213.07,533.62c2.37.52,5.73.85,7.17,3.11a3.65,3.65,0,0,1,.48,3,2.21,2.21,0,0,1-.86,1.21,2.5,2.5,0,0,1-2.33,0,11.32,11.32,0,0,1-5.31-5.74c-.71-2.12-.1-5.57,2.57-5.94a5.14,5.14,0,0,1,4.11,1.63,15.75,15.75,0,0,1,2.66,3.9c.11.2.8,0,.72-.19-1.41-2.6-3.25-5.64-6.58-5.71a4.51,4.51,0,0,0-4.5,5,7.42,7.42,0,0,0,1.76,4,11.08,11.08,0,0,0,3.6,3.11,3.91,3.91,0,0,0,3.64.08,2.81,2.81,0,0,0,1.36-2.8c-.32-3.77-5-4.35-7.9-5a.7.7,0,0,0-.51.09c-.05,0-.25.18-.08.22Z" transform="translate(-54.08 -288.12)"/></g><g class="cls-1"><path class="cls-2" d="M223,537.13c1.88.94,4.58,2.61,3.55,5.12-.77,1.9-3.26,2.79-5.15,2.88-4.6.22-9.29-2.45-11.92-6.12-1.41-2-2.81-5.06-1.09-7.29a3,3,0,0,1,2-1.22c.69-.08.68.47.9,1a21.63,21.63,0,0,0,1.49,3.11,23.24,23.24,0,0,0,4,5.13,22.42,22.42,0,0,0,2.61,2.15c.86.6,1.8,1.08,2.63,1.72,1,.8,1.78,2.15.74,3.28a5.27,5.27,0,0,1-3.14,1.28c-3.18.44-6.42.58-9.62.87-.41,0-.55.6-.05.55l6.09-.54a30.85,30.85,0,0,0,4.6-.52c1.89-.46,4.39-2,3-4.28-.72-1.14-2.08-1.72-3.16-2.44a22.5,22.5,0,0,1-8.87-11.67.3.3,0,0,0-.24-.18c-2.89-.45-4.74,2.44-4.41,5,.39,3.09,2.8,5.9,5.23,7.68a15.39,15.39,0,0,0,8.3,3c2.32.1,5.17-.71,6.49-2.78,1.86-2.89-1.24-5.13-3.53-6.27-.32-.16-.83.3-.42.5Z" transform="translate(-54.08 -288.12)"/></g><g class="cls-1"><path class="cls-2" d="M208.06,549.49a59.67,59.67,0,0,1-6.56-.34c-1-.16-1.66-.65-1.3-1.78a7.41,7.41,0,0,1,.55-1,23.9,23.9,0,0,0,1.36-3,25.29,25.29,0,0,0,1.5-11.43l-.49.37c1.67.07,2.51,1.76,2.47,3.26-.05,1.66-.88,3.22-1.32,4.8a13.78,13.78,0,0,0-.33,7.58,4.53,4.53,0,0,0,3.74,3.5,6.33,6.33,0,0,0,3.1-.71c1.54-.69,3-1.49,4.61-2a25.74,25.74,0,0,1,9.13-1.33,14.11,14.11,0,0,1,4.2.51c2.05.79.39,3.37-.74,4.32-1.85,1.55-4.41,2-5.8,4.13a21.28,21.28,0,0,0-1.34,2.86c-.81,1.74-2,2.5-3.93,2.13a22.65,22.65,0,0,1-9.18-4.52c-1.36-1-2.68-2.1-4-3.2s-2.74-2.49-2.38-4.35c0-.11-.08-.19-.17-.23a2.07,2.07,0,0,0-2.56.77c-.27.38.41.52.61.23l.31-.39q1.2-.48,1,.36a6.15,6.15,0,0,1,.1.75,4.74,4.74,0,0,0,.88,1.64,22.46,22.46,0,0,0,3.46,3.14,34.37,34.37,0,0,0,8.19,5.29c2.08.87,5.28,2.09,7.18.26a7.7,7.7,0,0,0,1.54-2.66,7.33,7.33,0,0,1,3.24-3.92c2.09-1.19,5-2.35,5.24-5.13.09-.88-.09-1.73-1-1.93a25.83,25.83,0,0,0-5.18-.63,26.63,26.63,0,0,0-9.76,1.67c-2.85,1.07-7,4.33-9.19.63-2-3.27-.66-7.58.45-10.88.49-1.44.94-3,.31-4.5a3,3,0,0,0-2.64-2c-.23,0-.51.1-.49.37A24.74,24.74,0,0,1,200,546.43c-.71,1.3-1,2.65.76,3.15a12.23,12.23,0,0,0,2.9.25l4.2.2c.37,0,.74-.52.25-.54Z" transform="translate(-54.08 -288.12)"/></g><g class="cls-1"><path class="cls-2" d="M198.6,555.12a25.33,25.33,0,0,1,15,.09c3.29,1.13,1.39,4.09-.19,5.85l-5.2,5.76.63-.06a17.21,17.21,0,0,0-13.38-5.92l.33.15-.58-7.64c0-.26-.48-.14-.6-.05-2.26,1.61-4-1.75-4.22-3.49-.21-1.92,0-3.8-.54-5.69a19.57,19.57,0,0,0-2.16-4.94,22,22,0,0,0-3.17-4.68c-1.92-1.87-3.73.3-4.13,2.22a19.1,19.1,0,0,0,0,5,40.7,40.7,0,0,0,.75,5.94c1.35,6.45,5.32,13,12.09,14.78a12.1,12.1,0,0,0,2.07.35c1.11.1,2.39-.08,3.36.6,1.31.93,1.43,2.85,1.74,4.28a8.33,8.33,0,0,0,2,4,6,6,0,0,0,3.41,2.1c1.31.09,1.71-1.52,1.91-2.53a8.48,8.48,0,0,0-.34-4.38,8.78,8.78,0,0,0-6.29-5.84c-.3-.06-.86.38-.42.47a8.32,8.32,0,0,1,5.88,5.27,8.45,8.45,0,0,1,.56,3.62,5.5,5.5,0,0,1-.44,2.05c-.69,1.36-2.06.28-2.85-.37a7.59,7.59,0,0,1-2.53-3.8,28.85,28.85,0,0,0-.94-3.77c-1.22-2.81-4.46-1.9-6.89-2.57-6.46-1.76-10.23-8.07-11.57-14.24a40.35,40.35,0,0,1-.74-5.26,26.1,26.1,0,0,1-.12-5.3,4.53,4.53,0,0,1,.64-2c.82-1.2,1.86-.74,2.64.25a36.49,36.49,0,0,1,3,4.67,17,17,0,0,1,2,5.51c.29,1.81,0,3.69.46,5.47.58,2.2,3.09,4.11,5.24,2.57l-.6-.05.58,7.63c0,.14.23.16.32.16a16.57,16.57,0,0,1,12.79,5.73.46.46,0,0,0,.63-.06,91.05,91.05,0,0,0,6.22-7c1.14-1.56,1.94-3.88-.2-5-2.29-1.17-5.42-1.43-7.94-1.5a27.48,27.48,0,0,0-8.4,1.09c-.44.12-.32.59.13.47Z" transform="translate(-54.08 -288.12)"/></g><g class="cls-1"><path class="cls-2" d="M208.31,535.8c1-6.09-1-13.62-7.83-15.13a7.9,7.9,0,0,0-4.15.2c-1.13.35-2.17.86-3.37.49a3.31,3.31,0,0,0-1.55-.28c-1.27.24-1.82,1.77-2.37,2.75l-3,5.49c-.85,1.53-2.34,3.6-1.59,5.44a2.34,2.34,0,0,0,2.86,1.47c.44-.13.31-.64-.14-.5-1.51.46-2.29-1.34-2.15-2.52a8.2,8.2,0,0,1,1.17-2.82c1-1.77,2-3.53,2.93-5.3.43-.78.84-1.58,1.3-2.35a1.56,1.56,0,0,1,2-.94c.32.07.6.2.93.24,1.53.18,2.91-.77,4.4-1,3.26-.43,6.48,1.54,8.21,4.22,2,3.1,2.21,7,1.65,10.56-.06.37.68.28.74-.05Z" transform="translate(-54.08 -288.12)"/></g><g class="cls-1"><path class="cls-2" d="M194.58,519.1c2.53-7.59,11.42-10.39,18.54-8a22.81,22.81,0,0,1,9.57,6.6,11.76,11.76,0,0,1,3,5.27c.41,2.12-.55,4.69-2.86,5.17-.45.1-.31.61.14.51,2.91-.62,4.06-3.83,3.3-6.47-1-3.37-4-6.26-6.72-8.32-5.4-4.08-12.61-5.69-18.85-2.53a13.45,13.45,0,0,0-6.83,7.63c-.14.4.59.4.69.09Z" transform="translate(-54.08 -288.12)"/></g><g class="cls-1"><path class="cls-2" d="M219.66,530.5a11.87,11.87,0,0,0-8.86-10.65,9.85,9.85,0,0,0-6.45.39c-1.9.83-3.79,2.48-3.8,4.71,0,4.26,5.8,5,8.7,3.33,1.4-.82,2.5-2.12,4.13-2.52a16,16,0,0,1,5.68.09,22,22,0,0,1,9.54,3.31,13.92,13.92,0,0,1,5.71,7.79,9.54,9.54,0,0,1,.07,5c-.56,1.91-2.08,4.09-4.32,3.87-.2,0-.84.33-.45.36a4.87,4.87,0,0,0,4.6-2.39,8.79,8.79,0,0,0,.82-7.07c-1.47-5.56-6.46-9.1-11.79-10.54a26.88,26.88,0,0,0-8.46-1,7.2,7.2,0,0,0-3.17.9c-1.21.7-2.18,1.8-3.5,2.32-2.24.9-5.57.11-6.57-2.28-1.34-3.16,2.15-5.77,4.9-6.2,6.24-1,12.26,4.62,12.5,10.73,0,.2.73.07.72-.19Z" transform="translate(-54.08 -288.12)"/></g><g class="cls-1"><path class="cls-2" d="M230.17,551.26l3.44,4.21c1.11,1.36,2.24,2.6,1.81,4.49-.64,2.74-3.36,5.15-5.62,6.63A18,18,0,0,1,214,568.54l-.25.45,7.06-1c2.32-.33,4.66-.82,7-1s3.63,1.59,3.54,3.84a8.91,8.91,0,0,1-1.85,4.64,14.81,14.81,0,0,0-2.56,4.65,8.27,8.27,0,0,0-.14,2.43A3.27,3.27,0,0,1,225,586a39.06,39.06,0,0,1-6.38,2.74c-1,.34-2,.67-3,.91-1.64.37-2.72-.18-3-1.82a47.67,47.67,0,0,1-.37-7.27l-.34-8.47c0-.27-.73-.11-.72.2l.35,9,.18,4.48a8.5,8.5,0,0,0,.45,3.21c.78,1.71,2.52,1.43,4,1a45.73,45.73,0,0,0,7.26-2.66c1.69-.78,3.82-1.55,4.07-3.66.12-1.08-.14-2.16.05-3.23a10,10,0,0,1,1.69-3.59c1.13-1.69,2.41-3.26,2.73-5.32a4.63,4.63,0,0,0-1.11-4.22c-1.81-1.58-5-.49-7.06-.19l-10,1.43c-.2,0-.64.31-.26.45a19.12,19.12,0,0,0,16.75-2.12c2.33-1.53,4.88-3.85,5.76-6.58a4.14,4.14,0,0,0-.9-4.06c-1.39-1.79-2.86-3.51-4.29-5.26-.18-.22-.88,0-.67.3Z" transform="translate(-54.08 -288.12)"/></g><g class="cls-1"><path class="cls-2" d="M207.91,577.22c.28,2.4-.85,4.7-2.09,6.69a11.18,11.18,0,0,1-4.43,4.33,6.31,6.31,0,0,1-5.65-.09,5.19,5.19,0,0,1-2.48-4.89c0-1.78.44-3.54.37-5.33a7.05,7.05,0,0,0-1.9-4.55c-1.15-1.33-2.68-2.47-3.38-4.13s-.74-4,1.11-4.69c.47-.18,0-.53-.31-.39-2.52,1-2.29,4.31-1,6.23,1,1.47,2.43,2.55,3.48,4,1.34,1.8,1.4,3.81,1.18,6-.32,3.12-.68,6.74,2.66,8.36a7.64,7.64,0,0,0,8-1.16c2.88-2.28,5.63-6.71,5.19-10.49,0-.3-.77-.13-.73.19Z" transform="translate(-54.08 -288.12)"/></g><g class="cls-1"><path class="cls-2" d="M182.32,555.05c-3.37,2.45-8.09,1.53-11-1.13-3.23-2.89-4.1-7.6-3.55-11.73.29-2.14,1.43-4.22,1.47-6.37,0-2-1.38-3.13-2.3-4.73-1.38-2.4-.15-5.12.93-7.39.87-1.82,1.87-3.81,3.59-5,2.77-1.86,6.09-.24,8.8.91l8,3.39c.29.13.84-.3.42-.48L180.18,519c-2.24-1-4.74-2.05-7.22-1.46a7.47,7.47,0,0,0-4.42,3.51,19.33,19.33,0,0,0-2.91,6.7A5.28,5.28,0,0,0,166,531c.51,1,1.36,1.85,1.92,2.86.88,1.58.39,3.21-.11,4.82a20.59,20.59,0,0,0-.84,3.55c-.59,4.37.42,9.34,3.94,12.28,3.29,2.74,8.3,3.44,11.87.84.4-.29-.2-.52-.48-.32Z" transform="translate(-54.08 -288.12)"/></g><g class="cls-1"><path class="cls-2" d="M166.81,553.55c-2.54.39-6.08.75-7.91-1.5-1.1-1.35-1-3.16-1-4.8V541.6c0-2.65-.21-7.27,3.16-8,1.22-.28,2.49.18,3.6-.61a1.61,1.61,0,0,0,.61-2.26c-.11-.14-.46,0-.56,0-2.05,1.08-4.29,2.27-6.67,2.23a6.69,6.69,0,0,1-4.78-2.25,17.06,17.06,0,0,1-3.73-8.36c-.67-3.55-.1-7.63,3.64-9.19s7.93.3,11.14,2.47c.2.13.85-.16.67-.28-2.66-1.8-5.7-3.35-9-3.16a7.79,7.79,0,0,0-6.62,3.87c-1.51,2.95-.72,6.64.3,9.61.91,2.68,2.38,5.52,5,6.9,3.49,1.84,7.36,0,10.52-1.65l-.56,0c1.24,1.72-1.93,2.1-3,2.18a4.62,4.62,0,0,0-1.64.38,4,4,0,0,0-1.9,1.93c-1.37,2.7-.89,6.24-.89,9.15s-.7,6.84,2.11,8.61c2.15,1.35,5.06,1.06,7.44.7.34-.06.61-.45.11-.38Z" transform="translate(-54.08 -288.12)"/></g><g class="cls-1"><path class="cls-2" d="M168.84,513.43a19.08,19.08,0,0,0,7.33-4.57,7.69,7.69,0,0,0,2.32-3.59,2.58,2.58,0,0,0-1.49-2.92,12.15,12.15,0,0,0-4.23-.83,8.24,8.24,0,0,0-4.44.63c-2,1-3.54,3.69-1.82,5.71,1.58,1.87,4.65,2,6.9,1.85.18,0,.6-.28.32-.46a4.35,4.35,0,0,0-3.44-.55l.43.2c.25-1.95,2.85-2,4.21-1.24,1.87,1,3.14,2.79,5.18,3.5.29.1.85-.33.42-.48-2.41-.83-3.84-3.45-6.41-3.89-1.63-.29-3.88.25-4.13,2.17,0,.23.28.24.42.21a3.49,3.49,0,0,1,2.76.49l.31-.46a9.29,9.29,0,0,1-5.54-1c-2-1.29-1.74-3.9.08-5.26a6.15,6.15,0,0,1,4.1-.94,16.51,16.51,0,0,1,3.77.56,2.35,2.35,0,0,1,1.89,2.67,6.67,6.67,0,0,1-2,3.19,18.07,18.07,0,0,1-7.09,4.54c-.43.15-.32.62.12.47Z" transform="translate(-54.08 -288.12)"/></g><g class="cls-1"><path class="cls-2" d="M182.16,512.82l2.68-2.17c.12-.1.06-.24-.08-.28a.6.6,0,0,0-.51.14l-2.68,2.16a.16.16,0,0,0,.08.28.59.59,0,0,0,.51-.13Z" transform="translate(-54.08 -288.12)"/></g><g class="cls-1"><path class="cls-2" d="M182.17,512.65a8.44,8.44,0,0,0-2.09-12.9,17.1,17.1,0,0,0-8-1.7c-3.71-.09-7.43.06-11.15.1-.15,0-.43.07-.5.23-1.39,2.92-2.2,6.52-.7,9.56a6.66,6.66,0,0,0,6,3.9c.24,0,.79-.36.3-.35a6.49,6.49,0,0,1-6-4.6c-1-2.86-.21-6,1-8.62l-.5.23c3.31,0,6.63-.12,9.94-.11a19.19,19.19,0,0,1,8.29,1.37,8.29,8.29,0,0,1,2.58,12.92c-.17.19.53.12.67,0Z" transform="translate(-54.08 -288.12)"/></g><g class="cls-1"><path class="cls-2" d="M163.65,510.08c-2-1-4-2-5.93-3.07-1.44-.76-2.52-1.92-2.06-3.63.68-2.48,3.23-4.39,2.91-7.15,0-.2-.75-.05-.72.19.33,2.95-2.72,4.85-3,7.63a3.23,3.23,0,0,0,2,3.13c2,1.14,4.14,2.15,6.21,3.22.19.09.85-.18.59-.32Z" transform="translate(-54.08 -288.12)"/></g><g class="cls-1"><path class="cls-2" d="M155.43,504.64c-3.94,1.37-9,3.16-10.69,7.41-1.23,3.15-.21,7.8,3.53,8.57.26.06.86-.33.44-.42-3.49-.72-4.38-5.13-3.31-8.05,1.5-4.1,6.4-5.8,10.14-7.11.42-.14.33-.55-.11-.4Z" transform="translate(-54.08 -288.12)"/></g><g class="cls-1"><path class="cls-2" d="M149.54,517.4c-1.48-2.12-4.62-2.16-6.61-.74-2.71,1.92-3.12,5.83-2.55,8.85,1.19,6.19,7.51,7.74,12.61,9.63,3,1.12,6,2.55,7.59,5.52l.17-.37a31.42,31.42,0,0,0-8.64,7.35c-.29.35.39.47.6.21a30.94,30.94,0,0,1,8.36-7.14c.14-.08.26-.2.17-.37-2.87-5.49-10.11-5.87-15.05-8.53a9.5,9.5,0,0,1-5.29-8.8c0-2.13.59-4.58,2.38-5.93a4,4,0,0,1,5.59.64c.19.27.88,0,.67-.32Z" transform="translate(-54.08 -288.12)"/></g><g class="cls-1"><path class="cls-2" d="M281.51,553.44c15.41-7,27-21.34,31-37.69a52.81,52.81,0,0,0,1.55-14.22c0-.17-.51,0-.57,0A55.59,55.59,0,0,0,296.25,516a37.72,37.72,0,0,0-8.19,21c-.47,4.68-.8,9.63-3.7,13.54l.69-.11c-1.34-4.14-.35-8.52-1.16-12.74a20.43,20.43,0,0,0-4.37-9.09,21.53,21.53,0,0,0-17.75-8c-.09,0-.56.09-.51.27l6.21,21.21c.84,2.85,1.49,5.84,2.89,8.48,1,1.8,2.36,3.75,4.4,4.36a5.4,5.4,0,0,0,5.05-1.31c1.91-1.64,3.37-3.8,5.21-5.52,3.81-3.54,8.15-6.43,12.08-9.82s7.51-7.47,8.79-12.7c.06-.25-.61,0-.69.07a265.12,265.12,0,0,1-29.66,26.37c-.3.23.42.17.56.06a267,267,0,0,0,29.77-26.46l-.69.07c-2.26,9.21-11.1,14.3-17.93,19.92a51.73,51.73,0,0,0-4.81,4.43c-1.82,1.94-3.81,5.45-6.95,4.63-2.22-.58-3.69-2.83-4.64-4.75a48.93,48.93,0,0,1-2.65-8L262,520.71l-.52.27a21.22,21.22,0,0,1,17.81,8.43,20.05,20.05,0,0,1,4,9.16c.6,4-.24,8.13,1,12.06.06.2.61,0,.69-.12,2.34-3.15,3.05-7,3.47-10.79s.73-7.78,1.92-11.55A43.2,43.2,0,0,1,303,509.48a58.35,58.35,0,0,1,11-7.78l-.57,0c.45,16.78-7.42,33.36-20.28,44.06a52.78,52.78,0,0,1-12,7.53c-.43.19.24.22.43.13Z" transform="translate(-54.08 -288.12)"/></g><g class="cls-1"><path class="cls-2" d="M289.06,553.88a76.06,76.06,0,0,1,15.12-5,29.9,29.9,0,0,1,7.67-.54,21.76,21.76,0,0,1,3.92.62,20,20,0,0,1,2,.61c1,.36.84.74.29,1.57-1.28,1.93-3.43,3.38-5.22,4.79a32,32,0,0,1-6.56,4.18c-5,2.25-10.49,1.73-15.51-.23-5.34-2.1-10.08-5.48-14.62-8.93-.21-.16-.87.13-.68.28,5.55,4.21,11.52,8.5,18.39,10.17a20,20,0,0,0,9.44.13,24,24,0,0,0,8.43-4.21c1.63-1.18,3.2-2.44,4.72-3.74a9.68,9.68,0,0,0,3-3.82.11.11,0,0,0-.07-.13c-10.1-4.23-21.13,0-30.59,4-.46.19,0,.43.29.3Z" transform="translate(-54.08 -288.12)"/></g><g class="cls-1"><path class="cls-2" d="M271.91,557.35l-12.41-.74c-.07,0-.66.11-.59.24,2.77,5.91,9.48,8,13.62,12.7,2.2,2.49,3.93,5.9,2.84,9.28a7.42,7.42,0,0,1-6.09,4.81c-6.4,1.05-11.13-3.58-13.84-8.87a60.63,60.63,0,0,1-3.57-9.13c-1-3-1.72-8.12,2-9.74,3.91-1.67,6.43,3.93,7.12,6.76s1.26,6.32,3.9,8.25c.15.1.78-.16.69-.24a41.16,41.16,0,0,1-8.53-9.71c-.1-.17-.77.12-.72.19a41.13,41.13,0,0,0,8.56,9.76l.69-.24c-3-2.2-3.18-6.1-4.18-9.37-.79-2.59-2.7-5.81-5.74-5.91a5.36,5.36,0,0,0-5.24,4.49,12.09,12.09,0,0,0,.77,6.17c.59,1.82,1.23,3.63,1.93,5.4,2.35,5.92,6.29,12.25,13.31,12.59,5.2.26,10.93-3,9.84-9-1.65-9-13.06-10.71-16.67-18.41l-.6.24,12.41.74c.15,0,.82-.26.47-.28Z" transform="translate(-54.08 -288.12)"/></g><g class="cls-1"><path class="cls-2" d="M256.5,563.78a15.57,15.57,0,0,1,12.25-13c.19,0,.68-.37.21-.35a30.57,30.57,0,0,0-6.49,1.21,29,29,0,0,1-8.08,1c-5.31-.15-10.49-1.58-15.57-3-.2,0-.84.25-.59.32,5,1.39,10.1,2.78,15.32,3a27.92,27.92,0,0,0,6.89-.52c2.75-.56,5.4-1.55,8.22-1.66l.21-.35a16.3,16.3,0,0,0-13.09,13.47c0,.24.69.1.72-.11Z" transform="translate(-54.08 -288.12)"/></g><g class="cls-1"><path class="cls-2" d="M115.94,447.16c-1.52,3.06-5.75,2.94-8.29,1.29-3.09-2-4.42-5.91-5.78-9.14-1.18-2.81-2.64-5.77-5.2-7.56-2.71-1.91-5.93-1.45-9-1.88A7.16,7.16,0,0,1,82.8,427a4.6,4.6,0,0,0-3.13-2,2.24,2.24,0,0,0-2.29,1.17,5.21,5.21,0,0,0-.19,2.26,3.66,3.66,0,0,1-.73,2.21c-1.55,2.08-4.36,2.85-5.77,5.09-1.52,2.42-.35,5.48,1.7,7.19,3,2.53,7.78,3.09,11.56,3.49a48.3,48.3,0,0,0,13.89-.56c.17,0,.46-.33.21-.47q-5.89-3.24-11.8-6.46c-.29-.16-.92.23-.56.42q5.91,3.23,11.8,6.47l.21-.47a46.94,46.94,0,0,1-12.8.6c-3.7-.34-8.18-.82-11.33-3a6.37,6.37,0,0,1-2.79-4.17,4.67,4.67,0,0,1,1.89-4.36c1.65-1.41,4.09-2.41,5-4.54.57-1.4-.44-4.42,1.83-4.35,1.8.06,2.72,2,3.88,3.1,2.25,2.09,5.49,1.75,8.32,2,7.79.71,8.79,8.84,12.06,14.39,1.54,2.59,3.79,4.7,6.9,5a5.81,5.81,0,0,0,6-2.86c.18-.38-.55-.39-.7-.09Z" transform="translate(-54.08 -288.12)"/></g><g class="cls-1"><path class="cls-2" d="M100,445.12a24,24,0,0,0,19-10.81.17.17,0,0,0-.13-.25A62.58,62.58,0,0,0,97,433.79c-.37.06-.57.56-.08.48a61.31,61.31,0,0,1,21.53.24l-.13-.25a23,23,0,0,1-18.21,10.38c-.39,0-.58.5-.08.48Z" transform="translate(-54.08 -288.12)"/></g><g class="cls-1"><path class="cls-2" d="M95.64,448.2c-4,10-16.34,12.55-25.8,14.15-3.58.6-7.45.95-10.77-.82a7.59,7.59,0,0,1-4.28-6.15c-.13-2.93,1.7-5.7,4-7.38,2.93-2.16,6.71-2.66,10.23-3,7.85-.77,15.72-1.43,23.58-2.15.19,0,.78-.33.31-.29-8.14.74-16.3,1.36-24.43,2.24-5.58.61-12.51,2.39-14.16,8.63a7,7,0,0,0,2.57,7.36c2.5,2,5.74,2.5,8.86,2.32a60.82,60.82,0,0,0,9.85-1.64,55.86,55.86,0,0,0,7.91-2.29c5.47-2.08,10.63-5.45,12.85-11.1.05-.12-.64-.06-.71.13Z" transform="translate(-54.08 -288.12)"/></g><g class="cls-1"><path class="cls-2" d="M89.8,449.35A51,51,0,0,1,69.53,453c-.27,0-.77.39-.28.4a52.28,52.28,0,0,0,20.83-3.77c.47-.19,0-.42-.28-.29Z" transform="translate(-54.08 -288.12)"/></g><g class="cls-1"><path class="cls-2" d="M146.63,480.57c.23,0,.78-.35.29-.35-.23,0-.78.35-.29.35Z" transform="translate(-54.08 -288.12)"/></g><g class="cls-1"><path class="cls-2" d="M142.08,462a9.85,9.85,0,0,0-5.84-3.35l0,.47c8.48-4,18.35-2.44,26.57,1.44a73.93,73.93,0,0,1,12,7.38c1.79,1.32,3.55,2.67,5.3,4s4.34,2.92,4.09,5.42l.3-.27c-13.25,3.24-27.73-.68-38-9.58a40.43,40.43,0,0,1-7.52-8.72l-.46.42A90.88,90.88,0,0,1,166,466.84c.29.14.83-.29.42-.48a91.63,91.63,0,0,0-27.63-7.6c-.21,0-.63.16-.46.42,7.51,11.74,21,19.08,34.91,19.61a41.43,41.43,0,0,0,11.37-1.15c.12,0,.29-.13.3-.27a4.55,4.55,0,0,0-1.78-3.77c-1.37-1.27-2.93-2.36-4.41-3.5a113.3,113.3,0,0,0-9.79-6.89c-6.47-4-13.71-6.85-21.38-6.94A26.43,26.43,0,0,0,136,458.73c-.26.12-.27.41,0,.47a9.23,9.23,0,0,1,5.43,3.14c.21.25.9,0,.66-.31Z" transform="translate(-54.08 -288.12)"/></g><g class="cls-1"><path class="cls-2" d="M141.7,462a65.51,65.51,0,0,1,19.36,21.5,9.82,9.82,0,0,1,1.34,3.08c.2,1.21-.24,2.35-1.74,2.42a5.37,5.37,0,0,1-2.14-.54,38.59,38.59,0,0,1-6-3.27,50,50,0,0,1-10.23-8.79,49.36,49.36,0,0,1-8.41-13.29l-.59.28a20.09,20.09,0,0,1,7.26,3.33,20.35,20.35,0,0,1,2.7,2.38c.39.41.77.84,1.12,1.29s1.14,1.22,1.21,1.69c.15,1-1.49.79-2.11.53a5.85,5.85,0,0,1-1.51-.93,20.6,20.6,0,0,1-2.66-2.94,36.17,36.17,0,0,1-4.44-7.19c-.89-1.9-3.65-6.95-.77-8.22,1.3-.57,3.12-.35,4.5-.4l4.94-.16,19.26-.63c1.83-.06,4.09.11,5.69-1a2.37,2.37,0,0,0,.58-3.62c-1.29-1.56-3.49-2-5.37-2.4a78.54,78.54,0,0,0-8.48-1.29c-4.9-.4-9.91.06-14.28,2.45s-8.28,6.68-13.62,6.8c-1.9.05-4.08-.25-5.83.67-.52.27-1.39.91-1.42,1.58s1.17,1.94,1.72,2.52a15.42,15.42,0,0,0,13.43,4.62c.13,0,.67-.31.28-.37A24,24,0,0,0,119,465.49c-.41.26.23.32.44.19a22.61,22.61,0,0,1,15.62-3.14l.28-.37a14.8,14.8,0,0,1-12.23-3.88,13.58,13.58,0,0,1-1.88-2.19c-.94-1.34.56-2.19,1.78-2.42,1.82-.34,3.7,0,5.52-.25,3.87-.55,7-3.09,10.15-5.22a22.72,22.72,0,0,1,6.56-3.25,25.77,25.77,0,0,1,7.87-.79,56.5,56.5,0,0,1,7.56.9c2.12.37,4.45.6,6.35,1.69a3.61,3.61,0,0,1,1.92,2.12c.34,1.51-1,2.45-2.35,2.69a52.46,52.46,0,0,1-7.93.36l-16.3.54a56.57,56.57,0,0,0-7.37.32c-1.34.22-2.69.87-2.88,2.37a7.68,7.68,0,0,0,.71,3.35,36.21,36.21,0,0,0,1.51,3.64,37.19,37.19,0,0,0,3.81,6.24c1.31,1.72,2.81,3.84,4.92,4.65a2.73,2.73,0,0,0,3.41-.74.11.11,0,0,0,0-.14,20.45,20.45,0,0,0-12.71-9.11c-.12,0-.68.08-.59.28A49.74,49.74,0,0,0,152.71,486c1.94,1.2,8.75,5.87,10.32,1.86a4,4,0,0,0-.48-3.13c-.62-1.28-1.37-2.52-2.11-3.73a67.49,67.49,0,0,0-4.63-6.61,66.1,66.1,0,0,0-13.43-12.66c-.2-.14-.85.15-.68.27Z" transform="translate(-54.08 -288.12)"/></g><g class="cls-1"><path class="cls-2" d="M198.5,507.8c-.06-7.73,3.32-14.91,8.16-20.79a52.06,52.06,0,0,1,8.43-8.09,28.48,28.48,0,0,0,4.42-3.78,13,13,0,0,0,2.47-4.93,25.44,25.44,0,0,0-.25-14.34c-.08-.26-.6,0-.7.09a50,50,0,0,0-10.87,20.77c-.38,1.52-1,3.44-.19,4.93a2.44,2.44,0,0,0,2.85,1.25,3.25,3.25,0,0,0,1.9-2.45c.69-2.25,1.23-4.57,1.84-6.85.07-.26-.64-.11-.73.1a36.66,36.66,0,0,0-2.61,11.91c0,.19.29.15.41.12a76.27,76.27,0,0,1,14.57-2l-.14-.25a13.48,13.48,0,0,1-18.23-.31l-.56.33A25.69,25.69,0,0,1,217.8,486l.34-.36a26.28,26.28,0,0,1-25.5-10.7c-.12-.16-.69,0-.7.19-.23,3.89-.23,8.4,3.42,10.77,3.45,2.24,7.94,1.79,11.64,3.44l.43-.37-3.47.2c-.12,0-.72.18-.44.36.59.39,1.63-.2,1.34-.94s-1.19-.69-1.72-.8c-1.34-.28-2.68-.54-4-.81-.22,0-.85.29-.44.38l2.91.58,1.34.28a5.65,5.65,0,0,1,.71.17.59.59,0,0,1,.47.8l-.43.37,3.47-.2c.1,0,.76-.22.44-.36-3.44-1.53-7.41-1.29-10.78-3-4.25-2.11-4.38-6.86-4.14-11l-.7.19A26.86,26.86,0,0,0,218,486c.11,0,.62-.23.34-.36a26.31,26.31,0,0,0-8.66-2.52c-.1,0-.78.12-.56.33a14.48,14.48,0,0,0,19.47.14c.15-.14,0-.26-.14-.25a77.65,77.65,0,0,0-15,2.06l.4.12a36.67,36.67,0,0,1,2.62-11.91l-.73.1-1.37,5.14a21.31,21.31,0,0,1-.67,2.33c-.29.73-.37.79-1.2,1.06s-1,.29-1.55-.3c-1.2-1.34-.63-3.35-.26-4.9s.83-3.12,1.36-4.65A49.73,49.73,0,0,1,221.7,456l-.7.09a25.2,25.2,0,0,1,.47,13.4,13.36,13.36,0,0,1-2.63,5.67,33.9,33.9,0,0,1-4.94,4.16,45.38,45.38,0,0,0-13.6,16.79A28.92,28.92,0,0,0,197.77,508c0,.21.73.08.73-.19Z" transform="translate(-54.08 -288.12)"/></g><g class="cls-1"><path class="cls-2" d="M199.8,503A17.59,17.59,0,0,0,219,498.87c.15-.16,0-.33-.17-.34a84.72,84.72,0,0,0-21.73,1.38c-.3.06-.43.42-.06.48l11.28,1.89.16-.5-9.41.35c-.4,0-.57.51-.07.5l9.41-.35c.31,0,.61-.43.16-.5l-11.28-1.89-.06.48A83,83,0,0,1,218.61,499l-.17-.35a16.6,16.6,0,0,1-18.22,3.89c-.28-.12-.84.29-.42.46Z" transform="translate(-54.08 -288.12)"/></g><g class="cls-1"><path class="cls-2" d="M195.11,502c-1.06-.78-2.48.06-3,1.1a12.73,12.73,0,0,0-.59,2.6,3.19,3.19,0,0,1-2,2.19,14.18,14.18,0,0,1-5.22.78c-1.88,0-3.86-.29-5.17-1.77l-.17.36a32.66,32.66,0,0,1,10.58-4c.46-.09.32-.56-.13-.48a33.51,33.51,0,0,0-10.77,4c-.1.06-.3.22-.17.36,2.22,2.52,6.27,2.17,9.26,1.66a5.83,5.83,0,0,0,3.89-1.91,5.09,5.09,0,0,0,.78-2.37c.14-.84.79-3.16,2.11-2.19.25.19.89-.16.56-.4Z" transform="translate(-54.08 -288.12)"/></g><g class="cls-1"><path class="cls-2" d="M202.51,586.49c.41,0,.57-.52.07-.52s-.56.52-.07.52Z" transform="translate(-54.08 -288.12)"/></g></svg>